M48
;GenerationSoftware,Autodesk,EAGLE,9.3.0*%
;CreationDate,2019-06-04T22:41:36Z*%
FMAT,2
ICI,OFF
METRIC,TZ,000.000
T6C0.350
T5C0.800
T4C0.813
T3C1.000
T2C1.016
T1C1.900
%
G90
M71
T1
X5080Y89060
X5080Y96360
T2
X96520Y76200
X96520Y52070
X96520Y54610
X96520Y57150
X96520Y59690
X96520Y62230
X60960Y2540
X63500Y2540
X66040Y2540
X68580Y2540
X71120Y2540
X76200Y86360
X73660Y2540
X76200Y2540
X78740Y2540
X2540Y62230
X2540Y59690
X2540Y57150
X2540Y54610
X2540Y52070
X2540Y49530
X2540Y44450
X40640Y2540
X43180Y2540
X96520Y46990
X45720Y2540
X48260Y2540
X50800Y2540
X96520Y66040
X96520Y68580
X96520Y71120
X96520Y73660
X30480Y53340
X30480Y55880
X30480Y58420
X80010Y97790
X82550Y97790
X85090Y97790
X87630Y97790
X90170Y97790
X92710Y97790
X95250Y97790
X97790Y97790
X2540Y46990
X69850Y95250
X74930Y95250
X71120Y86360
X96520Y44450
X96520Y49530
T3
X20130Y95250
X28130Y95250
T4
X41910Y54610
X39370Y54610
X49530Y44450
X46990Y44450
X85090Y80010
X82550Y80010
X52070Y95250
X49530Y95250
X30480Y85090
X33020Y85090
X34290Y74930
X63500Y52070
X68580Y52070
X34290Y95250
X29210Y74930
X48260Y88900
X62230Y96520
X64770Y96520
X62230Y88900
X64770Y88900
X58420Y88900
X44450Y88900
X34290Y88900
X48260Y73660
X48260Y83820
X58420Y73660
X58420Y83820
X36830Y95250
X35560Y97155
T5
X10180Y94310
X10180Y92710
X10180Y91110
X22130Y95250
X8980Y93510
X24130Y95250
X26130Y95250
X8980Y91910
T6
X85090Y76835
X87630Y76835
X87630Y93980
X85090Y93980
X61595Y86360
X61595Y73660
X45720Y56515
X45720Y66675
X59690Y66675
X59690Y73660
X60325Y88900
X60325Y78105
X54610Y78105
X54610Y67945
X48863Y67945
X49530Y70485
X87630Y71120
X87630Y73025
X92075Y73025
X91440Y95250
X87630Y95250
X50165Y63500
X19685Y64135
X19685Y55245
X50800Y60960
X74930Y60960
X74930Y74930
X90170Y75565
X51435Y81280
X92710Y90805
X77470Y81280
X77470Y84455
X92710Y84455
X94615Y74930
X88900Y74295
X88900Y66675
X66675Y66675
X66675Y59055
X54610Y59055
X46990Y54610
X92710Y69850
X92710Y78105
X98425Y78105
X8890Y62230
X53340Y62230
X58334Y52098
X60325Y50165
X60325Y64770
X15875Y64770
X15875Y92710
X61595Y51435
X61595Y69215
X7620Y69215
X59055Y51534
X71120Y40640
X53370Y40670
X46347Y50157
X40005Y50165
X40005Y27940
X66040Y27940
X45085Y51435
X26035Y51435
X26035Y46990
X46990Y52070
X32385Y49530
X32385Y52070
X41910Y44450
X41910Y50800
X46990Y50800
X45085Y52705
X27305Y52070
X27305Y48260
X34290Y48260
X34290Y52705
X59690Y56515
X80010Y56515
X80010Y63500
X93980Y63500
X93980Y71120
X82550Y95250
X76835Y95250
X76835Y97790
X81280Y95250
X78740Y46990
X53967Y58412
X78740Y57785
X33020Y95250
X30480Y95250
X62230Y91440
X45720Y91440
X45720Y76200
X45720Y83820
X85090Y82550
X69215Y82550
X69215Y91440
X46990Y53340
X43815Y53340
X43815Y54610
X26035Y60325
X26035Y74930
X10795Y60325
X10795Y14605
X50800Y14605
X52705Y46990
X49530Y46990
X41910Y76200
X59055Y36195
X49530Y36195
X50800Y6350
X58420Y92710
X64770Y92710
X44724Y54610
X44450Y58420
X33655Y58420
X33647Y53348
X45720Y55245
X43815Y55880
X43180Y59690
X52705Y80010
X57150Y52705
X45720Y48260
X67945Y95250
X67945Y72390
X43180Y48260
X51435Y48260
X37465Y73660
X36830Y57785
X34925Y57785
X35560Y41275
X43180Y41275
X57150Y55897
X77470Y55880
X77470Y61595
X59055Y55245
X86360Y55245
X86360Y59690
X55880Y69850
X57150Y54610
X81280Y54610
X81280Y57150
X58420Y53975
X57150Y24765
X78740Y24765
X55245Y47625
X92075Y47724
X92075Y52070
X73025Y49530
X73025Y48260
X70485Y48260
X70485Y45720
X54610Y45720
X53977Y46990
X73660Y46990
X52070Y37465
X76200Y37465
X50743Y45663
X52705Y45085
X52705Y38735
X68580Y38735
X48260Y41910
X51435Y41910
X51435Y46256
X48260Y46355
X47625Y48895
X44450Y48994
X46990Y55880
X46990Y57150
X46990Y71755
X85090Y71755
M30