G04 EAGLE Gerber RS-274X export*
G75*
%MOMM*%
%FSLAX34Y34*%
%LPD*%
%INTop Copper*%
%IPPOS*%
%AMOC8*
5,1,8,0,0,1.08239X$1,22.5*%
G01*
%ADD10P,1.429621X8X202.500000*%
%ADD11P,1.429621X8X22.500000*%
%ADD12C,1.320800*%
%ADD13C,1.308000*%
%ADD14C,2.850000*%
%ADD15P,1.429621X8X112.500000*%
%ADD16C,1.879600*%
%ADD17C,1.508000*%
%ADD18C,0.406400*%
%ADD19C,0.756400*%
%ADD20C,0.152400*%


D10*
X419100Y546100D03*
X393700Y546100D03*
X495300Y444500D03*
X469900Y444500D03*
X850900Y800100D03*
X825500Y800100D03*
X520700Y952500D03*
X495300Y952500D03*
D11*
X304800Y850900D03*
X330200Y850900D03*
D12*
X292100Y749300D03*
D11*
X342900Y749300D03*
D12*
X635000Y520700D03*
D11*
X685800Y520700D03*
D13*
X101800Y943100D03*
X101800Y927100D03*
X101800Y911100D03*
X89800Y935100D03*
X89800Y919100D03*
D14*
X50800Y890600D03*
X50800Y963600D03*
D11*
X622300Y965200D03*
X647700Y965200D03*
X622300Y889000D03*
X647700Y889000D03*
X482600Y889000D03*
X584200Y889000D03*
D10*
X444500Y889000D03*
X342900Y889000D03*
D15*
X482600Y736600D03*
X482600Y838200D03*
X584200Y736600D03*
X584200Y838200D03*
D16*
X304800Y533400D03*
X304800Y558800D03*
X304800Y584200D03*
X800100Y977900D03*
X825500Y977900D03*
X850900Y977900D03*
X876300Y977900D03*
X901700Y977900D03*
X927100Y977900D03*
X952500Y977900D03*
X977900Y977900D03*
D17*
X281300Y952500D03*
X201300Y952500D03*
D13*
X261300Y952500D03*
X241300Y952500D03*
X221300Y952500D03*
D11*
X368300Y952500D03*
X355600Y971550D03*
X342900Y952500D03*
D16*
X698500Y952500D03*
X749300Y952500D03*
X711200Y863600D03*
X762000Y863600D03*
X965200Y444500D03*
X965200Y469900D03*
X965200Y495300D03*
X965200Y520700D03*
X965200Y546100D03*
X965200Y571500D03*
X965200Y596900D03*
X965200Y622300D03*
X609600Y25400D03*
X635000Y25400D03*
X660400Y25400D03*
X685800Y25400D03*
X711200Y25400D03*
X736600Y25400D03*
X762000Y25400D03*
X787400Y25400D03*
X25400Y622300D03*
X25400Y596900D03*
X25400Y571500D03*
X25400Y546100D03*
X25400Y520700D03*
X25400Y495300D03*
X25400Y469900D03*
X25400Y444500D03*
X406400Y25400D03*
X431800Y25400D03*
X457200Y25400D03*
X482600Y25400D03*
X508000Y25400D03*
X965200Y660400D03*
X965200Y685800D03*
X965200Y711200D03*
X965200Y736600D03*
X965200Y762000D03*
D18*
X241300Y952500D02*
X225124Y936324D01*
X112912Y936324D02*
X112912Y938212D01*
X101800Y938212D01*
X101800Y943100D01*
X112912Y936324D02*
X225124Y936324D01*
X261300Y952500D02*
X274000Y939800D01*
X508000Y939800D01*
X520700Y952500D01*
X520700Y965200D01*
X381000Y965200D02*
X368300Y952500D01*
X381000Y965200D02*
X520700Y965200D01*
D19*
X825500Y952500D03*
D18*
X812800Y952500D01*
D19*
X768350Y952500D03*
D18*
X812800Y952500D01*
D19*
X768350Y977900D03*
D18*
X527050Y977900D01*
X526892Y977898D01*
X526733Y977892D01*
X526575Y977882D01*
X526418Y977868D01*
X526260Y977851D01*
X526104Y977829D01*
X525947Y977804D01*
X525792Y977774D01*
X525637Y977741D01*
X525483Y977704D01*
X525330Y977663D01*
X525178Y977618D01*
X525028Y977569D01*
X524878Y977517D01*
X524730Y977461D01*
X524583Y977401D01*
X524438Y977338D01*
X524295Y977271D01*
X524153Y977201D01*
X524013Y977127D01*
X523875Y977049D01*
X523739Y976968D01*
X523605Y976884D01*
X523473Y976797D01*
X523343Y976706D01*
X523216Y976612D01*
X523091Y976515D01*
X522968Y976414D01*
X522848Y976311D01*
X522731Y976205D01*
X522616Y976096D01*
X522504Y975984D01*
X522395Y975869D01*
X522289Y975752D01*
X522186Y975632D01*
X522085Y975509D01*
X521988Y975384D01*
X521894Y975257D01*
X521803Y975127D01*
X521716Y974995D01*
X521632Y974861D01*
X521551Y974725D01*
X521473Y974587D01*
X521399Y974447D01*
X521329Y974305D01*
X521262Y974162D01*
X521199Y974017D01*
X521139Y973870D01*
X521083Y973722D01*
X521031Y973572D01*
X520982Y973422D01*
X520937Y973270D01*
X520896Y973117D01*
X520859Y972963D01*
X520826Y972808D01*
X520796Y972653D01*
X520771Y972496D01*
X520749Y972340D01*
X520732Y972182D01*
X520718Y972025D01*
X520708Y971867D01*
X520702Y971708D01*
X520700Y971550D01*
X520700Y965200D01*
D19*
X812800Y952500D03*
X787400Y469900D03*
D18*
X965200Y469900D01*
D19*
X539674Y584124D03*
D18*
X539826Y584124D01*
X539982Y584122D01*
X540139Y584116D01*
X540295Y584106D01*
X540451Y584093D01*
X540606Y584075D01*
X540761Y584054D01*
X540915Y584029D01*
X541069Y584000D01*
X541222Y583967D01*
X541374Y583930D01*
X541525Y583890D01*
X541675Y583845D01*
X541824Y583797D01*
X541972Y583746D01*
X542118Y583690D01*
X542263Y583631D01*
X542406Y583569D01*
X542548Y583503D01*
X542688Y583433D01*
X542827Y583360D01*
X542963Y583283D01*
X543097Y583204D01*
X543230Y583120D01*
X543360Y583034D01*
X543488Y582944D01*
X543614Y582851D01*
X543738Y582755D01*
X543859Y582656D01*
X543977Y582554D01*
X544093Y582449D01*
X544207Y582341D01*
X544317Y582231D01*
X544425Y582117D01*
X544530Y582001D01*
X544632Y581883D01*
X544731Y581762D01*
X544827Y581638D01*
X544920Y581512D01*
X545010Y581384D01*
X545096Y581254D01*
X545180Y581121D01*
X545259Y580987D01*
X545336Y580851D01*
X545409Y580712D01*
X545479Y580572D01*
X545545Y580430D01*
X545607Y580287D01*
X545666Y580142D01*
X545722Y579996D01*
X545773Y579848D01*
X545821Y579699D01*
X545866Y579549D01*
X545906Y579398D01*
X545943Y579246D01*
X545976Y579093D01*
X546005Y578939D01*
X546030Y578785D01*
X546051Y578630D01*
X546069Y578475D01*
X546082Y578319D01*
X546092Y578163D01*
X546098Y578006D01*
X546100Y577850D01*
X787400Y577850D01*
D19*
X787400Y577850D03*
X330200Y952500D03*
D18*
X304800Y952500D01*
D19*
X304800Y952500D03*
X622300Y914400D03*
X457200Y914400D03*
X457200Y762000D03*
D18*
X419100Y762000D01*
X304800Y762000D01*
X304800Y749300D01*
X292100Y749300D01*
X330200Y952500D02*
X342900Y952500D01*
D19*
X457200Y838200D03*
D18*
X482600Y838200D01*
D19*
X850900Y825500D03*
X692150Y825500D03*
X692150Y914400D03*
X469900Y533400D03*
D20*
X438150Y533400D01*
D19*
X438150Y533400D03*
X438150Y546100D03*
D20*
X419100Y546100D01*
D18*
X31750Y603250D02*
X31592Y603248D01*
X31433Y603242D01*
X31275Y603232D01*
X31118Y603218D01*
X30960Y603201D01*
X30804Y603179D01*
X30647Y603154D01*
X30492Y603124D01*
X30337Y603091D01*
X30183Y603054D01*
X30030Y603013D01*
X29878Y602968D01*
X29728Y602919D01*
X29578Y602867D01*
X29430Y602811D01*
X29283Y602751D01*
X29138Y602688D01*
X28995Y602621D01*
X28853Y602551D01*
X28713Y602477D01*
X28575Y602399D01*
X28439Y602318D01*
X28305Y602234D01*
X28173Y602147D01*
X28043Y602056D01*
X27916Y601962D01*
X27791Y601865D01*
X27668Y601764D01*
X27548Y601661D01*
X27431Y601555D01*
X27316Y601446D01*
X27204Y601334D01*
X27095Y601219D01*
X26989Y601102D01*
X26886Y600982D01*
X26785Y600859D01*
X26688Y600734D01*
X26594Y600607D01*
X26503Y600477D01*
X26416Y600345D01*
X26332Y600211D01*
X26251Y600075D01*
X26173Y599937D01*
X26099Y599797D01*
X26029Y599655D01*
X25962Y599512D01*
X25899Y599367D01*
X25839Y599220D01*
X25783Y599072D01*
X25731Y598922D01*
X25682Y598772D01*
X25637Y598620D01*
X25596Y598467D01*
X25559Y598313D01*
X25526Y598158D01*
X25496Y598003D01*
X25471Y597846D01*
X25449Y597690D01*
X25432Y597532D01*
X25418Y597375D01*
X25408Y597217D01*
X25402Y597058D01*
X25400Y596900D01*
X31750Y603250D02*
X107950Y603250D01*
D19*
X260350Y603250D03*
D18*
X107950Y603250D01*
D19*
X260350Y749300D03*
D18*
X292100Y749300D01*
X457200Y914400D02*
X622300Y914400D01*
X692150Y825500D02*
X850900Y825500D01*
D19*
X107950Y603250D03*
X107950Y146050D03*
D18*
X508000Y146050D01*
D19*
X508000Y146050D03*
X527050Y469900D03*
D18*
X495300Y469900D01*
D19*
X495300Y469900D03*
X419100Y762000D03*
X590550Y361950D03*
D18*
X495300Y361950D01*
D19*
X495300Y361950D03*
D18*
X622300Y914400D02*
X692150Y914400D01*
X584200Y838200D02*
X482600Y838200D01*
D19*
X508000Y63500D03*
D18*
X635000Y63500D01*
X635000Y25400D01*
D19*
X584200Y927100D03*
D18*
X647700Y927100D01*
D19*
X647700Y927100D03*
D18*
X647700Y889000D02*
X636668Y889000D01*
X468232Y889000D02*
X457200Y889000D01*
X626508Y878840D02*
X636668Y889000D01*
X478392Y878840D02*
X468232Y889000D01*
X478392Y878840D02*
X626508Y878840D01*
X454660Y884792D02*
X448708Y878840D01*
X440292Y878840D01*
X454660Y886460D02*
X457200Y889000D01*
X454660Y886460D02*
X454660Y884792D01*
X430132Y889000D02*
X342900Y889000D01*
X430132Y889000D02*
X440292Y878840D01*
D19*
X469900Y546100D03*
X447238Y546100D03*
X444500Y584200D03*
D20*
X336550Y584200D01*
D19*
X336550Y584200D03*
X336474Y533476D03*
D20*
X336473Y533461D01*
X336468Y533447D01*
X336461Y533434D01*
X336452Y533422D01*
X336440Y533413D01*
X336427Y533406D01*
X336413Y533401D01*
X336398Y533400D01*
X304800Y533400D01*
D19*
X457200Y552450D03*
D20*
X457198Y552608D01*
X457192Y552767D01*
X457182Y552925D01*
X457168Y553082D01*
X457151Y553240D01*
X457129Y553396D01*
X457104Y553553D01*
X457074Y553708D01*
X457041Y553863D01*
X457004Y554017D01*
X456963Y554170D01*
X456918Y554322D01*
X456869Y554472D01*
X456817Y554622D01*
X456761Y554770D01*
X456701Y554917D01*
X456638Y555062D01*
X456571Y555205D01*
X456501Y555347D01*
X456427Y555487D01*
X456349Y555625D01*
X456268Y555761D01*
X456184Y555895D01*
X456097Y556027D01*
X456006Y556157D01*
X455912Y556284D01*
X455815Y556409D01*
X455714Y556532D01*
X455611Y556652D01*
X455505Y556769D01*
X455396Y556884D01*
X455284Y556996D01*
X455169Y557105D01*
X455052Y557211D01*
X454932Y557314D01*
X454809Y557415D01*
X454684Y557512D01*
X454557Y557606D01*
X454427Y557697D01*
X454295Y557784D01*
X454161Y557868D01*
X454025Y557949D01*
X453887Y558027D01*
X453747Y558101D01*
X453605Y558171D01*
X453462Y558238D01*
X453317Y558301D01*
X453170Y558361D01*
X453022Y558417D01*
X452872Y558469D01*
X452722Y558518D01*
X452570Y558563D01*
X452417Y558604D01*
X452263Y558641D01*
X452108Y558674D01*
X451953Y558704D01*
X451796Y558729D01*
X451640Y558751D01*
X451482Y558768D01*
X451325Y558782D01*
X451167Y558792D01*
X451008Y558798D01*
X450850Y558800D01*
X438150Y558800D01*
D19*
X438150Y558800D03*
X431800Y596900D03*
D20*
X311150Y596900D01*
X310992Y596898D01*
X310833Y596892D01*
X310675Y596882D01*
X310518Y596868D01*
X310360Y596851D01*
X310204Y596829D01*
X310047Y596804D01*
X309892Y596774D01*
X309737Y596741D01*
X309583Y596704D01*
X309430Y596663D01*
X309278Y596618D01*
X309128Y596569D01*
X308978Y596517D01*
X308830Y596461D01*
X308683Y596401D01*
X308538Y596338D01*
X308395Y596271D01*
X308253Y596201D01*
X308113Y596127D01*
X307975Y596049D01*
X307839Y595968D01*
X307705Y595884D01*
X307573Y595797D01*
X307443Y595706D01*
X307316Y595612D01*
X307191Y595515D01*
X307068Y595414D01*
X306948Y595311D01*
X306831Y595205D01*
X306716Y595096D01*
X306604Y594984D01*
X306495Y594869D01*
X306389Y594752D01*
X306286Y594632D01*
X306185Y594509D01*
X306088Y594384D01*
X305994Y594257D01*
X305903Y594127D01*
X305816Y593995D01*
X305732Y593861D01*
X305651Y593725D01*
X305573Y593587D01*
X305499Y593447D01*
X305429Y593305D01*
X305362Y593162D01*
X305299Y593017D01*
X305239Y592870D01*
X305183Y592722D01*
X305131Y592572D01*
X305082Y592422D01*
X305037Y592270D01*
X304996Y592117D01*
X304959Y591963D01*
X304926Y591808D01*
X304896Y591653D01*
X304871Y591496D01*
X304849Y591340D01*
X304832Y591182D01*
X304818Y591025D01*
X304808Y590867D01*
X304802Y590708D01*
X304800Y590550D01*
X304800Y584200D01*
D19*
X527050Y800100D03*
D20*
X825500Y800100D01*
D19*
X571500Y527050D03*
D20*
X635000Y527050D01*
X635000Y520700D01*
D19*
X457200Y482600D03*
X679450Y952500D03*
X679450Y723900D03*
X431800Y482600D03*
D18*
X457200Y482600D01*
D19*
X514350Y482600D03*
D20*
X457200Y482600D01*
D18*
X482600Y736600D02*
X374650Y736600D01*
D19*
X374650Y736600D03*
X368300Y577850D03*
D18*
X349250Y577850D01*
D19*
X349250Y577850D03*
X355600Y412750D03*
D18*
X431800Y412750D01*
X495300Y723900D02*
X494993Y723904D01*
X494686Y723915D01*
X494380Y723933D01*
X494074Y723959D01*
X493769Y723993D01*
X493465Y724033D01*
X493162Y724081D01*
X492860Y724137D01*
X492560Y724199D01*
X492261Y724269D01*
X491964Y724346D01*
X491668Y724430D01*
X491375Y724522D01*
X491085Y724620D01*
X490797Y724725D01*
X490511Y724838D01*
X490228Y724957D01*
X489948Y725083D01*
X489671Y725215D01*
X489398Y725355D01*
X489128Y725501D01*
X488862Y725653D01*
X488599Y725812D01*
X488340Y725977D01*
X488086Y726148D01*
X487835Y726325D01*
X487589Y726509D01*
X487347Y726698D01*
X487111Y726893D01*
X486878Y727094D01*
X486651Y727300D01*
X486429Y727512D01*
X486212Y727729D01*
X486000Y727951D01*
X485794Y728178D01*
X485593Y728411D01*
X485398Y728647D01*
X485209Y728889D01*
X485025Y729135D01*
X484848Y729386D01*
X484677Y729640D01*
X484512Y729899D01*
X484353Y730162D01*
X484201Y730428D01*
X484055Y730698D01*
X483915Y730971D01*
X483783Y731248D01*
X483657Y731528D01*
X483538Y731811D01*
X483425Y732097D01*
X483320Y732385D01*
X483222Y732675D01*
X483130Y732968D01*
X483046Y733264D01*
X482969Y733561D01*
X482899Y733860D01*
X482837Y734160D01*
X482781Y734462D01*
X482733Y734765D01*
X482693Y735069D01*
X482659Y735374D01*
X482633Y735680D01*
X482615Y735986D01*
X482604Y736293D01*
X482600Y736600D01*
X495300Y723900D02*
X679450Y723900D01*
D19*
X431800Y412750D03*
X571500Y558968D03*
D20*
X774532Y558968D01*
X774556Y558966D01*
X774579Y558961D01*
X774602Y558953D01*
X774623Y558941D01*
X774642Y558927D01*
X774659Y558910D01*
X774673Y558891D01*
X774685Y558870D01*
X774693Y558847D01*
X774698Y558824D01*
X774700Y558800D01*
D19*
X774700Y558800D03*
X774700Y615950D03*
D20*
X958850Y615950D01*
X959008Y615952D01*
X959167Y615958D01*
X959325Y615968D01*
X959482Y615982D01*
X959640Y615999D01*
X959796Y616021D01*
X959953Y616046D01*
X960108Y616076D01*
X960263Y616109D01*
X960417Y616146D01*
X960570Y616187D01*
X960722Y616232D01*
X960872Y616281D01*
X961022Y616333D01*
X961170Y616389D01*
X961317Y616449D01*
X961462Y616512D01*
X961605Y616579D01*
X961747Y616649D01*
X961887Y616723D01*
X962025Y616801D01*
X962161Y616882D01*
X962295Y616966D01*
X962427Y617053D01*
X962557Y617144D01*
X962684Y617238D01*
X962809Y617335D01*
X962932Y617436D01*
X963052Y617539D01*
X963169Y617645D01*
X963284Y617754D01*
X963396Y617866D01*
X963505Y617981D01*
X963611Y618098D01*
X963714Y618218D01*
X963815Y618341D01*
X963912Y618466D01*
X964006Y618593D01*
X964097Y618723D01*
X964184Y618855D01*
X964268Y618989D01*
X964349Y619125D01*
X964427Y619263D01*
X964501Y619403D01*
X964571Y619545D01*
X964638Y619688D01*
X964701Y619833D01*
X964761Y619980D01*
X964817Y620128D01*
X964869Y620278D01*
X964918Y620428D01*
X964963Y620580D01*
X965004Y620733D01*
X965041Y620887D01*
X965074Y621042D01*
X965104Y621197D01*
X965129Y621354D01*
X965151Y621510D01*
X965168Y621668D01*
X965182Y621825D01*
X965192Y621983D01*
X965198Y622142D01*
X965200Y622300D01*
D19*
X590550Y552450D03*
D20*
X863600Y552450D01*
D19*
X863600Y552450D03*
X863600Y596900D03*
D20*
X965200Y596900D01*
D19*
X571500Y546100D03*
D20*
X812800Y546100D01*
D19*
X812800Y546100D03*
X812800Y571500D03*
D20*
X965200Y571500D01*
D19*
X584200Y539750D03*
D20*
X958850Y539750D01*
X959008Y539752D01*
X959167Y539758D01*
X959325Y539768D01*
X959482Y539782D01*
X959640Y539799D01*
X959796Y539821D01*
X959953Y539846D01*
X960108Y539876D01*
X960263Y539909D01*
X960417Y539946D01*
X960570Y539987D01*
X960722Y540032D01*
X960872Y540081D01*
X961022Y540133D01*
X961170Y540189D01*
X961317Y540249D01*
X961462Y540312D01*
X961605Y540379D01*
X961747Y540449D01*
X961887Y540523D01*
X962025Y540601D01*
X962161Y540682D01*
X962295Y540766D01*
X962427Y540853D01*
X962557Y540944D01*
X962684Y541038D01*
X962809Y541135D01*
X962932Y541236D01*
X963052Y541339D01*
X963169Y541445D01*
X963284Y541554D01*
X963396Y541666D01*
X963505Y541781D01*
X963611Y541898D01*
X963714Y542018D01*
X963815Y542141D01*
X963912Y542266D01*
X964006Y542393D01*
X964097Y542523D01*
X964184Y542655D01*
X964268Y542789D01*
X964349Y542925D01*
X964427Y543063D01*
X964501Y543203D01*
X964571Y543345D01*
X964638Y543488D01*
X964701Y543633D01*
X964761Y543780D01*
X964817Y543928D01*
X964869Y544078D01*
X964918Y544228D01*
X964963Y544380D01*
X965004Y544533D01*
X965041Y544687D01*
X965074Y544842D01*
X965104Y544997D01*
X965129Y545154D01*
X965151Y545310D01*
X965168Y545468D01*
X965182Y545625D01*
X965192Y545783D01*
X965198Y545942D01*
X965200Y546100D01*
D19*
X571500Y247650D03*
D20*
X787400Y247650D01*
D19*
X787400Y247650D03*
X552450Y476250D03*
D20*
X919762Y476250D01*
X919824Y476252D01*
X919886Y476258D01*
X919947Y476268D01*
X920008Y476281D01*
X920067Y476298D01*
X920126Y476319D01*
X920183Y476344D01*
X920238Y476372D01*
X920291Y476404D01*
X920343Y476439D01*
X920392Y476477D01*
X920438Y476518D01*
X920482Y476562D01*
X920523Y476608D01*
X920561Y476657D01*
X920596Y476709D01*
X920628Y476762D01*
X920656Y476817D01*
X920681Y476874D01*
X920702Y476933D01*
X920719Y476992D01*
X920732Y477053D01*
X920742Y477114D01*
X920748Y477176D01*
X920750Y477238D01*
D19*
X920750Y477238D03*
X920750Y520700D03*
D20*
X965200Y520700D01*
X965200Y495300D02*
X730250Y495300D01*
D19*
X730250Y495300D03*
X730250Y482600D03*
D20*
X704850Y482600D01*
D19*
X704850Y482600D03*
X704850Y457200D03*
D20*
X546100Y457200D01*
D19*
X546100Y457200D03*
X539768Y469900D03*
D20*
X736600Y469900D01*
D19*
X736600Y469900D03*
X520700Y374650D03*
D20*
X762000Y374650D01*
D19*
X762000Y374650D03*
X507430Y456630D03*
X527050Y450850D03*
X527050Y387350D03*
D20*
X685800Y387350D01*
D19*
X685800Y387350D03*
D20*
X527050Y450850D02*
X508000Y450850D01*
X508000Y456060D01*
X507430Y456630D01*
D19*
X482600Y419100D03*
D20*
X514350Y419100D01*
D19*
X514350Y419100D03*
X514350Y462562D03*
D20*
X514348Y462624D01*
X514342Y462686D01*
X514332Y462747D01*
X514319Y462808D01*
X514302Y462867D01*
X514281Y462926D01*
X514256Y462983D01*
X514228Y463038D01*
X514196Y463091D01*
X514161Y463143D01*
X514123Y463192D01*
X514082Y463238D01*
X514038Y463282D01*
X513992Y463323D01*
X513943Y463361D01*
X513891Y463396D01*
X513838Y463428D01*
X513783Y463456D01*
X513726Y463481D01*
X513667Y463502D01*
X513608Y463519D01*
X513547Y463532D01*
X513486Y463542D01*
X513424Y463548D01*
X513362Y463550D01*
X482600Y463550D01*
D19*
X482600Y463550D03*
X476250Y488950D03*
D20*
X444500Y488950D01*
X444500Y489938D01*
D19*
X444500Y489938D03*
X469900Y558800D03*
D20*
X469900Y571500D01*
D19*
X469900Y571500D03*
X469900Y717550D03*
D20*
X850900Y717550D01*
D19*
X850900Y717550D03*
X850900Y768350D03*
D20*
X876300Y768350D01*
D19*
X876300Y768350D03*
X876300Y939800D03*
D20*
X850900Y939800D01*
D19*
X850900Y939800D03*
X615950Y863600D03*
X615950Y736600D03*
X457200Y565150D03*
D18*
X615950Y863600D02*
X711200Y863600D01*
X615950Y736600D02*
X596900Y736600D01*
X584200Y736600D01*
D19*
X457200Y666750D03*
D20*
X596900Y666750D01*
D19*
X596900Y666750D03*
X596900Y736600D03*
D20*
X603250Y889000D02*
X622300Y889000D01*
D19*
X603250Y889000D03*
X603250Y781050D03*
D20*
X546100Y781050D01*
D19*
X546100Y781050D03*
X546100Y679450D03*
D20*
X488632Y679450D01*
D19*
X488632Y679450D03*
X495300Y704850D03*
D20*
X869950Y704850D01*
X870108Y704852D01*
X870267Y704858D01*
X870425Y704868D01*
X870582Y704882D01*
X870740Y704899D01*
X870896Y704921D01*
X871053Y704946D01*
X871208Y704976D01*
X871363Y705009D01*
X871517Y705046D01*
X871670Y705087D01*
X871822Y705132D01*
X871972Y705181D01*
X872122Y705233D01*
X872270Y705289D01*
X872417Y705349D01*
X872562Y705412D01*
X872705Y705479D01*
X872847Y705549D01*
X872987Y705623D01*
X873125Y705701D01*
X873261Y705782D01*
X873395Y705866D01*
X873527Y705953D01*
X873657Y706044D01*
X873784Y706138D01*
X873909Y706235D01*
X874032Y706336D01*
X874152Y706439D01*
X874269Y706545D01*
X874384Y706654D01*
X874496Y706766D01*
X874605Y706881D01*
X874711Y706998D01*
X874814Y707118D01*
X874915Y707241D01*
X875012Y707366D01*
X875106Y707493D01*
X875197Y707623D01*
X875284Y707755D01*
X875368Y707889D01*
X875449Y708025D01*
X875527Y708163D01*
X875601Y708303D01*
X875671Y708445D01*
X875738Y708588D01*
X875801Y708733D01*
X875861Y708880D01*
X875917Y709028D01*
X875969Y709178D01*
X876018Y709328D01*
X876063Y709480D01*
X876104Y709633D01*
X876141Y709787D01*
X876174Y709942D01*
X876204Y710097D01*
X876229Y710254D01*
X876251Y710410D01*
X876268Y710568D01*
X876282Y710725D01*
X876292Y710883D01*
X876298Y711042D01*
X876300Y711200D01*
D19*
X876300Y711200D03*
X876300Y730250D03*
X920750Y730250D03*
X914400Y952500D03*
D20*
X876300Y952500D01*
D19*
X876300Y952500D03*
D20*
X876300Y730250D02*
X920750Y730250D01*
D19*
X501650Y635000D03*
D20*
X501648Y635158D01*
X501642Y635317D01*
X501632Y635475D01*
X501618Y635632D01*
X501601Y635790D01*
X501579Y635946D01*
X501554Y636103D01*
X501524Y636258D01*
X501491Y636413D01*
X501454Y636567D01*
X501413Y636720D01*
X501368Y636872D01*
X501319Y637022D01*
X501267Y637172D01*
X501211Y637320D01*
X501151Y637467D01*
X501088Y637612D01*
X501021Y637755D01*
X500951Y637897D01*
X500877Y638037D01*
X500799Y638175D01*
X500718Y638311D01*
X500634Y638445D01*
X500547Y638577D01*
X500456Y638707D01*
X500362Y638834D01*
X500265Y638959D01*
X500164Y639082D01*
X500061Y639202D01*
X499955Y639319D01*
X499846Y639434D01*
X499734Y639546D01*
X499619Y639655D01*
X499502Y639761D01*
X499382Y639864D01*
X499259Y639965D01*
X499134Y640062D01*
X499007Y640156D01*
X498877Y640247D01*
X498745Y640334D01*
X498611Y640418D01*
X498475Y640499D01*
X498337Y640577D01*
X498197Y640651D01*
X498055Y640721D01*
X497912Y640788D01*
X497767Y640851D01*
X497620Y640911D01*
X497472Y640967D01*
X497322Y641019D01*
X497172Y641068D01*
X497020Y641113D01*
X496867Y641154D01*
X496713Y641191D01*
X496558Y641224D01*
X496403Y641254D01*
X496246Y641279D01*
X496090Y641301D01*
X495932Y641318D01*
X495775Y641332D01*
X495617Y641342D01*
X495458Y641348D01*
X495300Y641350D01*
X196850Y641350D01*
D19*
X196850Y641350D03*
X196850Y552450D03*
D20*
X196848Y552292D01*
X196842Y552133D01*
X196832Y551975D01*
X196818Y551818D01*
X196801Y551660D01*
X196779Y551504D01*
X196754Y551347D01*
X196724Y551192D01*
X196691Y551037D01*
X196654Y550883D01*
X196613Y550730D01*
X196568Y550578D01*
X196519Y550428D01*
X196467Y550278D01*
X196411Y550130D01*
X196351Y549983D01*
X196288Y549838D01*
X196221Y549695D01*
X196151Y549553D01*
X196077Y549413D01*
X195999Y549275D01*
X195918Y549139D01*
X195834Y549005D01*
X195747Y548873D01*
X195656Y548743D01*
X195562Y548616D01*
X195465Y548491D01*
X195364Y548368D01*
X195261Y548248D01*
X195155Y548131D01*
X195046Y548016D01*
X194934Y547904D01*
X194819Y547795D01*
X194702Y547689D01*
X194582Y547586D01*
X194459Y547485D01*
X194334Y547388D01*
X194207Y547294D01*
X194077Y547203D01*
X193945Y547116D01*
X193811Y547032D01*
X193675Y546951D01*
X193537Y546873D01*
X193397Y546799D01*
X193255Y546729D01*
X193112Y546662D01*
X192967Y546599D01*
X192820Y546539D01*
X192672Y546483D01*
X192522Y546431D01*
X192372Y546382D01*
X192220Y546337D01*
X192067Y546296D01*
X191913Y546259D01*
X191758Y546226D01*
X191603Y546196D01*
X191446Y546171D01*
X191290Y546149D01*
X191132Y546132D01*
X190975Y546118D01*
X190817Y546108D01*
X190658Y546102D01*
X190500Y546100D01*
X25400Y546100D01*
D19*
X508000Y609600D03*
D20*
X749300Y609600D01*
D19*
X749300Y609600D03*
X749300Y749300D03*
D20*
X869950Y749300D01*
X870108Y749302D01*
X870267Y749308D01*
X870425Y749318D01*
X870582Y749332D01*
X870740Y749349D01*
X870896Y749371D01*
X871053Y749396D01*
X871208Y749426D01*
X871363Y749459D01*
X871517Y749496D01*
X871670Y749537D01*
X871822Y749582D01*
X871972Y749631D01*
X872122Y749683D01*
X872270Y749739D01*
X872417Y749799D01*
X872562Y749862D01*
X872705Y749929D01*
X872847Y749999D01*
X872987Y750073D01*
X873125Y750151D01*
X873261Y750232D01*
X873395Y750316D01*
X873527Y750403D01*
X873657Y750494D01*
X873784Y750588D01*
X873909Y750685D01*
X874032Y750786D01*
X874152Y750889D01*
X874269Y750995D01*
X874384Y751104D01*
X874496Y751216D01*
X874605Y751331D01*
X874711Y751448D01*
X874814Y751568D01*
X874915Y751691D01*
X875012Y751816D01*
X875106Y751943D01*
X875197Y752073D01*
X875284Y752205D01*
X875368Y752339D01*
X875449Y752475D01*
X875527Y752613D01*
X875601Y752753D01*
X875671Y752895D01*
X875738Y753038D01*
X875801Y753183D01*
X875861Y753330D01*
X875917Y753478D01*
X875969Y753628D01*
X876018Y753778D01*
X876063Y753930D01*
X876104Y754083D01*
X876141Y754237D01*
X876174Y754392D01*
X876204Y754547D01*
X876229Y754704D01*
X876251Y754860D01*
X876268Y755018D01*
X876282Y755175D01*
X876292Y755333D01*
X876298Y755492D01*
X876300Y755650D01*
X901700Y755650D01*
D19*
X901700Y755650D03*
X514350Y812800D03*
X927100Y908050D03*
D20*
X774700Y812800D02*
X514350Y812800D01*
D19*
X774700Y812800D03*
X774700Y844550D03*
D20*
X927100Y844550D01*
D19*
X927100Y844550D03*
X946150Y749300D03*
D20*
X895350Y749300D01*
X895192Y749298D01*
X895033Y749292D01*
X894875Y749282D01*
X894718Y749268D01*
X894560Y749251D01*
X894404Y749229D01*
X894247Y749204D01*
X894092Y749174D01*
X893937Y749141D01*
X893783Y749104D01*
X893630Y749063D01*
X893478Y749018D01*
X893328Y748969D01*
X893178Y748917D01*
X893030Y748861D01*
X892883Y748801D01*
X892738Y748738D01*
X892595Y748671D01*
X892453Y748601D01*
X892313Y748527D01*
X892175Y748449D01*
X892039Y748368D01*
X891905Y748284D01*
X891773Y748197D01*
X891643Y748106D01*
X891516Y748012D01*
X891391Y747915D01*
X891268Y747814D01*
X891148Y747711D01*
X891031Y747605D01*
X890916Y747496D01*
X890804Y747384D01*
X890695Y747269D01*
X890589Y747152D01*
X890486Y747032D01*
X890385Y746909D01*
X890288Y746784D01*
X890194Y746657D01*
X890103Y746527D01*
X890016Y746395D01*
X889932Y746261D01*
X889851Y746125D01*
X889773Y745987D01*
X889699Y745847D01*
X889629Y745705D01*
X889562Y745562D01*
X889499Y745417D01*
X889439Y745270D01*
X889383Y745122D01*
X889331Y744972D01*
X889282Y744822D01*
X889237Y744670D01*
X889196Y744517D01*
X889159Y744363D01*
X889126Y744208D01*
X889096Y744053D01*
X889071Y743896D01*
X889049Y743740D01*
X889032Y743582D01*
X889018Y743425D01*
X889008Y743267D01*
X889002Y743108D01*
X889000Y742950D01*
D19*
X889000Y742950D03*
X889000Y666750D03*
D20*
X666750Y666750D01*
D19*
X666750Y666750D03*
X666750Y590550D03*
D20*
X546100Y590550D01*
D19*
X546100Y590550D03*
X558800Y698500D03*
D20*
X927100Y698500D01*
D19*
X927100Y698500D03*
X927100Y781050D03*
D20*
X984250Y781050D01*
D19*
X984250Y781050D03*
X88900Y622300D03*
D20*
X533400Y622300D01*
D19*
X533400Y622300D03*
X583342Y520982D03*
D20*
X583342Y502508D01*
X583344Y502452D01*
X583349Y502396D01*
X583358Y502341D01*
X583371Y502286D01*
X583388Y502232D01*
X583407Y502180D01*
X583430Y502129D01*
X583457Y502079D01*
X583487Y502031D01*
X583519Y501986D01*
X583555Y501942D01*
X583593Y501901D01*
X583634Y501863D01*
X583678Y501827D01*
X583723Y501795D01*
X583771Y501765D01*
X583821Y501738D01*
X583872Y501715D01*
X583924Y501696D01*
X583978Y501679D01*
X584033Y501666D01*
X584088Y501657D01*
X584144Y501652D01*
X584200Y501650D01*
X603250Y501650D01*
D19*
X603250Y501650D03*
X603250Y647700D03*
D20*
X158750Y647700D01*
D19*
X158750Y647700D03*
X158750Y927100D03*
D20*
X101800Y927100D01*
D19*
X615950Y514350D03*
X615950Y692150D03*
D20*
X76200Y692150D01*
D19*
X76200Y692150D03*
X590550Y515338D03*
D20*
X614962Y515338D01*
X615024Y515336D01*
X615086Y515330D01*
X615147Y515320D01*
X615208Y515307D01*
X615267Y515290D01*
X615326Y515269D01*
X615383Y515244D01*
X615438Y515216D01*
X615491Y515184D01*
X615543Y515149D01*
X615592Y515111D01*
X615638Y515070D01*
X615682Y515026D01*
X615723Y514980D01*
X615761Y514931D01*
X615796Y514879D01*
X615828Y514826D01*
X615856Y514771D01*
X615881Y514714D01*
X615902Y514655D01*
X615919Y514596D01*
X615932Y514535D01*
X615942Y514474D01*
X615948Y514412D01*
X615950Y514350D01*
X533700Y406700D02*
X710900Y406700D01*
X710934Y406698D01*
X710967Y406692D01*
X710999Y406683D01*
X711030Y406670D01*
X711060Y406654D01*
X711087Y406635D01*
X711112Y406612D01*
X711135Y406587D01*
X711154Y406560D01*
X711170Y406530D01*
X711183Y406499D01*
X711192Y406467D01*
X711198Y406434D01*
X711200Y406400D01*
D19*
X711200Y406400D03*
X533700Y406700D03*
X463474Y501574D03*
D20*
X400126Y501574D01*
X400111Y501575D01*
X400097Y501580D01*
X400084Y501587D01*
X400072Y501596D01*
X400063Y501608D01*
X400056Y501621D01*
X400051Y501635D01*
X400050Y501650D01*
D19*
X400050Y501650D03*
X400050Y279400D03*
D20*
X660400Y279400D01*
D19*
X660400Y279400D03*
X450850Y514350D03*
D20*
X260350Y514350D01*
D19*
X260350Y514350D03*
D20*
X260350Y469900D02*
X25400Y469900D01*
D19*
X260350Y469900D03*
X469900Y520700D03*
D20*
X323850Y495300D02*
X25400Y495300D01*
D19*
X323850Y495300D03*
X323850Y520700D03*
D20*
X469900Y520700D01*
X419100Y444500D02*
X25400Y444500D01*
D19*
X419100Y444500D03*
X419100Y508000D03*
X469900Y508000D03*
D20*
X419100Y508000D01*
D19*
X450850Y527050D03*
D20*
X273050Y520700D02*
X25400Y520700D01*
D19*
X273050Y520700D03*
X273050Y482600D03*
D20*
X342900Y482600D01*
D19*
X342900Y482600D03*
X342900Y527050D03*
D20*
X450850Y527050D01*
D19*
X596900Y565150D03*
D20*
X800100Y565150D01*
D19*
X800100Y565150D03*
X800100Y635000D03*
D20*
X939800Y635000D01*
D19*
X939800Y635000D03*
X939800Y711200D03*
D20*
X965200Y711200D01*
M02*
