G04 EAGLE Gerber RS-274X export*
G75*
%MOMM*%
%FSLAX34Y34*%
%LPD*%
%INSilkscreen Top*%
%IPPOS*%
%AMOC8*
5,1,8,0,0,1.08239X$1,22.5*%
G01*
%ADD10C,0.152400*%
%ADD11C,0.254000*%
%ADD12C,0.127000*%
%ADD13R,0.508000X2.540000*%
%ADD14C,0.101600*%
%ADD15R,0.863600X0.609600*%
%ADD16R,0.609600X0.863600*%
%ADD17C,0.203200*%
%ADD18C,0.406400*%


D10*
X427990Y533400D02*
X384810Y533400D01*
X384810Y558800D02*
X427990Y558800D01*
X382270Y556260D02*
X382270Y535940D01*
X430530Y535940D02*
X430530Y556260D01*
X384810Y533400D02*
X384710Y533402D01*
X384611Y533408D01*
X384511Y533418D01*
X384413Y533431D01*
X384314Y533449D01*
X384217Y533470D01*
X384121Y533495D01*
X384025Y533524D01*
X383931Y533557D01*
X383838Y533593D01*
X383747Y533633D01*
X383657Y533677D01*
X383569Y533724D01*
X383483Y533774D01*
X383399Y533828D01*
X383317Y533885D01*
X383238Y533945D01*
X383160Y534009D01*
X383086Y534075D01*
X383014Y534144D01*
X382945Y534216D01*
X382879Y534290D01*
X382815Y534368D01*
X382755Y534447D01*
X382698Y534529D01*
X382644Y534613D01*
X382594Y534699D01*
X382547Y534787D01*
X382503Y534877D01*
X382463Y534968D01*
X382427Y535061D01*
X382394Y535155D01*
X382365Y535251D01*
X382340Y535347D01*
X382319Y535444D01*
X382301Y535543D01*
X382288Y535641D01*
X382278Y535741D01*
X382272Y535840D01*
X382270Y535940D01*
X427990Y533400D02*
X428090Y533402D01*
X428189Y533408D01*
X428289Y533418D01*
X428387Y533431D01*
X428486Y533449D01*
X428583Y533470D01*
X428679Y533495D01*
X428775Y533524D01*
X428869Y533557D01*
X428962Y533593D01*
X429053Y533633D01*
X429143Y533677D01*
X429231Y533724D01*
X429317Y533774D01*
X429401Y533828D01*
X429483Y533885D01*
X429562Y533945D01*
X429640Y534009D01*
X429714Y534075D01*
X429786Y534144D01*
X429855Y534216D01*
X429921Y534290D01*
X429985Y534368D01*
X430045Y534447D01*
X430102Y534529D01*
X430156Y534613D01*
X430206Y534699D01*
X430253Y534787D01*
X430297Y534877D01*
X430337Y534968D01*
X430373Y535061D01*
X430406Y535155D01*
X430435Y535251D01*
X430460Y535347D01*
X430481Y535444D01*
X430499Y535543D01*
X430512Y535641D01*
X430522Y535741D01*
X430528Y535840D01*
X430530Y535940D01*
X384810Y558800D02*
X384710Y558798D01*
X384611Y558792D01*
X384511Y558782D01*
X384413Y558769D01*
X384314Y558751D01*
X384217Y558730D01*
X384121Y558705D01*
X384025Y558676D01*
X383931Y558643D01*
X383838Y558607D01*
X383747Y558567D01*
X383657Y558523D01*
X383569Y558476D01*
X383483Y558426D01*
X383399Y558372D01*
X383317Y558315D01*
X383238Y558255D01*
X383160Y558191D01*
X383086Y558125D01*
X383014Y558056D01*
X382945Y557984D01*
X382879Y557910D01*
X382815Y557832D01*
X382755Y557753D01*
X382698Y557671D01*
X382644Y557587D01*
X382594Y557501D01*
X382547Y557413D01*
X382503Y557323D01*
X382463Y557232D01*
X382427Y557139D01*
X382394Y557045D01*
X382365Y556949D01*
X382340Y556853D01*
X382319Y556756D01*
X382301Y556657D01*
X382288Y556559D01*
X382278Y556459D01*
X382272Y556360D01*
X382270Y556260D01*
X427990Y558800D02*
X428090Y558798D01*
X428189Y558792D01*
X428289Y558782D01*
X428387Y558769D01*
X428486Y558751D01*
X428583Y558730D01*
X428679Y558705D01*
X428775Y558676D01*
X428869Y558643D01*
X428962Y558607D01*
X429053Y558567D01*
X429143Y558523D01*
X429231Y558476D01*
X429317Y558426D01*
X429401Y558372D01*
X429483Y558315D01*
X429562Y558255D01*
X429640Y558191D01*
X429714Y558125D01*
X429786Y558056D01*
X429855Y557984D01*
X429921Y557910D01*
X429985Y557832D01*
X430045Y557753D01*
X430102Y557671D01*
X430156Y557587D01*
X430206Y557501D01*
X430253Y557413D01*
X430297Y557323D01*
X430337Y557232D01*
X430373Y557139D01*
X430406Y557045D01*
X430435Y556949D01*
X430460Y556853D01*
X430481Y556756D01*
X430499Y556657D01*
X430512Y556559D01*
X430522Y556459D01*
X430528Y556360D01*
X430530Y556260D01*
X403860Y546100D02*
X402590Y546100D01*
D11*
X403860Y546100D02*
X403860Y538480D01*
X403860Y546100D02*
X403860Y553720D01*
X408940Y546100D02*
X408940Y538480D01*
X408940Y546100D02*
X408940Y553720D01*
D10*
X408940Y546100D02*
X410210Y546100D01*
D12*
X415253Y518795D02*
X417793Y518795D01*
X415253Y518795D02*
X415153Y518797D01*
X415054Y518803D01*
X414954Y518813D01*
X414856Y518826D01*
X414757Y518844D01*
X414660Y518865D01*
X414564Y518890D01*
X414468Y518919D01*
X414374Y518952D01*
X414281Y518988D01*
X414190Y519028D01*
X414100Y519072D01*
X414012Y519119D01*
X413926Y519169D01*
X413842Y519223D01*
X413760Y519280D01*
X413681Y519340D01*
X413603Y519404D01*
X413529Y519470D01*
X413457Y519539D01*
X413388Y519611D01*
X413322Y519685D01*
X413258Y519763D01*
X413198Y519842D01*
X413141Y519924D01*
X413087Y520008D01*
X413037Y520094D01*
X412990Y520182D01*
X412946Y520272D01*
X412906Y520363D01*
X412870Y520456D01*
X412837Y520550D01*
X412808Y520646D01*
X412783Y520742D01*
X412762Y520839D01*
X412744Y520938D01*
X412731Y521036D01*
X412721Y521136D01*
X412715Y521235D01*
X412713Y521335D01*
X412713Y527685D01*
X412715Y527785D01*
X412721Y527884D01*
X412731Y527984D01*
X412744Y528082D01*
X412762Y528181D01*
X412783Y528278D01*
X412808Y528374D01*
X412837Y528470D01*
X412870Y528564D01*
X412906Y528657D01*
X412946Y528748D01*
X412990Y528838D01*
X413037Y528926D01*
X413087Y529012D01*
X413141Y529096D01*
X413198Y529178D01*
X413258Y529257D01*
X413322Y529335D01*
X413388Y529409D01*
X413457Y529481D01*
X413529Y529550D01*
X413603Y529616D01*
X413681Y529680D01*
X413760Y529740D01*
X413842Y529797D01*
X413926Y529851D01*
X414012Y529901D01*
X414100Y529948D01*
X414190Y529992D01*
X414281Y530032D01*
X414374Y530068D01*
X414468Y530101D01*
X414564Y530130D01*
X414660Y530155D01*
X414757Y530176D01*
X414856Y530194D01*
X414954Y530207D01*
X415054Y530217D01*
X415153Y530223D01*
X415253Y530225D01*
X417793Y530225D01*
X422275Y527685D02*
X425450Y530225D01*
X425450Y518795D01*
X422275Y518795D02*
X428625Y518795D01*
D10*
X461010Y431800D02*
X504190Y431800D01*
X504190Y457200D02*
X461010Y457200D01*
X458470Y454660D02*
X458470Y434340D01*
X506730Y434340D02*
X506730Y454660D01*
X461010Y431800D02*
X460910Y431802D01*
X460811Y431808D01*
X460711Y431818D01*
X460613Y431831D01*
X460514Y431849D01*
X460417Y431870D01*
X460321Y431895D01*
X460225Y431924D01*
X460131Y431957D01*
X460038Y431993D01*
X459947Y432033D01*
X459857Y432077D01*
X459769Y432124D01*
X459683Y432174D01*
X459599Y432228D01*
X459517Y432285D01*
X459438Y432345D01*
X459360Y432409D01*
X459286Y432475D01*
X459214Y432544D01*
X459145Y432616D01*
X459079Y432690D01*
X459015Y432768D01*
X458955Y432847D01*
X458898Y432929D01*
X458844Y433013D01*
X458794Y433099D01*
X458747Y433187D01*
X458703Y433277D01*
X458663Y433368D01*
X458627Y433461D01*
X458594Y433555D01*
X458565Y433651D01*
X458540Y433747D01*
X458519Y433844D01*
X458501Y433943D01*
X458488Y434041D01*
X458478Y434141D01*
X458472Y434240D01*
X458470Y434340D01*
X504190Y431800D02*
X504290Y431802D01*
X504389Y431808D01*
X504489Y431818D01*
X504587Y431831D01*
X504686Y431849D01*
X504783Y431870D01*
X504879Y431895D01*
X504975Y431924D01*
X505069Y431957D01*
X505162Y431993D01*
X505253Y432033D01*
X505343Y432077D01*
X505431Y432124D01*
X505517Y432174D01*
X505601Y432228D01*
X505683Y432285D01*
X505762Y432345D01*
X505840Y432409D01*
X505914Y432475D01*
X505986Y432544D01*
X506055Y432616D01*
X506121Y432690D01*
X506185Y432768D01*
X506245Y432847D01*
X506302Y432929D01*
X506356Y433013D01*
X506406Y433099D01*
X506453Y433187D01*
X506497Y433277D01*
X506537Y433368D01*
X506573Y433461D01*
X506606Y433555D01*
X506635Y433651D01*
X506660Y433747D01*
X506681Y433844D01*
X506699Y433943D01*
X506712Y434041D01*
X506722Y434141D01*
X506728Y434240D01*
X506730Y434340D01*
X461010Y457200D02*
X460910Y457198D01*
X460811Y457192D01*
X460711Y457182D01*
X460613Y457169D01*
X460514Y457151D01*
X460417Y457130D01*
X460321Y457105D01*
X460225Y457076D01*
X460131Y457043D01*
X460038Y457007D01*
X459947Y456967D01*
X459857Y456923D01*
X459769Y456876D01*
X459683Y456826D01*
X459599Y456772D01*
X459517Y456715D01*
X459438Y456655D01*
X459360Y456591D01*
X459286Y456525D01*
X459214Y456456D01*
X459145Y456384D01*
X459079Y456310D01*
X459015Y456232D01*
X458955Y456153D01*
X458898Y456071D01*
X458844Y455987D01*
X458794Y455901D01*
X458747Y455813D01*
X458703Y455723D01*
X458663Y455632D01*
X458627Y455539D01*
X458594Y455445D01*
X458565Y455349D01*
X458540Y455253D01*
X458519Y455156D01*
X458501Y455057D01*
X458488Y454959D01*
X458478Y454859D01*
X458472Y454760D01*
X458470Y454660D01*
X504190Y457200D02*
X504290Y457198D01*
X504389Y457192D01*
X504489Y457182D01*
X504587Y457169D01*
X504686Y457151D01*
X504783Y457130D01*
X504879Y457105D01*
X504975Y457076D01*
X505069Y457043D01*
X505162Y457007D01*
X505253Y456967D01*
X505343Y456923D01*
X505431Y456876D01*
X505517Y456826D01*
X505601Y456772D01*
X505683Y456715D01*
X505762Y456655D01*
X505840Y456591D01*
X505914Y456525D01*
X505986Y456456D01*
X506055Y456384D01*
X506121Y456310D01*
X506185Y456232D01*
X506245Y456153D01*
X506302Y456071D01*
X506356Y455987D01*
X506406Y455901D01*
X506453Y455813D01*
X506497Y455723D01*
X506537Y455632D01*
X506573Y455539D01*
X506606Y455445D01*
X506635Y455349D01*
X506660Y455253D01*
X506681Y455156D01*
X506699Y455057D01*
X506712Y454959D01*
X506722Y454859D01*
X506728Y454760D01*
X506730Y454660D01*
X480060Y444500D02*
X478790Y444500D01*
D11*
X480060Y444500D02*
X480060Y436880D01*
X480060Y444500D02*
X480060Y452120D01*
X485140Y444500D02*
X485140Y436880D01*
X485140Y444500D02*
X485140Y452120D01*
D10*
X485140Y444500D02*
X486410Y444500D01*
D12*
X491453Y417195D02*
X493993Y417195D01*
X491453Y417195D02*
X491353Y417197D01*
X491254Y417203D01*
X491154Y417213D01*
X491056Y417226D01*
X490957Y417244D01*
X490860Y417265D01*
X490764Y417290D01*
X490668Y417319D01*
X490574Y417352D01*
X490481Y417388D01*
X490390Y417428D01*
X490300Y417472D01*
X490212Y417519D01*
X490126Y417569D01*
X490042Y417623D01*
X489960Y417680D01*
X489881Y417740D01*
X489803Y417804D01*
X489729Y417870D01*
X489657Y417939D01*
X489588Y418011D01*
X489522Y418085D01*
X489458Y418163D01*
X489398Y418242D01*
X489341Y418324D01*
X489287Y418408D01*
X489237Y418494D01*
X489190Y418582D01*
X489146Y418672D01*
X489106Y418763D01*
X489070Y418856D01*
X489037Y418950D01*
X489008Y419046D01*
X488983Y419142D01*
X488962Y419239D01*
X488944Y419338D01*
X488931Y419436D01*
X488921Y419536D01*
X488915Y419635D01*
X488913Y419735D01*
X488913Y426085D01*
X488915Y426185D01*
X488921Y426284D01*
X488931Y426384D01*
X488944Y426482D01*
X488962Y426581D01*
X488983Y426678D01*
X489008Y426774D01*
X489037Y426870D01*
X489070Y426964D01*
X489106Y427057D01*
X489146Y427148D01*
X489190Y427238D01*
X489237Y427326D01*
X489287Y427412D01*
X489341Y427496D01*
X489398Y427578D01*
X489458Y427657D01*
X489522Y427735D01*
X489588Y427809D01*
X489657Y427881D01*
X489729Y427950D01*
X489803Y428016D01*
X489881Y428080D01*
X489960Y428140D01*
X490042Y428197D01*
X490126Y428251D01*
X490212Y428301D01*
X490300Y428348D01*
X490390Y428392D01*
X490481Y428432D01*
X490574Y428468D01*
X490668Y428501D01*
X490764Y428530D01*
X490860Y428555D01*
X490957Y428576D01*
X491056Y428594D01*
X491154Y428607D01*
X491254Y428617D01*
X491353Y428623D01*
X491453Y428625D01*
X493993Y428625D01*
X501968Y428626D02*
X502072Y428624D01*
X502177Y428618D01*
X502281Y428609D01*
X502384Y428596D01*
X502487Y428578D01*
X502589Y428558D01*
X502691Y428533D01*
X502791Y428505D01*
X502891Y428473D01*
X502989Y428437D01*
X503086Y428398D01*
X503181Y428356D01*
X503275Y428310D01*
X503367Y428260D01*
X503457Y428208D01*
X503545Y428152D01*
X503631Y428092D01*
X503715Y428030D01*
X503796Y427965D01*
X503875Y427897D01*
X503952Y427825D01*
X504025Y427752D01*
X504097Y427675D01*
X504165Y427596D01*
X504230Y427515D01*
X504292Y427431D01*
X504352Y427345D01*
X504408Y427257D01*
X504460Y427167D01*
X504510Y427075D01*
X504556Y426981D01*
X504598Y426886D01*
X504637Y426789D01*
X504673Y426691D01*
X504705Y426591D01*
X504733Y426491D01*
X504758Y426389D01*
X504778Y426287D01*
X504796Y426184D01*
X504809Y426081D01*
X504818Y425977D01*
X504824Y425872D01*
X504826Y425768D01*
X501968Y428625D02*
X501850Y428623D01*
X501731Y428617D01*
X501613Y428608D01*
X501496Y428595D01*
X501379Y428577D01*
X501262Y428557D01*
X501146Y428532D01*
X501031Y428504D01*
X500918Y428471D01*
X500805Y428436D01*
X500693Y428396D01*
X500583Y428354D01*
X500474Y428307D01*
X500366Y428257D01*
X500261Y428204D01*
X500157Y428147D01*
X500055Y428087D01*
X499955Y428024D01*
X499857Y427957D01*
X499761Y427888D01*
X499668Y427815D01*
X499577Y427739D01*
X499488Y427661D01*
X499402Y427579D01*
X499319Y427495D01*
X499238Y427409D01*
X499161Y427319D01*
X499086Y427228D01*
X499014Y427134D01*
X498945Y427037D01*
X498880Y426939D01*
X498817Y426838D01*
X498758Y426735D01*
X498702Y426631D01*
X498650Y426525D01*
X498601Y426417D01*
X498556Y426308D01*
X498514Y426197D01*
X498476Y426085D01*
X503873Y423546D02*
X503949Y423621D01*
X504024Y423700D01*
X504095Y423781D01*
X504164Y423865D01*
X504229Y423951D01*
X504291Y424039D01*
X504351Y424129D01*
X504407Y424221D01*
X504460Y424316D01*
X504509Y424412D01*
X504555Y424510D01*
X504598Y424609D01*
X504637Y424710D01*
X504672Y424812D01*
X504704Y424915D01*
X504732Y425019D01*
X504757Y425124D01*
X504778Y425231D01*
X504795Y425337D01*
X504808Y425444D01*
X504817Y425552D01*
X504823Y425660D01*
X504825Y425768D01*
X503873Y423545D02*
X498475Y417195D01*
X504825Y417195D01*
D10*
X816610Y787400D02*
X859790Y787400D01*
X859790Y812800D02*
X816610Y812800D01*
X814070Y810260D02*
X814070Y789940D01*
X862330Y789940D02*
X862330Y810260D01*
X816610Y787400D02*
X816510Y787402D01*
X816411Y787408D01*
X816311Y787418D01*
X816213Y787431D01*
X816114Y787449D01*
X816017Y787470D01*
X815921Y787495D01*
X815825Y787524D01*
X815731Y787557D01*
X815638Y787593D01*
X815547Y787633D01*
X815457Y787677D01*
X815369Y787724D01*
X815283Y787774D01*
X815199Y787828D01*
X815117Y787885D01*
X815038Y787945D01*
X814960Y788009D01*
X814886Y788075D01*
X814814Y788144D01*
X814745Y788216D01*
X814679Y788290D01*
X814615Y788368D01*
X814555Y788447D01*
X814498Y788529D01*
X814444Y788613D01*
X814394Y788699D01*
X814347Y788787D01*
X814303Y788877D01*
X814263Y788968D01*
X814227Y789061D01*
X814194Y789155D01*
X814165Y789251D01*
X814140Y789347D01*
X814119Y789444D01*
X814101Y789543D01*
X814088Y789641D01*
X814078Y789741D01*
X814072Y789840D01*
X814070Y789940D01*
X859790Y787400D02*
X859890Y787402D01*
X859989Y787408D01*
X860089Y787418D01*
X860187Y787431D01*
X860286Y787449D01*
X860383Y787470D01*
X860479Y787495D01*
X860575Y787524D01*
X860669Y787557D01*
X860762Y787593D01*
X860853Y787633D01*
X860943Y787677D01*
X861031Y787724D01*
X861117Y787774D01*
X861201Y787828D01*
X861283Y787885D01*
X861362Y787945D01*
X861440Y788009D01*
X861514Y788075D01*
X861586Y788144D01*
X861655Y788216D01*
X861721Y788290D01*
X861785Y788368D01*
X861845Y788447D01*
X861902Y788529D01*
X861956Y788613D01*
X862006Y788699D01*
X862053Y788787D01*
X862097Y788877D01*
X862137Y788968D01*
X862173Y789061D01*
X862206Y789155D01*
X862235Y789251D01*
X862260Y789347D01*
X862281Y789444D01*
X862299Y789543D01*
X862312Y789641D01*
X862322Y789741D01*
X862328Y789840D01*
X862330Y789940D01*
X816610Y812800D02*
X816510Y812798D01*
X816411Y812792D01*
X816311Y812782D01*
X816213Y812769D01*
X816114Y812751D01*
X816017Y812730D01*
X815921Y812705D01*
X815825Y812676D01*
X815731Y812643D01*
X815638Y812607D01*
X815547Y812567D01*
X815457Y812523D01*
X815369Y812476D01*
X815283Y812426D01*
X815199Y812372D01*
X815117Y812315D01*
X815038Y812255D01*
X814960Y812191D01*
X814886Y812125D01*
X814814Y812056D01*
X814745Y811984D01*
X814679Y811910D01*
X814615Y811832D01*
X814555Y811753D01*
X814498Y811671D01*
X814444Y811587D01*
X814394Y811501D01*
X814347Y811413D01*
X814303Y811323D01*
X814263Y811232D01*
X814227Y811139D01*
X814194Y811045D01*
X814165Y810949D01*
X814140Y810853D01*
X814119Y810756D01*
X814101Y810657D01*
X814088Y810559D01*
X814078Y810459D01*
X814072Y810360D01*
X814070Y810260D01*
X859790Y812800D02*
X859890Y812798D01*
X859989Y812792D01*
X860089Y812782D01*
X860187Y812769D01*
X860286Y812751D01*
X860383Y812730D01*
X860479Y812705D01*
X860575Y812676D01*
X860669Y812643D01*
X860762Y812607D01*
X860853Y812567D01*
X860943Y812523D01*
X861031Y812476D01*
X861117Y812426D01*
X861201Y812372D01*
X861283Y812315D01*
X861362Y812255D01*
X861440Y812191D01*
X861514Y812125D01*
X861586Y812056D01*
X861655Y811984D01*
X861721Y811910D01*
X861785Y811832D01*
X861845Y811753D01*
X861902Y811671D01*
X861956Y811587D01*
X862006Y811501D01*
X862053Y811413D01*
X862097Y811323D01*
X862137Y811232D01*
X862173Y811139D01*
X862206Y811045D01*
X862235Y810949D01*
X862260Y810853D01*
X862281Y810756D01*
X862299Y810657D01*
X862312Y810559D01*
X862322Y810459D01*
X862328Y810360D01*
X862330Y810260D01*
X835660Y800100D02*
X834390Y800100D01*
D11*
X835660Y800100D02*
X835660Y792480D01*
X835660Y800100D02*
X835660Y807720D01*
X840740Y800100D02*
X840740Y792480D01*
X840740Y800100D02*
X840740Y807720D01*
D10*
X840740Y800100D02*
X842010Y800100D01*
D12*
X847053Y772795D02*
X849593Y772795D01*
X847053Y772795D02*
X846953Y772797D01*
X846854Y772803D01*
X846754Y772813D01*
X846656Y772826D01*
X846557Y772844D01*
X846460Y772865D01*
X846364Y772890D01*
X846268Y772919D01*
X846174Y772952D01*
X846081Y772988D01*
X845990Y773028D01*
X845900Y773072D01*
X845812Y773119D01*
X845726Y773169D01*
X845642Y773223D01*
X845560Y773280D01*
X845481Y773340D01*
X845403Y773404D01*
X845329Y773470D01*
X845257Y773539D01*
X845188Y773611D01*
X845122Y773685D01*
X845058Y773763D01*
X844998Y773842D01*
X844941Y773924D01*
X844887Y774008D01*
X844837Y774094D01*
X844790Y774182D01*
X844746Y774272D01*
X844706Y774363D01*
X844670Y774456D01*
X844637Y774550D01*
X844608Y774646D01*
X844583Y774742D01*
X844562Y774839D01*
X844544Y774938D01*
X844531Y775036D01*
X844521Y775136D01*
X844515Y775235D01*
X844513Y775335D01*
X844513Y781685D01*
X844515Y781785D01*
X844521Y781884D01*
X844531Y781984D01*
X844544Y782082D01*
X844562Y782181D01*
X844583Y782278D01*
X844608Y782374D01*
X844637Y782470D01*
X844670Y782564D01*
X844706Y782657D01*
X844746Y782748D01*
X844790Y782838D01*
X844837Y782926D01*
X844887Y783012D01*
X844941Y783096D01*
X844998Y783178D01*
X845058Y783257D01*
X845122Y783335D01*
X845188Y783409D01*
X845257Y783481D01*
X845329Y783550D01*
X845403Y783616D01*
X845481Y783680D01*
X845560Y783740D01*
X845642Y783797D01*
X845726Y783851D01*
X845812Y783901D01*
X845900Y783948D01*
X845990Y783992D01*
X846081Y784032D01*
X846174Y784068D01*
X846268Y784101D01*
X846364Y784130D01*
X846460Y784155D01*
X846557Y784176D01*
X846656Y784194D01*
X846754Y784207D01*
X846854Y784217D01*
X846953Y784223D01*
X847053Y784225D01*
X849593Y784225D01*
X854075Y772795D02*
X857250Y772795D01*
X857361Y772797D01*
X857471Y772803D01*
X857582Y772812D01*
X857692Y772826D01*
X857801Y772843D01*
X857910Y772864D01*
X858018Y772889D01*
X858125Y772918D01*
X858231Y772950D01*
X858336Y772986D01*
X858439Y773026D01*
X858541Y773069D01*
X858642Y773116D01*
X858741Y773167D01*
X858838Y773220D01*
X858932Y773277D01*
X859025Y773338D01*
X859116Y773401D01*
X859205Y773468D01*
X859291Y773538D01*
X859374Y773611D01*
X859456Y773686D01*
X859534Y773764D01*
X859609Y773846D01*
X859682Y773929D01*
X859752Y774015D01*
X859819Y774104D01*
X859882Y774195D01*
X859943Y774288D01*
X860000Y774383D01*
X860053Y774479D01*
X860104Y774578D01*
X860151Y774679D01*
X860194Y774781D01*
X860234Y774884D01*
X860270Y774989D01*
X860302Y775095D01*
X860331Y775202D01*
X860356Y775310D01*
X860377Y775419D01*
X860394Y775528D01*
X860408Y775638D01*
X860417Y775749D01*
X860423Y775859D01*
X860425Y775970D01*
X860423Y776081D01*
X860417Y776191D01*
X860408Y776302D01*
X860394Y776412D01*
X860377Y776521D01*
X860356Y776630D01*
X860331Y776738D01*
X860302Y776845D01*
X860270Y776951D01*
X860234Y777056D01*
X860194Y777159D01*
X860151Y777261D01*
X860104Y777362D01*
X860053Y777461D01*
X860000Y777557D01*
X859943Y777652D01*
X859882Y777745D01*
X859819Y777836D01*
X859752Y777925D01*
X859682Y778011D01*
X859609Y778094D01*
X859534Y778176D01*
X859456Y778254D01*
X859374Y778329D01*
X859291Y778402D01*
X859205Y778472D01*
X859116Y778539D01*
X859025Y778602D01*
X858932Y778663D01*
X858838Y778720D01*
X858741Y778773D01*
X858642Y778824D01*
X858541Y778871D01*
X858439Y778914D01*
X858336Y778954D01*
X858231Y778990D01*
X858125Y779022D01*
X858018Y779051D01*
X857910Y779076D01*
X857801Y779097D01*
X857692Y779114D01*
X857582Y779128D01*
X857471Y779137D01*
X857361Y779143D01*
X857250Y779145D01*
X857885Y784225D02*
X854075Y784225D01*
X857885Y784225D02*
X857985Y784223D01*
X858084Y784217D01*
X858184Y784207D01*
X858282Y784194D01*
X858381Y784176D01*
X858478Y784155D01*
X858574Y784130D01*
X858670Y784101D01*
X858764Y784068D01*
X858857Y784032D01*
X858948Y783992D01*
X859038Y783948D01*
X859126Y783901D01*
X859212Y783851D01*
X859296Y783797D01*
X859378Y783740D01*
X859457Y783680D01*
X859535Y783616D01*
X859609Y783550D01*
X859681Y783481D01*
X859750Y783409D01*
X859816Y783335D01*
X859880Y783257D01*
X859940Y783178D01*
X859997Y783096D01*
X860051Y783012D01*
X860101Y782926D01*
X860148Y782838D01*
X860192Y782748D01*
X860232Y782657D01*
X860268Y782564D01*
X860301Y782470D01*
X860330Y782374D01*
X860355Y782278D01*
X860376Y782181D01*
X860394Y782082D01*
X860407Y781984D01*
X860417Y781884D01*
X860423Y781785D01*
X860425Y781685D01*
X860423Y781585D01*
X860417Y781486D01*
X860407Y781386D01*
X860394Y781288D01*
X860376Y781189D01*
X860355Y781092D01*
X860330Y780996D01*
X860301Y780900D01*
X860268Y780806D01*
X860232Y780713D01*
X860192Y780622D01*
X860148Y780532D01*
X860101Y780444D01*
X860051Y780358D01*
X859997Y780274D01*
X859940Y780192D01*
X859880Y780113D01*
X859816Y780035D01*
X859750Y779961D01*
X859681Y779889D01*
X859609Y779820D01*
X859535Y779754D01*
X859457Y779690D01*
X859378Y779630D01*
X859296Y779573D01*
X859212Y779519D01*
X859126Y779469D01*
X859038Y779422D01*
X858948Y779378D01*
X858857Y779338D01*
X858764Y779302D01*
X858670Y779269D01*
X858574Y779240D01*
X858478Y779215D01*
X858381Y779194D01*
X858282Y779176D01*
X858184Y779163D01*
X858084Y779153D01*
X857985Y779147D01*
X857885Y779145D01*
X855345Y779145D01*
D10*
X529590Y939800D02*
X486410Y939800D01*
X486410Y965200D02*
X529590Y965200D01*
X483870Y962660D02*
X483870Y942340D01*
X532130Y942340D02*
X532130Y962660D01*
X486410Y939800D02*
X486310Y939802D01*
X486211Y939808D01*
X486111Y939818D01*
X486013Y939831D01*
X485914Y939849D01*
X485817Y939870D01*
X485721Y939895D01*
X485625Y939924D01*
X485531Y939957D01*
X485438Y939993D01*
X485347Y940033D01*
X485257Y940077D01*
X485169Y940124D01*
X485083Y940174D01*
X484999Y940228D01*
X484917Y940285D01*
X484838Y940345D01*
X484760Y940409D01*
X484686Y940475D01*
X484614Y940544D01*
X484545Y940616D01*
X484479Y940690D01*
X484415Y940768D01*
X484355Y940847D01*
X484298Y940929D01*
X484244Y941013D01*
X484194Y941099D01*
X484147Y941187D01*
X484103Y941277D01*
X484063Y941368D01*
X484027Y941461D01*
X483994Y941555D01*
X483965Y941651D01*
X483940Y941747D01*
X483919Y941844D01*
X483901Y941943D01*
X483888Y942041D01*
X483878Y942141D01*
X483872Y942240D01*
X483870Y942340D01*
X529590Y939800D02*
X529690Y939802D01*
X529789Y939808D01*
X529889Y939818D01*
X529987Y939831D01*
X530086Y939849D01*
X530183Y939870D01*
X530279Y939895D01*
X530375Y939924D01*
X530469Y939957D01*
X530562Y939993D01*
X530653Y940033D01*
X530743Y940077D01*
X530831Y940124D01*
X530917Y940174D01*
X531001Y940228D01*
X531083Y940285D01*
X531162Y940345D01*
X531240Y940409D01*
X531314Y940475D01*
X531386Y940544D01*
X531455Y940616D01*
X531521Y940690D01*
X531585Y940768D01*
X531645Y940847D01*
X531702Y940929D01*
X531756Y941013D01*
X531806Y941099D01*
X531853Y941187D01*
X531897Y941277D01*
X531937Y941368D01*
X531973Y941461D01*
X532006Y941555D01*
X532035Y941651D01*
X532060Y941747D01*
X532081Y941844D01*
X532099Y941943D01*
X532112Y942041D01*
X532122Y942141D01*
X532128Y942240D01*
X532130Y942340D01*
X486410Y965200D02*
X486310Y965198D01*
X486211Y965192D01*
X486111Y965182D01*
X486013Y965169D01*
X485914Y965151D01*
X485817Y965130D01*
X485721Y965105D01*
X485625Y965076D01*
X485531Y965043D01*
X485438Y965007D01*
X485347Y964967D01*
X485257Y964923D01*
X485169Y964876D01*
X485083Y964826D01*
X484999Y964772D01*
X484917Y964715D01*
X484838Y964655D01*
X484760Y964591D01*
X484686Y964525D01*
X484614Y964456D01*
X484545Y964384D01*
X484479Y964310D01*
X484415Y964232D01*
X484355Y964153D01*
X484298Y964071D01*
X484244Y963987D01*
X484194Y963901D01*
X484147Y963813D01*
X484103Y963723D01*
X484063Y963632D01*
X484027Y963539D01*
X483994Y963445D01*
X483965Y963349D01*
X483940Y963253D01*
X483919Y963156D01*
X483901Y963057D01*
X483888Y962959D01*
X483878Y962859D01*
X483872Y962760D01*
X483870Y962660D01*
X529590Y965200D02*
X529690Y965198D01*
X529789Y965192D01*
X529889Y965182D01*
X529987Y965169D01*
X530086Y965151D01*
X530183Y965130D01*
X530279Y965105D01*
X530375Y965076D01*
X530469Y965043D01*
X530562Y965007D01*
X530653Y964967D01*
X530743Y964923D01*
X530831Y964876D01*
X530917Y964826D01*
X531001Y964772D01*
X531083Y964715D01*
X531162Y964655D01*
X531240Y964591D01*
X531314Y964525D01*
X531386Y964456D01*
X531455Y964384D01*
X531521Y964310D01*
X531585Y964232D01*
X531645Y964153D01*
X531702Y964071D01*
X531756Y963987D01*
X531806Y963901D01*
X531853Y963813D01*
X531897Y963723D01*
X531937Y963632D01*
X531973Y963539D01*
X532006Y963445D01*
X532035Y963349D01*
X532060Y963253D01*
X532081Y963156D01*
X532099Y963057D01*
X532112Y962959D01*
X532122Y962859D01*
X532128Y962760D01*
X532130Y962660D01*
X505460Y952500D02*
X504190Y952500D01*
D11*
X505460Y952500D02*
X505460Y944880D01*
X505460Y952500D02*
X505460Y960120D01*
X510540Y952500D02*
X510540Y944880D01*
X510540Y952500D02*
X510540Y960120D01*
D10*
X510540Y952500D02*
X511810Y952500D01*
D12*
X516853Y925195D02*
X519393Y925195D01*
X516853Y925195D02*
X516753Y925197D01*
X516654Y925203D01*
X516554Y925213D01*
X516456Y925226D01*
X516357Y925244D01*
X516260Y925265D01*
X516164Y925290D01*
X516068Y925319D01*
X515974Y925352D01*
X515881Y925388D01*
X515790Y925428D01*
X515700Y925472D01*
X515612Y925519D01*
X515526Y925569D01*
X515442Y925623D01*
X515360Y925680D01*
X515281Y925740D01*
X515203Y925804D01*
X515129Y925870D01*
X515057Y925939D01*
X514988Y926011D01*
X514922Y926085D01*
X514858Y926163D01*
X514798Y926242D01*
X514741Y926324D01*
X514687Y926408D01*
X514637Y926494D01*
X514590Y926582D01*
X514546Y926672D01*
X514506Y926763D01*
X514470Y926856D01*
X514437Y926950D01*
X514408Y927046D01*
X514383Y927142D01*
X514362Y927239D01*
X514344Y927338D01*
X514331Y927436D01*
X514321Y927536D01*
X514315Y927635D01*
X514313Y927735D01*
X514313Y934085D01*
X514315Y934185D01*
X514321Y934284D01*
X514331Y934384D01*
X514344Y934482D01*
X514362Y934581D01*
X514383Y934678D01*
X514408Y934774D01*
X514437Y934870D01*
X514470Y934964D01*
X514506Y935057D01*
X514546Y935148D01*
X514590Y935238D01*
X514637Y935326D01*
X514687Y935412D01*
X514741Y935496D01*
X514798Y935578D01*
X514858Y935657D01*
X514922Y935735D01*
X514988Y935809D01*
X515057Y935881D01*
X515129Y935950D01*
X515203Y936016D01*
X515281Y936080D01*
X515360Y936140D01*
X515442Y936197D01*
X515526Y936251D01*
X515612Y936301D01*
X515700Y936348D01*
X515790Y936392D01*
X515881Y936432D01*
X515974Y936468D01*
X516068Y936501D01*
X516164Y936530D01*
X516260Y936555D01*
X516357Y936576D01*
X516456Y936594D01*
X516554Y936607D01*
X516654Y936617D01*
X516753Y936623D01*
X516853Y936625D01*
X519393Y936625D01*
X526415Y936625D02*
X523875Y927735D01*
X530225Y927735D01*
X528320Y930275D02*
X528320Y925195D01*
D10*
X339090Y863600D02*
X295910Y863600D01*
X295910Y838200D02*
X339090Y838200D01*
X341630Y840740D02*
X341630Y861060D01*
X293370Y861060D02*
X293370Y840740D01*
X339090Y863600D02*
X339190Y863598D01*
X339289Y863592D01*
X339389Y863582D01*
X339487Y863569D01*
X339586Y863551D01*
X339683Y863530D01*
X339779Y863505D01*
X339875Y863476D01*
X339969Y863443D01*
X340062Y863407D01*
X340153Y863367D01*
X340243Y863323D01*
X340331Y863276D01*
X340417Y863226D01*
X340501Y863172D01*
X340583Y863115D01*
X340662Y863055D01*
X340740Y862991D01*
X340814Y862925D01*
X340886Y862856D01*
X340955Y862784D01*
X341021Y862710D01*
X341085Y862632D01*
X341145Y862553D01*
X341202Y862471D01*
X341256Y862387D01*
X341306Y862301D01*
X341353Y862213D01*
X341397Y862123D01*
X341437Y862032D01*
X341473Y861939D01*
X341506Y861845D01*
X341535Y861749D01*
X341560Y861653D01*
X341581Y861556D01*
X341599Y861457D01*
X341612Y861359D01*
X341622Y861259D01*
X341628Y861160D01*
X341630Y861060D01*
X295910Y863600D02*
X295810Y863598D01*
X295711Y863592D01*
X295611Y863582D01*
X295513Y863569D01*
X295414Y863551D01*
X295317Y863530D01*
X295221Y863505D01*
X295125Y863476D01*
X295031Y863443D01*
X294938Y863407D01*
X294847Y863367D01*
X294757Y863323D01*
X294669Y863276D01*
X294583Y863226D01*
X294499Y863172D01*
X294417Y863115D01*
X294338Y863055D01*
X294260Y862991D01*
X294186Y862925D01*
X294114Y862856D01*
X294045Y862784D01*
X293979Y862710D01*
X293915Y862632D01*
X293855Y862553D01*
X293798Y862471D01*
X293744Y862387D01*
X293694Y862301D01*
X293647Y862213D01*
X293603Y862123D01*
X293563Y862032D01*
X293527Y861939D01*
X293494Y861845D01*
X293465Y861749D01*
X293440Y861653D01*
X293419Y861556D01*
X293401Y861457D01*
X293388Y861359D01*
X293378Y861259D01*
X293372Y861160D01*
X293370Y861060D01*
X339090Y838200D02*
X339190Y838202D01*
X339289Y838208D01*
X339389Y838218D01*
X339487Y838231D01*
X339586Y838249D01*
X339683Y838270D01*
X339779Y838295D01*
X339875Y838324D01*
X339969Y838357D01*
X340062Y838393D01*
X340153Y838433D01*
X340243Y838477D01*
X340331Y838524D01*
X340417Y838574D01*
X340501Y838628D01*
X340583Y838685D01*
X340662Y838745D01*
X340740Y838809D01*
X340814Y838875D01*
X340886Y838944D01*
X340955Y839016D01*
X341021Y839090D01*
X341085Y839168D01*
X341145Y839247D01*
X341202Y839329D01*
X341256Y839413D01*
X341306Y839499D01*
X341353Y839587D01*
X341397Y839677D01*
X341437Y839768D01*
X341473Y839861D01*
X341506Y839955D01*
X341535Y840051D01*
X341560Y840147D01*
X341581Y840244D01*
X341599Y840343D01*
X341612Y840441D01*
X341622Y840541D01*
X341628Y840640D01*
X341630Y840740D01*
X295910Y838200D02*
X295810Y838202D01*
X295711Y838208D01*
X295611Y838218D01*
X295513Y838231D01*
X295414Y838249D01*
X295317Y838270D01*
X295221Y838295D01*
X295125Y838324D01*
X295031Y838357D01*
X294938Y838393D01*
X294847Y838433D01*
X294757Y838477D01*
X294669Y838524D01*
X294583Y838574D01*
X294499Y838628D01*
X294417Y838685D01*
X294338Y838745D01*
X294260Y838809D01*
X294186Y838875D01*
X294114Y838944D01*
X294045Y839016D01*
X293979Y839090D01*
X293915Y839168D01*
X293855Y839247D01*
X293798Y839329D01*
X293744Y839413D01*
X293694Y839499D01*
X293647Y839587D01*
X293603Y839677D01*
X293563Y839768D01*
X293527Y839861D01*
X293494Y839955D01*
X293465Y840051D01*
X293440Y840147D01*
X293419Y840244D01*
X293401Y840343D01*
X293388Y840441D01*
X293378Y840541D01*
X293372Y840640D01*
X293370Y840740D01*
X320040Y850900D02*
X321310Y850900D01*
D11*
X320040Y850900D02*
X320040Y858520D01*
X320040Y850900D02*
X320040Y843280D01*
X314960Y850900D02*
X314960Y858520D01*
X314960Y850900D02*
X314960Y843280D01*
D10*
X314960Y850900D02*
X313690Y850900D01*
D12*
X300355Y866775D02*
X297815Y866775D01*
X297715Y866777D01*
X297616Y866783D01*
X297516Y866793D01*
X297418Y866806D01*
X297319Y866824D01*
X297222Y866845D01*
X297126Y866870D01*
X297030Y866899D01*
X296936Y866932D01*
X296843Y866968D01*
X296752Y867008D01*
X296662Y867052D01*
X296574Y867099D01*
X296488Y867149D01*
X296404Y867203D01*
X296322Y867260D01*
X296243Y867320D01*
X296165Y867384D01*
X296091Y867450D01*
X296019Y867519D01*
X295950Y867591D01*
X295884Y867665D01*
X295820Y867743D01*
X295760Y867822D01*
X295703Y867904D01*
X295649Y867988D01*
X295599Y868074D01*
X295552Y868162D01*
X295508Y868252D01*
X295468Y868343D01*
X295432Y868436D01*
X295399Y868530D01*
X295370Y868626D01*
X295345Y868722D01*
X295324Y868819D01*
X295306Y868918D01*
X295293Y869016D01*
X295283Y869116D01*
X295277Y869215D01*
X295275Y869315D01*
X295275Y875665D01*
X295277Y875765D01*
X295283Y875864D01*
X295293Y875964D01*
X295306Y876062D01*
X295324Y876161D01*
X295345Y876258D01*
X295370Y876354D01*
X295399Y876450D01*
X295432Y876544D01*
X295468Y876637D01*
X295508Y876728D01*
X295552Y876818D01*
X295599Y876906D01*
X295649Y876992D01*
X295703Y877076D01*
X295760Y877158D01*
X295820Y877237D01*
X295884Y877315D01*
X295950Y877389D01*
X296019Y877461D01*
X296091Y877530D01*
X296165Y877596D01*
X296243Y877660D01*
X296322Y877720D01*
X296404Y877777D01*
X296488Y877831D01*
X296574Y877881D01*
X296662Y877928D01*
X296752Y877972D01*
X296843Y878012D01*
X296936Y878048D01*
X297030Y878081D01*
X297126Y878110D01*
X297222Y878135D01*
X297319Y878156D01*
X297418Y878174D01*
X297516Y878187D01*
X297616Y878197D01*
X297715Y878203D01*
X297815Y878205D01*
X300355Y878205D01*
X304837Y866775D02*
X308647Y866775D01*
X308747Y866777D01*
X308846Y866783D01*
X308946Y866793D01*
X309044Y866806D01*
X309143Y866824D01*
X309240Y866845D01*
X309336Y866870D01*
X309432Y866899D01*
X309526Y866932D01*
X309619Y866968D01*
X309710Y867008D01*
X309800Y867052D01*
X309888Y867099D01*
X309974Y867149D01*
X310058Y867203D01*
X310140Y867260D01*
X310219Y867320D01*
X310297Y867384D01*
X310371Y867450D01*
X310443Y867519D01*
X310512Y867591D01*
X310578Y867665D01*
X310642Y867743D01*
X310702Y867822D01*
X310759Y867904D01*
X310813Y867988D01*
X310863Y868074D01*
X310910Y868162D01*
X310954Y868252D01*
X310994Y868343D01*
X311030Y868436D01*
X311063Y868530D01*
X311092Y868626D01*
X311117Y868722D01*
X311138Y868819D01*
X311156Y868918D01*
X311169Y869016D01*
X311179Y869116D01*
X311185Y869215D01*
X311187Y869315D01*
X311187Y870585D01*
X311185Y870685D01*
X311179Y870784D01*
X311169Y870884D01*
X311156Y870982D01*
X311138Y871081D01*
X311117Y871178D01*
X311092Y871274D01*
X311063Y871370D01*
X311030Y871464D01*
X310994Y871557D01*
X310954Y871648D01*
X310910Y871738D01*
X310863Y871826D01*
X310813Y871912D01*
X310759Y871996D01*
X310702Y872078D01*
X310642Y872157D01*
X310578Y872235D01*
X310512Y872309D01*
X310443Y872381D01*
X310371Y872450D01*
X310297Y872516D01*
X310219Y872580D01*
X310140Y872640D01*
X310058Y872697D01*
X309974Y872751D01*
X309888Y872801D01*
X309800Y872848D01*
X309710Y872892D01*
X309619Y872932D01*
X309526Y872968D01*
X309432Y873001D01*
X309336Y873030D01*
X309240Y873055D01*
X309143Y873076D01*
X309044Y873094D01*
X308946Y873107D01*
X308846Y873117D01*
X308747Y873123D01*
X308647Y873125D01*
X304837Y873125D01*
X304837Y878205D01*
X311187Y878205D01*
D10*
X288290Y773430D02*
X350520Y773430D01*
X354330Y769620D02*
X354330Y728980D01*
X350520Y725170D02*
X288290Y725170D01*
X280670Y765810D02*
X288290Y773430D01*
X299720Y766064D02*
X299720Y759714D01*
X303022Y763016D02*
X296418Y763016D01*
X302260Y749300D02*
X311150Y749300D01*
X311150Y737108D01*
X316230Y737108D01*
X316230Y761492D01*
X311150Y761492D01*
X311150Y749300D01*
X323850Y749300D02*
X332740Y749300D01*
X288290Y725170D02*
X280670Y732790D01*
X280670Y765810D01*
X350520Y773430D02*
X350642Y773428D01*
X350764Y773422D01*
X350886Y773412D01*
X351007Y773399D01*
X351128Y773381D01*
X351248Y773360D01*
X351368Y773334D01*
X351486Y773305D01*
X351604Y773273D01*
X351721Y773236D01*
X351836Y773196D01*
X351950Y773152D01*
X352062Y773104D01*
X352173Y773053D01*
X352282Y772998D01*
X352390Y772940D01*
X352495Y772878D01*
X352598Y772813D01*
X352700Y772745D01*
X352799Y772673D01*
X352895Y772599D01*
X352990Y772521D01*
X353081Y772440D01*
X353171Y772357D01*
X353257Y772271D01*
X353340Y772181D01*
X353421Y772090D01*
X353499Y771995D01*
X353573Y771899D01*
X353645Y771800D01*
X353713Y771698D01*
X353778Y771595D01*
X353840Y771490D01*
X353898Y771382D01*
X353953Y771273D01*
X354004Y771162D01*
X354052Y771050D01*
X354096Y770936D01*
X354136Y770821D01*
X354173Y770704D01*
X354205Y770586D01*
X354234Y770468D01*
X354260Y770348D01*
X354281Y770228D01*
X354299Y770107D01*
X354312Y769986D01*
X354322Y769864D01*
X354328Y769742D01*
X354330Y769620D01*
X354330Y728980D02*
X354328Y728858D01*
X354322Y728736D01*
X354312Y728614D01*
X354299Y728493D01*
X354281Y728372D01*
X354260Y728252D01*
X354234Y728132D01*
X354205Y728014D01*
X354173Y727896D01*
X354136Y727779D01*
X354096Y727664D01*
X354052Y727550D01*
X354004Y727438D01*
X353953Y727327D01*
X353898Y727218D01*
X353840Y727110D01*
X353778Y727005D01*
X353713Y726902D01*
X353645Y726800D01*
X353573Y726701D01*
X353499Y726605D01*
X353421Y726510D01*
X353340Y726419D01*
X353257Y726329D01*
X353171Y726243D01*
X353081Y726160D01*
X352990Y726079D01*
X352895Y726001D01*
X352799Y725927D01*
X352700Y725855D01*
X352598Y725787D01*
X352495Y725722D01*
X352390Y725660D01*
X352282Y725602D01*
X352173Y725547D01*
X352062Y725496D01*
X351950Y725448D01*
X351836Y725404D01*
X351721Y725364D01*
X351604Y725327D01*
X351486Y725295D01*
X351368Y725266D01*
X351248Y725240D01*
X351128Y725219D01*
X351007Y725201D01*
X350886Y725188D01*
X350764Y725178D01*
X350642Y725172D01*
X350520Y725170D01*
D13*
X322580Y749300D03*
D12*
X294005Y777875D02*
X291465Y777875D01*
X291365Y777877D01*
X291266Y777883D01*
X291166Y777893D01*
X291068Y777906D01*
X290969Y777924D01*
X290872Y777945D01*
X290776Y777970D01*
X290680Y777999D01*
X290586Y778032D01*
X290493Y778068D01*
X290402Y778108D01*
X290312Y778152D01*
X290224Y778199D01*
X290138Y778249D01*
X290054Y778303D01*
X289972Y778360D01*
X289893Y778420D01*
X289815Y778484D01*
X289741Y778550D01*
X289669Y778619D01*
X289600Y778691D01*
X289534Y778765D01*
X289470Y778843D01*
X289410Y778922D01*
X289353Y779004D01*
X289299Y779088D01*
X289249Y779174D01*
X289202Y779262D01*
X289158Y779352D01*
X289118Y779443D01*
X289082Y779536D01*
X289049Y779630D01*
X289020Y779726D01*
X288995Y779822D01*
X288974Y779919D01*
X288956Y780018D01*
X288943Y780116D01*
X288933Y780216D01*
X288927Y780315D01*
X288925Y780415D01*
X288925Y786765D01*
X288927Y786865D01*
X288933Y786964D01*
X288943Y787064D01*
X288956Y787162D01*
X288974Y787261D01*
X288995Y787358D01*
X289020Y787454D01*
X289049Y787550D01*
X289082Y787644D01*
X289118Y787737D01*
X289158Y787828D01*
X289202Y787918D01*
X289249Y788006D01*
X289299Y788092D01*
X289353Y788176D01*
X289410Y788258D01*
X289470Y788337D01*
X289534Y788415D01*
X289600Y788489D01*
X289669Y788561D01*
X289741Y788630D01*
X289815Y788696D01*
X289893Y788760D01*
X289972Y788820D01*
X290054Y788877D01*
X290138Y788931D01*
X290224Y788981D01*
X290312Y789028D01*
X290402Y789072D01*
X290493Y789112D01*
X290586Y789148D01*
X290680Y789181D01*
X290776Y789210D01*
X290872Y789235D01*
X290969Y789256D01*
X291068Y789274D01*
X291166Y789287D01*
X291266Y789297D01*
X291365Y789303D01*
X291465Y789305D01*
X294005Y789305D01*
X298487Y784225D02*
X302297Y784225D01*
X302397Y784223D01*
X302496Y784217D01*
X302596Y784207D01*
X302694Y784194D01*
X302793Y784176D01*
X302890Y784155D01*
X302986Y784130D01*
X303082Y784101D01*
X303176Y784068D01*
X303269Y784032D01*
X303360Y783992D01*
X303450Y783948D01*
X303538Y783901D01*
X303624Y783851D01*
X303708Y783797D01*
X303790Y783740D01*
X303869Y783680D01*
X303947Y783616D01*
X304021Y783550D01*
X304093Y783481D01*
X304162Y783409D01*
X304228Y783335D01*
X304292Y783257D01*
X304352Y783178D01*
X304409Y783096D01*
X304463Y783012D01*
X304513Y782926D01*
X304560Y782838D01*
X304604Y782748D01*
X304644Y782657D01*
X304680Y782564D01*
X304713Y782470D01*
X304742Y782374D01*
X304767Y782278D01*
X304788Y782181D01*
X304806Y782082D01*
X304819Y781984D01*
X304829Y781884D01*
X304835Y781785D01*
X304837Y781685D01*
X304837Y781050D01*
X304835Y780939D01*
X304829Y780829D01*
X304820Y780718D01*
X304806Y780608D01*
X304789Y780499D01*
X304768Y780390D01*
X304743Y780282D01*
X304714Y780175D01*
X304682Y780069D01*
X304646Y779964D01*
X304606Y779861D01*
X304563Y779759D01*
X304516Y779658D01*
X304465Y779559D01*
X304412Y779463D01*
X304355Y779368D01*
X304294Y779275D01*
X304231Y779184D01*
X304164Y779095D01*
X304094Y779009D01*
X304021Y778926D01*
X303946Y778844D01*
X303868Y778766D01*
X303786Y778691D01*
X303703Y778618D01*
X303617Y778548D01*
X303528Y778481D01*
X303437Y778418D01*
X303344Y778357D01*
X303249Y778300D01*
X303153Y778247D01*
X303054Y778196D01*
X302953Y778149D01*
X302851Y778106D01*
X302748Y778066D01*
X302643Y778030D01*
X302537Y777998D01*
X302430Y777969D01*
X302322Y777944D01*
X302213Y777923D01*
X302104Y777906D01*
X301994Y777892D01*
X301883Y777883D01*
X301773Y777877D01*
X301662Y777875D01*
X301551Y777877D01*
X301441Y777883D01*
X301330Y777892D01*
X301220Y777906D01*
X301111Y777923D01*
X301002Y777944D01*
X300894Y777969D01*
X300787Y777998D01*
X300681Y778030D01*
X300576Y778066D01*
X300473Y778106D01*
X300371Y778149D01*
X300270Y778196D01*
X300171Y778247D01*
X300075Y778300D01*
X299980Y778357D01*
X299887Y778418D01*
X299796Y778481D01*
X299707Y778548D01*
X299621Y778618D01*
X299538Y778691D01*
X299456Y778766D01*
X299378Y778844D01*
X299303Y778926D01*
X299230Y779009D01*
X299160Y779095D01*
X299093Y779184D01*
X299030Y779275D01*
X298969Y779368D01*
X298912Y779463D01*
X298859Y779559D01*
X298808Y779658D01*
X298761Y779759D01*
X298718Y779861D01*
X298678Y779964D01*
X298642Y780069D01*
X298610Y780175D01*
X298581Y780282D01*
X298556Y780390D01*
X298535Y780499D01*
X298518Y780608D01*
X298504Y780718D01*
X298495Y780829D01*
X298489Y780939D01*
X298487Y781050D01*
X298487Y784225D01*
X298489Y784365D01*
X298495Y784505D01*
X298504Y784645D01*
X298518Y784784D01*
X298535Y784923D01*
X298556Y785061D01*
X298581Y785199D01*
X298610Y785336D01*
X298642Y785472D01*
X298679Y785607D01*
X298719Y785741D01*
X298762Y785874D01*
X298810Y786006D01*
X298860Y786137D01*
X298915Y786266D01*
X298973Y786393D01*
X299034Y786519D01*
X299099Y786643D01*
X299168Y786765D01*
X299239Y786885D01*
X299314Y787003D01*
X299392Y787120D01*
X299474Y787234D01*
X299558Y787345D01*
X299646Y787454D01*
X299736Y787561D01*
X299830Y787666D01*
X299926Y787767D01*
X300025Y787866D01*
X300126Y787962D01*
X300231Y788056D01*
X300338Y788146D01*
X300447Y788234D01*
X300558Y788318D01*
X300672Y788400D01*
X300789Y788478D01*
X300907Y788553D01*
X301027Y788624D01*
X301149Y788693D01*
X301273Y788758D01*
X301399Y788819D01*
X301526Y788877D01*
X301655Y788932D01*
X301786Y788982D01*
X301918Y789030D01*
X302051Y789073D01*
X302185Y789113D01*
X302320Y789150D01*
X302456Y789182D01*
X302593Y789211D01*
X302731Y789236D01*
X302869Y789257D01*
X303008Y789274D01*
X303147Y789288D01*
X303287Y789297D01*
X303427Y789303D01*
X303567Y789305D01*
D10*
X631190Y544830D02*
X693420Y544830D01*
X697230Y541020D02*
X697230Y500380D01*
X693420Y496570D02*
X631190Y496570D01*
X623570Y537210D02*
X631190Y544830D01*
X642620Y537464D02*
X642620Y531114D01*
X645922Y534416D02*
X639318Y534416D01*
X645160Y520700D02*
X654050Y520700D01*
X654050Y508508D01*
X659130Y508508D01*
X659130Y532892D01*
X654050Y532892D01*
X654050Y520700D01*
X666750Y520700D02*
X675640Y520700D01*
X631190Y496570D02*
X623570Y504190D01*
X623570Y537210D01*
X693420Y544830D02*
X693542Y544828D01*
X693664Y544822D01*
X693786Y544812D01*
X693907Y544799D01*
X694028Y544781D01*
X694148Y544760D01*
X694268Y544734D01*
X694386Y544705D01*
X694504Y544673D01*
X694621Y544636D01*
X694736Y544596D01*
X694850Y544552D01*
X694962Y544504D01*
X695073Y544453D01*
X695182Y544398D01*
X695290Y544340D01*
X695395Y544278D01*
X695498Y544213D01*
X695600Y544145D01*
X695699Y544073D01*
X695795Y543999D01*
X695890Y543921D01*
X695981Y543840D01*
X696071Y543757D01*
X696157Y543671D01*
X696240Y543581D01*
X696321Y543490D01*
X696399Y543395D01*
X696473Y543299D01*
X696545Y543200D01*
X696613Y543098D01*
X696678Y542995D01*
X696740Y542890D01*
X696798Y542782D01*
X696853Y542673D01*
X696904Y542562D01*
X696952Y542450D01*
X696996Y542336D01*
X697036Y542221D01*
X697073Y542104D01*
X697105Y541986D01*
X697134Y541868D01*
X697160Y541748D01*
X697181Y541628D01*
X697199Y541507D01*
X697212Y541386D01*
X697222Y541264D01*
X697228Y541142D01*
X697230Y541020D01*
X697230Y500380D02*
X697228Y500258D01*
X697222Y500136D01*
X697212Y500014D01*
X697199Y499893D01*
X697181Y499772D01*
X697160Y499652D01*
X697134Y499532D01*
X697105Y499414D01*
X697073Y499296D01*
X697036Y499179D01*
X696996Y499064D01*
X696952Y498950D01*
X696904Y498838D01*
X696853Y498727D01*
X696798Y498618D01*
X696740Y498510D01*
X696678Y498405D01*
X696613Y498302D01*
X696545Y498200D01*
X696473Y498101D01*
X696399Y498005D01*
X696321Y497910D01*
X696240Y497819D01*
X696157Y497729D01*
X696071Y497643D01*
X695981Y497560D01*
X695890Y497479D01*
X695795Y497401D01*
X695699Y497327D01*
X695600Y497255D01*
X695498Y497187D01*
X695395Y497122D01*
X695290Y497060D01*
X695182Y497002D01*
X695073Y496947D01*
X694962Y496896D01*
X694850Y496848D01*
X694736Y496804D01*
X694621Y496764D01*
X694504Y496727D01*
X694386Y496695D01*
X694268Y496666D01*
X694148Y496640D01*
X694028Y496619D01*
X693907Y496601D01*
X693786Y496588D01*
X693664Y496578D01*
X693542Y496572D01*
X693420Y496570D01*
D13*
X665480Y520700D03*
D12*
X636905Y549275D02*
X634365Y549275D01*
X634265Y549277D01*
X634166Y549283D01*
X634066Y549293D01*
X633968Y549306D01*
X633869Y549324D01*
X633772Y549345D01*
X633676Y549370D01*
X633580Y549399D01*
X633486Y549432D01*
X633393Y549468D01*
X633302Y549508D01*
X633212Y549552D01*
X633124Y549599D01*
X633038Y549649D01*
X632954Y549703D01*
X632872Y549760D01*
X632793Y549820D01*
X632715Y549884D01*
X632641Y549950D01*
X632569Y550019D01*
X632500Y550091D01*
X632434Y550165D01*
X632370Y550243D01*
X632310Y550322D01*
X632253Y550404D01*
X632199Y550488D01*
X632149Y550574D01*
X632102Y550662D01*
X632058Y550752D01*
X632018Y550843D01*
X631982Y550936D01*
X631949Y551030D01*
X631920Y551126D01*
X631895Y551222D01*
X631874Y551319D01*
X631856Y551418D01*
X631843Y551516D01*
X631833Y551616D01*
X631827Y551715D01*
X631825Y551815D01*
X631825Y558165D01*
X631827Y558265D01*
X631833Y558364D01*
X631843Y558464D01*
X631856Y558562D01*
X631874Y558661D01*
X631895Y558758D01*
X631920Y558854D01*
X631949Y558950D01*
X631982Y559044D01*
X632018Y559137D01*
X632058Y559228D01*
X632102Y559318D01*
X632149Y559406D01*
X632199Y559492D01*
X632253Y559576D01*
X632310Y559658D01*
X632370Y559737D01*
X632434Y559815D01*
X632500Y559889D01*
X632569Y559961D01*
X632641Y560030D01*
X632715Y560096D01*
X632793Y560160D01*
X632872Y560220D01*
X632954Y560277D01*
X633038Y560331D01*
X633124Y560381D01*
X633212Y560428D01*
X633302Y560472D01*
X633393Y560512D01*
X633486Y560548D01*
X633580Y560581D01*
X633676Y560610D01*
X633772Y560635D01*
X633869Y560656D01*
X633968Y560674D01*
X634066Y560687D01*
X634166Y560697D01*
X634265Y560703D01*
X634365Y560705D01*
X636905Y560705D01*
X641387Y560705D02*
X641387Y559435D01*
X641387Y560705D02*
X647737Y560705D01*
X644562Y549275D01*
D14*
X120196Y946503D02*
X111108Y946503D01*
X120196Y946502D02*
X120295Y946500D01*
X120395Y946494D01*
X120494Y946485D01*
X120592Y946472D01*
X120690Y946455D01*
X120788Y946434D01*
X120884Y946409D01*
X120979Y946381D01*
X121073Y946349D01*
X121166Y946314D01*
X121258Y946275D01*
X121348Y946232D01*
X121436Y946187D01*
X121523Y946137D01*
X121607Y946085D01*
X121690Y946029D01*
X121770Y945971D01*
X121848Y945909D01*
X121923Y945844D01*
X121996Y945776D01*
X122066Y945706D01*
X122134Y945633D01*
X122199Y945558D01*
X122261Y945480D01*
X122319Y945400D01*
X122375Y945317D01*
X122427Y945233D01*
X122477Y945146D01*
X122522Y945058D01*
X122565Y944968D01*
X122604Y944876D01*
X122639Y944783D01*
X122671Y944689D01*
X122699Y944594D01*
X122724Y944498D01*
X122745Y944400D01*
X122762Y944302D01*
X122775Y944204D01*
X122784Y944105D01*
X122790Y944005D01*
X122792Y943906D01*
X122792Y942608D01*
X113704Y951776D02*
X111108Y955022D01*
X122792Y955022D01*
X122792Y958267D02*
X122792Y951776D01*
D10*
X635000Y980440D02*
X635372Y980435D01*
X635743Y980422D01*
X636114Y980399D01*
X636484Y980368D01*
X636853Y980327D01*
X637221Y980277D01*
X637588Y980219D01*
X637953Y980151D01*
X638317Y980075D01*
X638678Y979990D01*
X639037Y979895D01*
X639394Y979793D01*
X639749Y979681D01*
X640100Y979561D01*
X640449Y979433D01*
X640794Y979296D01*
X641136Y979150D01*
X641474Y978997D01*
X641808Y978835D01*
X642138Y978665D01*
X642464Y978487D01*
X642786Y978301D01*
X643103Y978107D01*
X643415Y977906D01*
X643722Y977697D01*
X644024Y977481D01*
X644321Y977257D01*
X644612Y977027D01*
X644897Y976789D01*
X645177Y976544D01*
X645450Y976293D01*
X645717Y976035D01*
X645978Y975771D01*
X646233Y975500D01*
X646480Y975223D01*
X646721Y974940D01*
X646955Y974652D01*
X647182Y974358D01*
X647401Y974058D01*
X635000Y980440D02*
X634628Y980435D01*
X634257Y980422D01*
X633885Y980399D01*
X633515Y980367D01*
X633145Y980327D01*
X632777Y980277D01*
X632409Y980218D01*
X632044Y980151D01*
X631680Y980074D01*
X631318Y979988D01*
X630958Y979894D01*
X630601Y979791D01*
X630246Y979680D01*
X629894Y979559D01*
X629545Y979430D01*
X629200Y979293D01*
X628858Y979147D01*
X628519Y978993D01*
X628184Y978831D01*
X627854Y978661D01*
X627528Y978482D01*
X627206Y978296D01*
X626888Y978102D01*
X626576Y977900D01*
X626269Y977691D01*
X625967Y977474D01*
X625670Y977250D01*
X625378Y977019D01*
X625093Y976781D01*
X624813Y976535D01*
X624540Y976283D01*
X624272Y976025D01*
X624012Y975760D01*
X623757Y975489D01*
X623509Y975211D01*
X623269Y974928D01*
X623035Y974639D01*
X622808Y974344D01*
X635000Y949960D02*
X635365Y949964D01*
X635730Y949977D01*
X636094Y949999D01*
X636457Y950030D01*
X636820Y950069D01*
X637182Y950117D01*
X637542Y950174D01*
X637901Y950239D01*
X638259Y950312D01*
X638614Y950395D01*
X638967Y950485D01*
X639319Y950585D01*
X639667Y950692D01*
X640013Y950808D01*
X640356Y950932D01*
X640696Y951065D01*
X641033Y951205D01*
X641366Y951353D01*
X641696Y951510D01*
X642022Y951674D01*
X642344Y951846D01*
X642661Y952026D01*
X642974Y952213D01*
X643283Y952407D01*
X643587Y952609D01*
X643886Y952819D01*
X644180Y953035D01*
X644468Y953258D01*
X644751Y953488D01*
X645029Y953725D01*
X645301Y953968D01*
X645567Y954218D01*
X645827Y954474D01*
X646080Y954737D01*
X646328Y955005D01*
X646568Y955279D01*
X646803Y955559D01*
X647030Y955844D01*
X635000Y949960D02*
X634635Y949964D01*
X634270Y949977D01*
X633906Y949999D01*
X633543Y950030D01*
X633180Y950069D01*
X632818Y950117D01*
X632458Y950174D01*
X632099Y950239D01*
X631741Y950312D01*
X631386Y950395D01*
X631033Y950485D01*
X630681Y950585D01*
X630333Y950692D01*
X629987Y950808D01*
X629644Y950932D01*
X629304Y951065D01*
X628967Y951205D01*
X628634Y951353D01*
X628304Y951510D01*
X627978Y951674D01*
X627656Y951846D01*
X627339Y952026D01*
X627026Y952213D01*
X626717Y952407D01*
X626413Y952609D01*
X626114Y952819D01*
X625820Y953035D01*
X625532Y953258D01*
X625249Y953488D01*
X624971Y953725D01*
X624699Y953968D01*
X624433Y954218D01*
X624173Y954474D01*
X623920Y954737D01*
X623672Y955005D01*
X623432Y955279D01*
X623197Y955559D01*
X622970Y955844D01*
D11*
X635000Y985520D02*
X635494Y985514D01*
X635988Y985496D01*
X636482Y985466D01*
X636975Y985424D01*
X637466Y985370D01*
X637956Y985304D01*
X638444Y985226D01*
X638931Y985136D01*
X639415Y985035D01*
X639896Y984921D01*
X640374Y984796D01*
X640850Y984660D01*
X641321Y984512D01*
X641789Y984352D01*
X642253Y984181D01*
X642713Y983999D01*
X643168Y983806D01*
X643619Y983602D01*
X644064Y983387D01*
X644504Y983161D01*
X644938Y982924D01*
X645366Y982677D01*
X645788Y982420D01*
X646204Y982152D01*
X646613Y981874D01*
X647015Y981587D01*
X647411Y981290D01*
X647798Y980983D01*
X648179Y980667D01*
X648551Y980342D01*
X648916Y980007D01*
X649272Y979664D01*
X649619Y979313D01*
X649959Y978953D01*
X650289Y978585D01*
X650610Y978209D01*
X635000Y985520D02*
X634512Y985514D01*
X634025Y985497D01*
X633538Y985467D01*
X633051Y985426D01*
X632566Y985374D01*
X632082Y985309D01*
X631600Y985233D01*
X631120Y985146D01*
X630642Y985047D01*
X630167Y984937D01*
X629694Y984815D01*
X629225Y984682D01*
X628758Y984537D01*
X628296Y984382D01*
X627837Y984215D01*
X627382Y984038D01*
X626932Y983849D01*
X626487Y983650D01*
X626046Y983440D01*
X625610Y983220D01*
X625180Y982989D01*
X624756Y982748D01*
X624338Y982497D01*
X623925Y982236D01*
X623519Y981965D01*
X623120Y981685D01*
X622727Y981395D01*
X622342Y981095D01*
X621964Y980786D01*
X621593Y980469D01*
X621231Y980142D01*
X620876Y979807D01*
X620529Y979464D01*
X620191Y979112D01*
X619861Y978753D01*
X619540Y978385D01*
X619227Y978010D01*
X618924Y977627D01*
X618630Y977238D01*
X618346Y976841D01*
X618071Y976438D01*
X617806Y976028D01*
X617551Y975612D01*
X617306Y975190D01*
X617071Y974762D01*
X635000Y944880D02*
X635490Y944886D01*
X635980Y944904D01*
X636469Y944933D01*
X636958Y944975D01*
X637445Y945028D01*
X637931Y945092D01*
X638415Y945169D01*
X638897Y945257D01*
X639377Y945357D01*
X639855Y945468D01*
X640329Y945591D01*
X640801Y945726D01*
X641269Y945871D01*
X641733Y946028D01*
X642194Y946196D01*
X642650Y946375D01*
X643102Y946565D01*
X643549Y946766D01*
X643991Y946978D01*
X644428Y947200D01*
X644860Y947432D01*
X645286Y947675D01*
X645705Y947929D01*
X646119Y948192D01*
X646526Y948465D01*
X646926Y948748D01*
X647320Y949041D01*
X647706Y949342D01*
X648085Y949654D01*
X648456Y949974D01*
X648819Y950303D01*
X649175Y950640D01*
X649522Y950987D01*
X649860Y951341D01*
X650190Y951704D01*
X650512Y952074D01*
X635000Y944880D02*
X634503Y944886D01*
X634006Y944904D01*
X633510Y944935D01*
X633015Y944977D01*
X632521Y945032D01*
X632028Y945098D01*
X631538Y945177D01*
X631049Y945268D01*
X630563Y945370D01*
X630079Y945485D01*
X629599Y945611D01*
X629121Y945749D01*
X628647Y945898D01*
X628177Y946059D01*
X627711Y946232D01*
X627249Y946416D01*
X626792Y946611D01*
X626340Y946817D01*
X625893Y947034D01*
X625452Y947263D01*
X625016Y947501D01*
X624586Y947751D01*
X624163Y948011D01*
X623745Y948281D01*
X623335Y948561D01*
X622932Y948851D01*
X622535Y949151D01*
X622147Y949461D01*
X621766Y949780D01*
X621393Y950108D01*
X621028Y950445D01*
X620671Y950791D01*
X620323Y951146D01*
X619984Y951509D01*
X619653Y951880D01*
X619332Y952260D01*
X619020Y952647D01*
X618718Y953041D01*
X618426Y953443D01*
X618143Y953852D01*
X617871Y954267D01*
X617608Y954690D01*
X617357Y955118D01*
D12*
X654685Y969645D02*
X654685Y981075D01*
X654685Y969645D02*
X659765Y969645D01*
X664591Y969645D02*
X669671Y969645D01*
X664591Y969645D02*
X664591Y981075D01*
X669671Y981075D01*
X668401Y975995D02*
X664591Y975995D01*
X674472Y981075D02*
X674472Y969645D01*
X674472Y981075D02*
X677647Y981075D01*
X677758Y981073D01*
X677868Y981067D01*
X677979Y981058D01*
X678089Y981044D01*
X678198Y981027D01*
X678307Y981006D01*
X678415Y980981D01*
X678522Y980952D01*
X678628Y980920D01*
X678733Y980884D01*
X678836Y980844D01*
X678938Y980801D01*
X679039Y980754D01*
X679138Y980703D01*
X679235Y980650D01*
X679329Y980593D01*
X679422Y980532D01*
X679513Y980469D01*
X679602Y980402D01*
X679688Y980332D01*
X679771Y980259D01*
X679853Y980184D01*
X679931Y980106D01*
X680006Y980024D01*
X680079Y979941D01*
X680149Y979855D01*
X680216Y979766D01*
X680279Y979675D01*
X680340Y979582D01*
X680397Y979488D01*
X680450Y979391D01*
X680501Y979292D01*
X680548Y979191D01*
X680591Y979089D01*
X680631Y978986D01*
X680667Y978881D01*
X680699Y978775D01*
X680728Y978668D01*
X680753Y978560D01*
X680774Y978451D01*
X680791Y978342D01*
X680805Y978232D01*
X680814Y978121D01*
X680820Y978011D01*
X680822Y977900D01*
X680822Y972820D01*
X680820Y972709D01*
X680814Y972599D01*
X680805Y972488D01*
X680791Y972378D01*
X680774Y972269D01*
X680753Y972160D01*
X680728Y972052D01*
X680699Y971945D01*
X680667Y971839D01*
X680631Y971734D01*
X680591Y971631D01*
X680548Y971529D01*
X680501Y971428D01*
X680450Y971329D01*
X680397Y971233D01*
X680340Y971138D01*
X680279Y971045D01*
X680216Y970954D01*
X680149Y970865D01*
X680079Y970779D01*
X680006Y970696D01*
X679931Y970614D01*
X679853Y970536D01*
X679771Y970461D01*
X679688Y970388D01*
X679602Y970318D01*
X679513Y970251D01*
X679422Y970188D01*
X679329Y970127D01*
X679235Y970070D01*
X679138Y970017D01*
X679039Y969966D01*
X678938Y969919D01*
X678836Y969876D01*
X678733Y969836D01*
X678628Y969800D01*
X678522Y969768D01*
X678415Y969739D01*
X678307Y969714D01*
X678198Y969693D01*
X678089Y969676D01*
X677979Y969662D01*
X677868Y969653D01*
X677758Y969647D01*
X677647Y969645D01*
X674472Y969645D01*
X686283Y978535D02*
X689458Y981075D01*
X689458Y969645D01*
X686283Y969645D02*
X692633Y969645D01*
D10*
X647401Y897858D02*
X647182Y898158D01*
X646955Y898452D01*
X646721Y898740D01*
X646480Y899023D01*
X646233Y899300D01*
X645978Y899571D01*
X645717Y899835D01*
X645450Y900093D01*
X645177Y900344D01*
X644897Y900589D01*
X644612Y900827D01*
X644321Y901057D01*
X644024Y901281D01*
X643722Y901497D01*
X643415Y901706D01*
X643103Y901907D01*
X642786Y902101D01*
X642464Y902287D01*
X642138Y902465D01*
X641808Y902635D01*
X641474Y902797D01*
X641136Y902950D01*
X640794Y903096D01*
X640449Y903233D01*
X640100Y903361D01*
X639749Y903481D01*
X639394Y903593D01*
X639037Y903695D01*
X638678Y903790D01*
X638317Y903875D01*
X637953Y903951D01*
X637588Y904019D01*
X637221Y904077D01*
X636853Y904127D01*
X636484Y904168D01*
X636114Y904199D01*
X635743Y904222D01*
X635372Y904235D01*
X635000Y904240D01*
X634628Y904235D01*
X634257Y904222D01*
X633885Y904199D01*
X633515Y904167D01*
X633145Y904127D01*
X632777Y904077D01*
X632409Y904018D01*
X632044Y903951D01*
X631680Y903874D01*
X631318Y903788D01*
X630958Y903694D01*
X630601Y903591D01*
X630246Y903480D01*
X629894Y903359D01*
X629545Y903230D01*
X629200Y903093D01*
X628858Y902947D01*
X628519Y902793D01*
X628184Y902631D01*
X627854Y902461D01*
X627528Y902282D01*
X627206Y902096D01*
X626888Y901902D01*
X626576Y901700D01*
X626269Y901491D01*
X625967Y901274D01*
X625670Y901050D01*
X625378Y900819D01*
X625093Y900581D01*
X624813Y900335D01*
X624540Y900083D01*
X624272Y899825D01*
X624012Y899560D01*
X623757Y899289D01*
X623509Y899011D01*
X623269Y898728D01*
X623035Y898439D01*
X622808Y898144D01*
X635000Y873760D02*
X635365Y873764D01*
X635730Y873777D01*
X636094Y873799D01*
X636457Y873830D01*
X636820Y873869D01*
X637182Y873917D01*
X637542Y873974D01*
X637901Y874039D01*
X638259Y874112D01*
X638614Y874195D01*
X638967Y874285D01*
X639319Y874385D01*
X639667Y874492D01*
X640013Y874608D01*
X640356Y874732D01*
X640696Y874865D01*
X641033Y875005D01*
X641366Y875153D01*
X641696Y875310D01*
X642022Y875474D01*
X642344Y875646D01*
X642661Y875826D01*
X642974Y876013D01*
X643283Y876207D01*
X643587Y876409D01*
X643886Y876619D01*
X644180Y876835D01*
X644468Y877058D01*
X644751Y877288D01*
X645029Y877525D01*
X645301Y877768D01*
X645567Y878018D01*
X645827Y878274D01*
X646080Y878537D01*
X646328Y878805D01*
X646568Y879079D01*
X646803Y879359D01*
X647030Y879644D01*
X635000Y873760D02*
X634635Y873764D01*
X634270Y873777D01*
X633906Y873799D01*
X633543Y873830D01*
X633180Y873869D01*
X632818Y873917D01*
X632458Y873974D01*
X632099Y874039D01*
X631741Y874112D01*
X631386Y874195D01*
X631033Y874285D01*
X630681Y874385D01*
X630333Y874492D01*
X629987Y874608D01*
X629644Y874732D01*
X629304Y874865D01*
X628967Y875005D01*
X628634Y875153D01*
X628304Y875310D01*
X627978Y875474D01*
X627656Y875646D01*
X627339Y875826D01*
X627026Y876013D01*
X626717Y876207D01*
X626413Y876409D01*
X626114Y876619D01*
X625820Y876835D01*
X625532Y877058D01*
X625249Y877288D01*
X624971Y877525D01*
X624699Y877768D01*
X624433Y878018D01*
X624173Y878274D01*
X623920Y878537D01*
X623672Y878805D01*
X623432Y879079D01*
X623197Y879359D01*
X622970Y879644D01*
D11*
X635000Y909320D02*
X635494Y909314D01*
X635988Y909296D01*
X636482Y909266D01*
X636975Y909224D01*
X637466Y909170D01*
X637956Y909104D01*
X638444Y909026D01*
X638931Y908936D01*
X639415Y908835D01*
X639896Y908721D01*
X640374Y908596D01*
X640850Y908460D01*
X641321Y908312D01*
X641789Y908152D01*
X642253Y907981D01*
X642713Y907799D01*
X643168Y907606D01*
X643619Y907402D01*
X644064Y907187D01*
X644504Y906961D01*
X644938Y906724D01*
X645366Y906477D01*
X645788Y906220D01*
X646204Y905952D01*
X646613Y905674D01*
X647015Y905387D01*
X647411Y905090D01*
X647798Y904783D01*
X648179Y904467D01*
X648551Y904142D01*
X648916Y903807D01*
X649272Y903464D01*
X649619Y903113D01*
X649959Y902753D01*
X650289Y902385D01*
X650610Y902009D01*
X635000Y909320D02*
X634512Y909314D01*
X634025Y909297D01*
X633538Y909267D01*
X633051Y909226D01*
X632566Y909174D01*
X632082Y909109D01*
X631600Y909033D01*
X631120Y908946D01*
X630642Y908847D01*
X630167Y908737D01*
X629694Y908615D01*
X629225Y908482D01*
X628758Y908337D01*
X628296Y908182D01*
X627837Y908015D01*
X627382Y907838D01*
X626932Y907649D01*
X626487Y907450D01*
X626046Y907240D01*
X625610Y907020D01*
X625180Y906789D01*
X624756Y906548D01*
X624338Y906297D01*
X623925Y906036D01*
X623519Y905765D01*
X623120Y905485D01*
X622727Y905195D01*
X622342Y904895D01*
X621964Y904586D01*
X621593Y904269D01*
X621231Y903942D01*
X620876Y903607D01*
X620529Y903264D01*
X620191Y902912D01*
X619861Y902553D01*
X619540Y902185D01*
X619227Y901810D01*
X618924Y901427D01*
X618630Y901038D01*
X618346Y900641D01*
X618071Y900238D01*
X617806Y899828D01*
X617551Y899412D01*
X617306Y898990D01*
X617071Y898562D01*
X635000Y868680D02*
X635490Y868686D01*
X635980Y868704D01*
X636469Y868733D01*
X636958Y868775D01*
X637445Y868828D01*
X637931Y868892D01*
X638415Y868969D01*
X638897Y869057D01*
X639377Y869157D01*
X639855Y869268D01*
X640329Y869391D01*
X640801Y869526D01*
X641269Y869671D01*
X641733Y869828D01*
X642194Y869996D01*
X642650Y870175D01*
X643102Y870365D01*
X643549Y870566D01*
X643991Y870778D01*
X644428Y871000D01*
X644860Y871232D01*
X645286Y871475D01*
X645705Y871729D01*
X646119Y871992D01*
X646526Y872265D01*
X646926Y872548D01*
X647320Y872841D01*
X647706Y873142D01*
X648085Y873454D01*
X648456Y873774D01*
X648819Y874103D01*
X649175Y874440D01*
X649522Y874787D01*
X649860Y875141D01*
X650190Y875504D01*
X650512Y875874D01*
X635000Y868680D02*
X634503Y868686D01*
X634006Y868704D01*
X633510Y868735D01*
X633015Y868777D01*
X632521Y868832D01*
X632028Y868898D01*
X631538Y868977D01*
X631049Y869068D01*
X630563Y869170D01*
X630079Y869285D01*
X629599Y869411D01*
X629121Y869549D01*
X628647Y869698D01*
X628177Y869859D01*
X627711Y870032D01*
X627249Y870216D01*
X626792Y870411D01*
X626340Y870617D01*
X625893Y870834D01*
X625452Y871063D01*
X625016Y871301D01*
X624586Y871551D01*
X624163Y871811D01*
X623745Y872081D01*
X623335Y872361D01*
X622932Y872651D01*
X622535Y872951D01*
X622147Y873261D01*
X621766Y873580D01*
X621393Y873908D01*
X621028Y874245D01*
X620671Y874591D01*
X620323Y874946D01*
X619984Y875309D01*
X619653Y875680D01*
X619332Y876060D01*
X619020Y876447D01*
X618718Y876841D01*
X618426Y877243D01*
X618143Y877652D01*
X617871Y878067D01*
X617608Y878490D01*
X617357Y878918D01*
D12*
X654685Y893445D02*
X654685Y904875D01*
X654685Y893445D02*
X659765Y893445D01*
X664591Y893445D02*
X669671Y893445D01*
X664591Y893445D02*
X664591Y904875D01*
X669671Y904875D01*
X668401Y899795D02*
X664591Y899795D01*
X674472Y904875D02*
X674472Y893445D01*
X674472Y904875D02*
X677647Y904875D01*
X677758Y904873D01*
X677868Y904867D01*
X677979Y904858D01*
X678089Y904844D01*
X678198Y904827D01*
X678307Y904806D01*
X678415Y904781D01*
X678522Y904752D01*
X678628Y904720D01*
X678733Y904684D01*
X678836Y904644D01*
X678938Y904601D01*
X679039Y904554D01*
X679138Y904503D01*
X679235Y904450D01*
X679329Y904393D01*
X679422Y904332D01*
X679513Y904269D01*
X679602Y904202D01*
X679688Y904132D01*
X679771Y904059D01*
X679853Y903984D01*
X679931Y903906D01*
X680006Y903824D01*
X680079Y903741D01*
X680149Y903655D01*
X680216Y903566D01*
X680279Y903475D01*
X680340Y903382D01*
X680397Y903288D01*
X680450Y903191D01*
X680501Y903092D01*
X680548Y902991D01*
X680591Y902889D01*
X680631Y902786D01*
X680667Y902681D01*
X680699Y902575D01*
X680728Y902468D01*
X680753Y902360D01*
X680774Y902251D01*
X680791Y902142D01*
X680805Y902032D01*
X680814Y901921D01*
X680820Y901811D01*
X680822Y901700D01*
X680822Y896620D01*
X680820Y896509D01*
X680814Y896399D01*
X680805Y896288D01*
X680791Y896178D01*
X680774Y896069D01*
X680753Y895960D01*
X680728Y895852D01*
X680699Y895745D01*
X680667Y895639D01*
X680631Y895534D01*
X680591Y895431D01*
X680548Y895329D01*
X680501Y895228D01*
X680450Y895129D01*
X680397Y895033D01*
X680340Y894938D01*
X680279Y894845D01*
X680216Y894754D01*
X680149Y894665D01*
X680079Y894579D01*
X680006Y894496D01*
X679931Y894414D01*
X679853Y894336D01*
X679771Y894261D01*
X679688Y894188D01*
X679602Y894118D01*
X679513Y894051D01*
X679422Y893988D01*
X679329Y893927D01*
X679235Y893870D01*
X679138Y893817D01*
X679039Y893766D01*
X678938Y893719D01*
X678836Y893676D01*
X678733Y893636D01*
X678628Y893600D01*
X678522Y893568D01*
X678415Y893539D01*
X678307Y893514D01*
X678198Y893493D01*
X678089Y893476D01*
X677979Y893462D01*
X677868Y893453D01*
X677758Y893447D01*
X677647Y893445D01*
X674472Y893445D01*
X689775Y904876D02*
X689879Y904874D01*
X689984Y904868D01*
X690088Y904859D01*
X690191Y904846D01*
X690294Y904828D01*
X690396Y904808D01*
X690498Y904783D01*
X690598Y904755D01*
X690698Y904723D01*
X690796Y904687D01*
X690893Y904648D01*
X690988Y904606D01*
X691082Y904560D01*
X691174Y904510D01*
X691264Y904458D01*
X691352Y904402D01*
X691438Y904342D01*
X691522Y904280D01*
X691603Y904215D01*
X691682Y904147D01*
X691759Y904075D01*
X691832Y904002D01*
X691904Y903925D01*
X691972Y903846D01*
X692037Y903765D01*
X692099Y903681D01*
X692159Y903595D01*
X692215Y903507D01*
X692267Y903417D01*
X692317Y903325D01*
X692363Y903231D01*
X692405Y903136D01*
X692444Y903039D01*
X692480Y902941D01*
X692512Y902841D01*
X692540Y902741D01*
X692565Y902639D01*
X692585Y902537D01*
X692603Y902434D01*
X692616Y902331D01*
X692625Y902227D01*
X692631Y902122D01*
X692633Y902018D01*
X689775Y904875D02*
X689657Y904873D01*
X689538Y904867D01*
X689420Y904858D01*
X689303Y904845D01*
X689186Y904827D01*
X689069Y904807D01*
X688953Y904782D01*
X688838Y904754D01*
X688725Y904721D01*
X688612Y904686D01*
X688500Y904646D01*
X688390Y904604D01*
X688281Y904557D01*
X688173Y904507D01*
X688068Y904454D01*
X687964Y904397D01*
X687862Y904337D01*
X687762Y904274D01*
X687664Y904207D01*
X687568Y904138D01*
X687475Y904065D01*
X687384Y903989D01*
X687295Y903911D01*
X687209Y903829D01*
X687126Y903745D01*
X687045Y903659D01*
X686968Y903569D01*
X686893Y903478D01*
X686821Y903384D01*
X686752Y903287D01*
X686687Y903189D01*
X686624Y903088D01*
X686565Y902985D01*
X686509Y902881D01*
X686457Y902775D01*
X686408Y902667D01*
X686363Y902558D01*
X686321Y902447D01*
X686283Y902335D01*
X691680Y899796D02*
X691756Y899871D01*
X691831Y899950D01*
X691902Y900031D01*
X691971Y900115D01*
X692036Y900201D01*
X692098Y900289D01*
X692158Y900379D01*
X692214Y900471D01*
X692267Y900566D01*
X692316Y900662D01*
X692362Y900760D01*
X692405Y900859D01*
X692444Y900960D01*
X692479Y901062D01*
X692511Y901165D01*
X692539Y901269D01*
X692564Y901374D01*
X692585Y901481D01*
X692602Y901587D01*
X692615Y901694D01*
X692624Y901802D01*
X692630Y901910D01*
X692632Y902018D01*
X691680Y899795D02*
X686283Y893445D01*
X692633Y893445D01*
D10*
X504190Y900430D02*
X504090Y900428D01*
X503991Y900422D01*
X503891Y900412D01*
X503793Y900399D01*
X503694Y900381D01*
X503597Y900360D01*
X503501Y900335D01*
X503405Y900306D01*
X503311Y900273D01*
X503218Y900237D01*
X503127Y900197D01*
X503037Y900153D01*
X502949Y900106D01*
X502863Y900056D01*
X502779Y900002D01*
X502697Y899945D01*
X502618Y899885D01*
X502540Y899821D01*
X502466Y899755D01*
X502394Y899686D01*
X502325Y899614D01*
X502259Y899540D01*
X502195Y899462D01*
X502135Y899383D01*
X502078Y899301D01*
X502024Y899217D01*
X501974Y899131D01*
X501927Y899043D01*
X501883Y898953D01*
X501843Y898862D01*
X501807Y898769D01*
X501774Y898675D01*
X501745Y898579D01*
X501720Y898483D01*
X501699Y898386D01*
X501681Y898287D01*
X501668Y898189D01*
X501658Y898089D01*
X501652Y897990D01*
X501650Y897890D01*
X501650Y880110D02*
X501652Y880010D01*
X501658Y879911D01*
X501668Y879811D01*
X501681Y879713D01*
X501699Y879614D01*
X501720Y879517D01*
X501745Y879421D01*
X501774Y879325D01*
X501807Y879231D01*
X501843Y879138D01*
X501883Y879047D01*
X501927Y878957D01*
X501974Y878869D01*
X502024Y878783D01*
X502078Y878699D01*
X502135Y878617D01*
X502195Y878538D01*
X502259Y878460D01*
X502325Y878386D01*
X502394Y878314D01*
X502466Y878245D01*
X502540Y878179D01*
X502618Y878115D01*
X502697Y878055D01*
X502779Y877998D01*
X502863Y877944D01*
X502949Y877894D01*
X503037Y877847D01*
X503127Y877803D01*
X503218Y877763D01*
X503311Y877727D01*
X503405Y877694D01*
X503501Y877665D01*
X503597Y877640D01*
X503694Y877619D01*
X503793Y877601D01*
X503891Y877588D01*
X503991Y877578D01*
X504090Y877572D01*
X504190Y877570D01*
X562610Y877570D02*
X562710Y877572D01*
X562809Y877578D01*
X562909Y877588D01*
X563007Y877601D01*
X563106Y877619D01*
X563203Y877640D01*
X563299Y877665D01*
X563395Y877694D01*
X563489Y877727D01*
X563582Y877763D01*
X563673Y877803D01*
X563763Y877847D01*
X563851Y877894D01*
X563937Y877944D01*
X564021Y877998D01*
X564103Y878055D01*
X564182Y878115D01*
X564260Y878179D01*
X564334Y878245D01*
X564406Y878314D01*
X564475Y878386D01*
X564541Y878460D01*
X564605Y878538D01*
X564665Y878617D01*
X564722Y878699D01*
X564776Y878783D01*
X564826Y878869D01*
X564873Y878957D01*
X564917Y879047D01*
X564957Y879138D01*
X564993Y879231D01*
X565026Y879325D01*
X565055Y879421D01*
X565080Y879517D01*
X565101Y879614D01*
X565119Y879713D01*
X565132Y879811D01*
X565142Y879911D01*
X565148Y880010D01*
X565150Y880110D01*
X565150Y897890D02*
X565148Y897990D01*
X565142Y898089D01*
X565132Y898189D01*
X565119Y898287D01*
X565101Y898386D01*
X565080Y898483D01*
X565055Y898579D01*
X565026Y898675D01*
X564993Y898769D01*
X564957Y898862D01*
X564917Y898953D01*
X564873Y899043D01*
X564826Y899131D01*
X564776Y899217D01*
X564722Y899301D01*
X564665Y899383D01*
X564605Y899462D01*
X564541Y899540D01*
X564475Y899614D01*
X564406Y899686D01*
X564334Y899755D01*
X564260Y899821D01*
X564182Y899885D01*
X564103Y899945D01*
X564021Y900002D01*
X563937Y900056D01*
X563851Y900106D01*
X563763Y900153D01*
X563673Y900197D01*
X563582Y900237D01*
X563489Y900273D01*
X563395Y900306D01*
X563299Y900335D01*
X563203Y900360D01*
X563106Y900381D01*
X563007Y900399D01*
X562909Y900412D01*
X562809Y900422D01*
X562710Y900428D01*
X562610Y900430D01*
X501650Y897890D02*
X501650Y880110D01*
X504190Y900430D02*
X508000Y900430D01*
X509270Y899160D01*
X508000Y877570D02*
X504190Y877570D01*
X508000Y877570D02*
X509270Y878840D01*
X557530Y899160D02*
X558800Y900430D01*
X557530Y899160D02*
X509270Y899160D01*
X557530Y878840D02*
X558800Y877570D01*
X557530Y878840D02*
X509270Y878840D01*
X558800Y900430D02*
X562610Y900430D01*
X562610Y877570D02*
X558800Y877570D01*
X565150Y880110D02*
X565150Y897890D01*
D15*
X569468Y889000D03*
X497332Y889000D03*
D12*
X503555Y904875D02*
X503555Y916305D01*
X506730Y916305D01*
X506841Y916303D01*
X506951Y916297D01*
X507062Y916288D01*
X507172Y916274D01*
X507281Y916257D01*
X507390Y916236D01*
X507498Y916211D01*
X507605Y916182D01*
X507711Y916150D01*
X507816Y916114D01*
X507919Y916074D01*
X508021Y916031D01*
X508122Y915984D01*
X508221Y915933D01*
X508318Y915880D01*
X508412Y915823D01*
X508505Y915762D01*
X508596Y915699D01*
X508685Y915632D01*
X508771Y915562D01*
X508854Y915489D01*
X508936Y915414D01*
X509014Y915336D01*
X509089Y915254D01*
X509162Y915171D01*
X509232Y915085D01*
X509299Y914996D01*
X509362Y914905D01*
X509423Y914812D01*
X509480Y914717D01*
X509533Y914621D01*
X509584Y914522D01*
X509631Y914421D01*
X509674Y914319D01*
X509714Y914216D01*
X509750Y914111D01*
X509782Y914005D01*
X509811Y913898D01*
X509836Y913790D01*
X509857Y913681D01*
X509874Y913572D01*
X509888Y913462D01*
X509897Y913351D01*
X509903Y913241D01*
X509905Y913130D01*
X509903Y913019D01*
X509897Y912909D01*
X509888Y912798D01*
X509874Y912688D01*
X509857Y912579D01*
X509836Y912470D01*
X509811Y912362D01*
X509782Y912255D01*
X509750Y912149D01*
X509714Y912044D01*
X509674Y911941D01*
X509631Y911839D01*
X509584Y911738D01*
X509533Y911639D01*
X509480Y911543D01*
X509423Y911448D01*
X509362Y911355D01*
X509299Y911264D01*
X509232Y911175D01*
X509162Y911089D01*
X509089Y911006D01*
X509014Y910924D01*
X508936Y910846D01*
X508854Y910771D01*
X508771Y910698D01*
X508685Y910628D01*
X508596Y910561D01*
X508505Y910498D01*
X508412Y910437D01*
X508318Y910380D01*
X508221Y910327D01*
X508122Y910276D01*
X508021Y910229D01*
X507919Y910186D01*
X507816Y910146D01*
X507711Y910110D01*
X507605Y910078D01*
X507498Y910049D01*
X507390Y910024D01*
X507281Y910003D01*
X507172Y909986D01*
X507062Y909972D01*
X506951Y909963D01*
X506841Y909957D01*
X506730Y909955D01*
X503555Y909955D01*
X507365Y909955D02*
X509905Y904875D01*
X514902Y913765D02*
X518077Y916305D01*
X518077Y904875D01*
X514902Y904875D02*
X521252Y904875D01*
D10*
X425450Y880110D02*
X425448Y880010D01*
X425442Y879911D01*
X425432Y879811D01*
X425419Y879713D01*
X425401Y879614D01*
X425380Y879517D01*
X425355Y879421D01*
X425326Y879325D01*
X425293Y879231D01*
X425257Y879138D01*
X425217Y879047D01*
X425173Y878957D01*
X425126Y878869D01*
X425076Y878783D01*
X425022Y878699D01*
X424965Y878617D01*
X424905Y878538D01*
X424841Y878460D01*
X424775Y878386D01*
X424706Y878314D01*
X424634Y878245D01*
X424560Y878179D01*
X424482Y878115D01*
X424403Y878055D01*
X424321Y877998D01*
X424237Y877944D01*
X424151Y877894D01*
X424063Y877847D01*
X423973Y877803D01*
X423882Y877763D01*
X423789Y877727D01*
X423695Y877694D01*
X423599Y877665D01*
X423503Y877640D01*
X423406Y877619D01*
X423307Y877601D01*
X423209Y877588D01*
X423109Y877578D01*
X423010Y877572D01*
X422910Y877570D01*
X425450Y897890D02*
X425448Y897990D01*
X425442Y898089D01*
X425432Y898189D01*
X425419Y898287D01*
X425401Y898386D01*
X425380Y898483D01*
X425355Y898579D01*
X425326Y898675D01*
X425293Y898769D01*
X425257Y898862D01*
X425217Y898953D01*
X425173Y899043D01*
X425126Y899131D01*
X425076Y899217D01*
X425022Y899301D01*
X424965Y899383D01*
X424905Y899462D01*
X424841Y899540D01*
X424775Y899614D01*
X424706Y899686D01*
X424634Y899755D01*
X424560Y899821D01*
X424482Y899885D01*
X424403Y899945D01*
X424321Y900002D01*
X424237Y900056D01*
X424151Y900106D01*
X424063Y900153D01*
X423973Y900197D01*
X423882Y900237D01*
X423789Y900273D01*
X423695Y900306D01*
X423599Y900335D01*
X423503Y900360D01*
X423406Y900381D01*
X423307Y900399D01*
X423209Y900412D01*
X423109Y900422D01*
X423010Y900428D01*
X422910Y900430D01*
X364490Y900430D02*
X364390Y900428D01*
X364291Y900422D01*
X364191Y900412D01*
X364093Y900399D01*
X363994Y900381D01*
X363897Y900360D01*
X363801Y900335D01*
X363705Y900306D01*
X363611Y900273D01*
X363518Y900237D01*
X363427Y900197D01*
X363337Y900153D01*
X363249Y900106D01*
X363163Y900056D01*
X363079Y900002D01*
X362997Y899945D01*
X362918Y899885D01*
X362840Y899821D01*
X362766Y899755D01*
X362694Y899686D01*
X362625Y899614D01*
X362559Y899540D01*
X362495Y899462D01*
X362435Y899383D01*
X362378Y899301D01*
X362324Y899217D01*
X362274Y899131D01*
X362227Y899043D01*
X362183Y898953D01*
X362143Y898862D01*
X362107Y898769D01*
X362074Y898675D01*
X362045Y898579D01*
X362020Y898483D01*
X361999Y898386D01*
X361981Y898287D01*
X361968Y898189D01*
X361958Y898089D01*
X361952Y897990D01*
X361950Y897890D01*
X361950Y880110D02*
X361952Y880010D01*
X361958Y879911D01*
X361968Y879811D01*
X361981Y879713D01*
X361999Y879614D01*
X362020Y879517D01*
X362045Y879421D01*
X362074Y879325D01*
X362107Y879231D01*
X362143Y879138D01*
X362183Y879047D01*
X362227Y878957D01*
X362274Y878869D01*
X362324Y878783D01*
X362378Y878699D01*
X362435Y878617D01*
X362495Y878538D01*
X362559Y878460D01*
X362625Y878386D01*
X362694Y878314D01*
X362766Y878245D01*
X362840Y878179D01*
X362918Y878115D01*
X362997Y878055D01*
X363079Y877998D01*
X363163Y877944D01*
X363249Y877894D01*
X363337Y877847D01*
X363427Y877803D01*
X363518Y877763D01*
X363611Y877727D01*
X363705Y877694D01*
X363801Y877665D01*
X363897Y877640D01*
X363994Y877619D01*
X364093Y877601D01*
X364191Y877588D01*
X364291Y877578D01*
X364390Y877572D01*
X364490Y877570D01*
X425450Y880110D02*
X425450Y897890D01*
X422910Y877570D02*
X419100Y877570D01*
X417830Y878840D01*
X419100Y900430D02*
X422910Y900430D01*
X419100Y900430D02*
X417830Y899160D01*
X369570Y878840D02*
X368300Y877570D01*
X369570Y878840D02*
X417830Y878840D01*
X369570Y899160D02*
X368300Y900430D01*
X369570Y899160D02*
X417830Y899160D01*
X368300Y877570D02*
X364490Y877570D01*
X364490Y900430D02*
X368300Y900430D01*
X361950Y897890D02*
X361950Y880110D01*
D15*
X357632Y889000D03*
X429768Y889000D03*
D12*
X405848Y873125D02*
X405848Y861695D01*
X405848Y873125D02*
X409023Y873125D01*
X409134Y873123D01*
X409244Y873117D01*
X409355Y873108D01*
X409465Y873094D01*
X409574Y873077D01*
X409683Y873056D01*
X409791Y873031D01*
X409898Y873002D01*
X410004Y872970D01*
X410109Y872934D01*
X410212Y872894D01*
X410314Y872851D01*
X410415Y872804D01*
X410514Y872753D01*
X410611Y872700D01*
X410705Y872643D01*
X410798Y872582D01*
X410889Y872519D01*
X410978Y872452D01*
X411064Y872382D01*
X411147Y872309D01*
X411229Y872234D01*
X411307Y872156D01*
X411382Y872074D01*
X411455Y871991D01*
X411525Y871905D01*
X411592Y871816D01*
X411655Y871725D01*
X411716Y871632D01*
X411773Y871537D01*
X411826Y871441D01*
X411877Y871342D01*
X411924Y871241D01*
X411967Y871139D01*
X412007Y871036D01*
X412043Y870931D01*
X412075Y870825D01*
X412104Y870718D01*
X412129Y870610D01*
X412150Y870501D01*
X412167Y870392D01*
X412181Y870282D01*
X412190Y870171D01*
X412196Y870061D01*
X412198Y869950D01*
X412196Y869839D01*
X412190Y869729D01*
X412181Y869618D01*
X412167Y869508D01*
X412150Y869399D01*
X412129Y869290D01*
X412104Y869182D01*
X412075Y869075D01*
X412043Y868969D01*
X412007Y868864D01*
X411967Y868761D01*
X411924Y868659D01*
X411877Y868558D01*
X411826Y868459D01*
X411773Y868363D01*
X411716Y868268D01*
X411655Y868175D01*
X411592Y868084D01*
X411525Y867995D01*
X411455Y867909D01*
X411382Y867826D01*
X411307Y867744D01*
X411229Y867666D01*
X411147Y867591D01*
X411064Y867518D01*
X410978Y867448D01*
X410889Y867381D01*
X410798Y867318D01*
X410705Y867257D01*
X410611Y867200D01*
X410514Y867147D01*
X410415Y867096D01*
X410314Y867049D01*
X410212Y867006D01*
X410109Y866966D01*
X410004Y866930D01*
X409898Y866898D01*
X409791Y866869D01*
X409683Y866844D01*
X409574Y866823D01*
X409465Y866806D01*
X409355Y866792D01*
X409244Y866783D01*
X409134Y866777D01*
X409023Y866775D01*
X405848Y866775D01*
X409658Y866775D02*
X412198Y861695D01*
X423546Y870268D02*
X423544Y870372D01*
X423538Y870477D01*
X423529Y870581D01*
X423516Y870684D01*
X423498Y870787D01*
X423478Y870889D01*
X423453Y870991D01*
X423425Y871091D01*
X423393Y871191D01*
X423357Y871289D01*
X423318Y871386D01*
X423276Y871481D01*
X423230Y871575D01*
X423180Y871667D01*
X423128Y871757D01*
X423072Y871845D01*
X423012Y871931D01*
X422950Y872015D01*
X422885Y872096D01*
X422817Y872175D01*
X422745Y872252D01*
X422672Y872325D01*
X422595Y872397D01*
X422516Y872465D01*
X422435Y872530D01*
X422351Y872592D01*
X422265Y872652D01*
X422177Y872708D01*
X422087Y872760D01*
X421995Y872810D01*
X421901Y872856D01*
X421806Y872898D01*
X421709Y872937D01*
X421611Y872973D01*
X421511Y873005D01*
X421411Y873033D01*
X421309Y873058D01*
X421207Y873078D01*
X421104Y873096D01*
X421001Y873109D01*
X420897Y873118D01*
X420792Y873124D01*
X420688Y873126D01*
X420688Y873125D02*
X420570Y873123D01*
X420451Y873117D01*
X420333Y873108D01*
X420216Y873095D01*
X420099Y873077D01*
X419982Y873057D01*
X419866Y873032D01*
X419751Y873004D01*
X419638Y872971D01*
X419525Y872936D01*
X419413Y872896D01*
X419303Y872854D01*
X419194Y872807D01*
X419086Y872757D01*
X418981Y872704D01*
X418877Y872647D01*
X418775Y872587D01*
X418675Y872524D01*
X418577Y872457D01*
X418481Y872388D01*
X418388Y872315D01*
X418297Y872239D01*
X418208Y872161D01*
X418122Y872079D01*
X418039Y871995D01*
X417958Y871909D01*
X417881Y871819D01*
X417806Y871728D01*
X417734Y871634D01*
X417665Y871537D01*
X417600Y871439D01*
X417537Y871338D01*
X417478Y871235D01*
X417422Y871131D01*
X417370Y871025D01*
X417321Y870917D01*
X417276Y870808D01*
X417234Y870697D01*
X417196Y870585D01*
X422593Y868046D02*
X422669Y868121D01*
X422744Y868200D01*
X422815Y868281D01*
X422884Y868365D01*
X422949Y868451D01*
X423011Y868539D01*
X423071Y868629D01*
X423127Y868721D01*
X423180Y868816D01*
X423229Y868912D01*
X423275Y869010D01*
X423318Y869109D01*
X423357Y869210D01*
X423392Y869312D01*
X423424Y869415D01*
X423452Y869519D01*
X423477Y869624D01*
X423498Y869731D01*
X423515Y869837D01*
X423528Y869944D01*
X423537Y870052D01*
X423543Y870160D01*
X423545Y870268D01*
X422593Y868045D02*
X417195Y861695D01*
X423545Y861695D01*
D10*
X471170Y758190D02*
X471172Y758090D01*
X471178Y757991D01*
X471188Y757891D01*
X471201Y757793D01*
X471219Y757694D01*
X471240Y757597D01*
X471265Y757501D01*
X471294Y757405D01*
X471327Y757311D01*
X471363Y757218D01*
X471403Y757127D01*
X471447Y757037D01*
X471494Y756949D01*
X471544Y756863D01*
X471598Y756779D01*
X471655Y756697D01*
X471715Y756618D01*
X471779Y756540D01*
X471845Y756466D01*
X471914Y756394D01*
X471986Y756325D01*
X472060Y756259D01*
X472138Y756195D01*
X472217Y756135D01*
X472299Y756078D01*
X472383Y756024D01*
X472469Y755974D01*
X472557Y755927D01*
X472647Y755883D01*
X472738Y755843D01*
X472831Y755807D01*
X472925Y755774D01*
X473021Y755745D01*
X473117Y755720D01*
X473214Y755699D01*
X473313Y755681D01*
X473411Y755668D01*
X473511Y755658D01*
X473610Y755652D01*
X473710Y755650D01*
X491490Y755650D02*
X491590Y755652D01*
X491689Y755658D01*
X491789Y755668D01*
X491887Y755681D01*
X491986Y755699D01*
X492083Y755720D01*
X492179Y755745D01*
X492275Y755774D01*
X492369Y755807D01*
X492462Y755843D01*
X492553Y755883D01*
X492643Y755927D01*
X492731Y755974D01*
X492817Y756024D01*
X492901Y756078D01*
X492983Y756135D01*
X493062Y756195D01*
X493140Y756259D01*
X493214Y756325D01*
X493286Y756394D01*
X493355Y756466D01*
X493421Y756540D01*
X493485Y756618D01*
X493545Y756697D01*
X493602Y756779D01*
X493656Y756863D01*
X493706Y756949D01*
X493753Y757037D01*
X493797Y757127D01*
X493837Y757218D01*
X493873Y757311D01*
X493906Y757405D01*
X493935Y757501D01*
X493960Y757597D01*
X493981Y757694D01*
X493999Y757793D01*
X494012Y757891D01*
X494022Y757991D01*
X494028Y758090D01*
X494030Y758190D01*
X494030Y816610D02*
X494028Y816710D01*
X494022Y816809D01*
X494012Y816909D01*
X493999Y817007D01*
X493981Y817106D01*
X493960Y817203D01*
X493935Y817299D01*
X493906Y817395D01*
X493873Y817489D01*
X493837Y817582D01*
X493797Y817673D01*
X493753Y817763D01*
X493706Y817851D01*
X493656Y817937D01*
X493602Y818021D01*
X493545Y818103D01*
X493485Y818182D01*
X493421Y818260D01*
X493355Y818334D01*
X493286Y818406D01*
X493214Y818475D01*
X493140Y818541D01*
X493062Y818605D01*
X492983Y818665D01*
X492901Y818722D01*
X492817Y818776D01*
X492731Y818826D01*
X492643Y818873D01*
X492553Y818917D01*
X492462Y818957D01*
X492369Y818993D01*
X492275Y819026D01*
X492179Y819055D01*
X492083Y819080D01*
X491986Y819101D01*
X491887Y819119D01*
X491789Y819132D01*
X491689Y819142D01*
X491590Y819148D01*
X491490Y819150D01*
X473710Y819150D02*
X473610Y819148D01*
X473511Y819142D01*
X473411Y819132D01*
X473313Y819119D01*
X473214Y819101D01*
X473117Y819080D01*
X473021Y819055D01*
X472925Y819026D01*
X472831Y818993D01*
X472738Y818957D01*
X472647Y818917D01*
X472557Y818873D01*
X472469Y818826D01*
X472383Y818776D01*
X472299Y818722D01*
X472217Y818665D01*
X472138Y818605D01*
X472060Y818541D01*
X471986Y818475D01*
X471914Y818406D01*
X471845Y818334D01*
X471779Y818260D01*
X471715Y818182D01*
X471655Y818103D01*
X471598Y818021D01*
X471544Y817937D01*
X471494Y817851D01*
X471447Y817763D01*
X471403Y817673D01*
X471363Y817582D01*
X471327Y817489D01*
X471294Y817395D01*
X471265Y817299D01*
X471240Y817203D01*
X471219Y817106D01*
X471201Y817007D01*
X471188Y816909D01*
X471178Y816809D01*
X471172Y816710D01*
X471170Y816610D01*
X473710Y755650D02*
X491490Y755650D01*
X471170Y758190D02*
X471170Y762000D01*
X472440Y763270D01*
X494030Y762000D02*
X494030Y758190D01*
X494030Y762000D02*
X492760Y763270D01*
X472440Y811530D02*
X471170Y812800D01*
X472440Y811530D02*
X472440Y763270D01*
X492760Y811530D02*
X494030Y812800D01*
X492760Y811530D02*
X492760Y763270D01*
X471170Y812800D02*
X471170Y816610D01*
X494030Y816610D02*
X494030Y812800D01*
X491490Y819150D02*
X473710Y819150D01*
D16*
X482600Y823468D03*
X482600Y751332D03*
D12*
X471805Y761448D02*
X460375Y761448D01*
X460375Y764623D01*
X460377Y764734D01*
X460383Y764844D01*
X460392Y764955D01*
X460406Y765065D01*
X460423Y765174D01*
X460444Y765283D01*
X460469Y765391D01*
X460498Y765498D01*
X460530Y765604D01*
X460566Y765709D01*
X460606Y765812D01*
X460649Y765914D01*
X460696Y766015D01*
X460747Y766114D01*
X460800Y766211D01*
X460857Y766305D01*
X460918Y766398D01*
X460981Y766489D01*
X461048Y766578D01*
X461118Y766664D01*
X461191Y766747D01*
X461266Y766829D01*
X461344Y766907D01*
X461426Y766982D01*
X461509Y767055D01*
X461595Y767125D01*
X461684Y767192D01*
X461775Y767255D01*
X461868Y767316D01*
X461963Y767373D01*
X462059Y767426D01*
X462158Y767477D01*
X462259Y767524D01*
X462361Y767567D01*
X462464Y767607D01*
X462569Y767643D01*
X462675Y767675D01*
X462782Y767704D01*
X462890Y767729D01*
X462999Y767750D01*
X463108Y767767D01*
X463218Y767781D01*
X463329Y767790D01*
X463439Y767796D01*
X463550Y767798D01*
X463661Y767796D01*
X463771Y767790D01*
X463882Y767781D01*
X463992Y767767D01*
X464101Y767750D01*
X464210Y767729D01*
X464318Y767704D01*
X464425Y767675D01*
X464531Y767643D01*
X464636Y767607D01*
X464739Y767567D01*
X464841Y767524D01*
X464942Y767477D01*
X465041Y767426D01*
X465138Y767373D01*
X465232Y767316D01*
X465325Y767255D01*
X465416Y767192D01*
X465505Y767125D01*
X465591Y767055D01*
X465674Y766982D01*
X465756Y766907D01*
X465834Y766829D01*
X465909Y766747D01*
X465982Y766664D01*
X466052Y766578D01*
X466119Y766489D01*
X466182Y766398D01*
X466243Y766305D01*
X466300Y766211D01*
X466353Y766114D01*
X466404Y766015D01*
X466451Y765914D01*
X466494Y765812D01*
X466534Y765709D01*
X466570Y765604D01*
X466602Y765498D01*
X466631Y765391D01*
X466656Y765283D01*
X466677Y765174D01*
X466694Y765065D01*
X466708Y764955D01*
X466717Y764844D01*
X466723Y764734D01*
X466725Y764623D01*
X466725Y761448D01*
X466725Y765258D02*
X471805Y767798D01*
X471805Y772795D02*
X471805Y775970D01*
X471803Y776081D01*
X471797Y776191D01*
X471788Y776302D01*
X471774Y776412D01*
X471757Y776521D01*
X471736Y776630D01*
X471711Y776738D01*
X471682Y776845D01*
X471650Y776951D01*
X471614Y777056D01*
X471574Y777159D01*
X471531Y777261D01*
X471484Y777362D01*
X471433Y777461D01*
X471380Y777558D01*
X471323Y777652D01*
X471262Y777745D01*
X471199Y777836D01*
X471132Y777925D01*
X471062Y778011D01*
X470989Y778094D01*
X470914Y778176D01*
X470836Y778254D01*
X470754Y778329D01*
X470671Y778402D01*
X470585Y778472D01*
X470496Y778539D01*
X470405Y778602D01*
X470312Y778663D01*
X470218Y778720D01*
X470121Y778773D01*
X470022Y778824D01*
X469921Y778871D01*
X469819Y778914D01*
X469716Y778954D01*
X469611Y778990D01*
X469505Y779022D01*
X469398Y779051D01*
X469290Y779076D01*
X469181Y779097D01*
X469072Y779114D01*
X468962Y779128D01*
X468851Y779137D01*
X468741Y779143D01*
X468630Y779145D01*
X468519Y779143D01*
X468409Y779137D01*
X468298Y779128D01*
X468188Y779114D01*
X468079Y779097D01*
X467970Y779076D01*
X467862Y779051D01*
X467755Y779022D01*
X467649Y778990D01*
X467544Y778954D01*
X467441Y778914D01*
X467339Y778871D01*
X467238Y778824D01*
X467139Y778773D01*
X467043Y778720D01*
X466948Y778663D01*
X466855Y778602D01*
X466764Y778539D01*
X466675Y778472D01*
X466589Y778402D01*
X466506Y778329D01*
X466424Y778254D01*
X466346Y778176D01*
X466271Y778094D01*
X466198Y778011D01*
X466128Y777925D01*
X466061Y777836D01*
X465998Y777745D01*
X465937Y777652D01*
X465880Y777558D01*
X465827Y777461D01*
X465776Y777362D01*
X465729Y777261D01*
X465686Y777159D01*
X465646Y777056D01*
X465610Y776951D01*
X465578Y776845D01*
X465549Y776738D01*
X465524Y776630D01*
X465503Y776521D01*
X465486Y776412D01*
X465472Y776302D01*
X465463Y776191D01*
X465457Y776081D01*
X465455Y775970D01*
X460375Y776605D02*
X460375Y772795D01*
X460375Y776605D02*
X460377Y776705D01*
X460383Y776804D01*
X460393Y776904D01*
X460406Y777002D01*
X460424Y777101D01*
X460445Y777198D01*
X460470Y777294D01*
X460499Y777390D01*
X460532Y777484D01*
X460568Y777577D01*
X460608Y777668D01*
X460652Y777758D01*
X460699Y777846D01*
X460749Y777932D01*
X460803Y778016D01*
X460860Y778098D01*
X460920Y778177D01*
X460984Y778255D01*
X461050Y778329D01*
X461119Y778401D01*
X461191Y778470D01*
X461265Y778536D01*
X461343Y778600D01*
X461422Y778660D01*
X461504Y778717D01*
X461588Y778771D01*
X461674Y778821D01*
X461762Y778868D01*
X461852Y778912D01*
X461943Y778952D01*
X462036Y778988D01*
X462130Y779021D01*
X462226Y779050D01*
X462322Y779075D01*
X462419Y779096D01*
X462518Y779114D01*
X462616Y779127D01*
X462716Y779137D01*
X462815Y779143D01*
X462915Y779145D01*
X463015Y779143D01*
X463114Y779137D01*
X463214Y779127D01*
X463312Y779114D01*
X463411Y779096D01*
X463508Y779075D01*
X463604Y779050D01*
X463700Y779021D01*
X463794Y778988D01*
X463887Y778952D01*
X463978Y778912D01*
X464068Y778868D01*
X464156Y778821D01*
X464242Y778771D01*
X464326Y778717D01*
X464408Y778660D01*
X464487Y778600D01*
X464565Y778536D01*
X464639Y778470D01*
X464711Y778401D01*
X464780Y778329D01*
X464846Y778255D01*
X464910Y778177D01*
X464970Y778098D01*
X465027Y778016D01*
X465081Y777932D01*
X465131Y777846D01*
X465178Y777758D01*
X465222Y777668D01*
X465262Y777577D01*
X465298Y777484D01*
X465331Y777390D01*
X465360Y777294D01*
X465385Y777198D01*
X465406Y777101D01*
X465424Y777002D01*
X465437Y776904D01*
X465447Y776804D01*
X465453Y776705D01*
X465455Y776605D01*
X465455Y774065D01*
D10*
X572770Y758190D02*
X572772Y758090D01*
X572778Y757991D01*
X572788Y757891D01*
X572801Y757793D01*
X572819Y757694D01*
X572840Y757597D01*
X572865Y757501D01*
X572894Y757405D01*
X572927Y757311D01*
X572963Y757218D01*
X573003Y757127D01*
X573047Y757037D01*
X573094Y756949D01*
X573144Y756863D01*
X573198Y756779D01*
X573255Y756697D01*
X573315Y756618D01*
X573379Y756540D01*
X573445Y756466D01*
X573514Y756394D01*
X573586Y756325D01*
X573660Y756259D01*
X573738Y756195D01*
X573817Y756135D01*
X573899Y756078D01*
X573983Y756024D01*
X574069Y755974D01*
X574157Y755927D01*
X574247Y755883D01*
X574338Y755843D01*
X574431Y755807D01*
X574525Y755774D01*
X574621Y755745D01*
X574717Y755720D01*
X574814Y755699D01*
X574913Y755681D01*
X575011Y755668D01*
X575111Y755658D01*
X575210Y755652D01*
X575310Y755650D01*
X593090Y755650D02*
X593190Y755652D01*
X593289Y755658D01*
X593389Y755668D01*
X593487Y755681D01*
X593586Y755699D01*
X593683Y755720D01*
X593779Y755745D01*
X593875Y755774D01*
X593969Y755807D01*
X594062Y755843D01*
X594153Y755883D01*
X594243Y755927D01*
X594331Y755974D01*
X594417Y756024D01*
X594501Y756078D01*
X594583Y756135D01*
X594662Y756195D01*
X594740Y756259D01*
X594814Y756325D01*
X594886Y756394D01*
X594955Y756466D01*
X595021Y756540D01*
X595085Y756618D01*
X595145Y756697D01*
X595202Y756779D01*
X595256Y756863D01*
X595306Y756949D01*
X595353Y757037D01*
X595397Y757127D01*
X595437Y757218D01*
X595473Y757311D01*
X595506Y757405D01*
X595535Y757501D01*
X595560Y757597D01*
X595581Y757694D01*
X595599Y757793D01*
X595612Y757891D01*
X595622Y757991D01*
X595628Y758090D01*
X595630Y758190D01*
X595630Y816610D02*
X595628Y816710D01*
X595622Y816809D01*
X595612Y816909D01*
X595599Y817007D01*
X595581Y817106D01*
X595560Y817203D01*
X595535Y817299D01*
X595506Y817395D01*
X595473Y817489D01*
X595437Y817582D01*
X595397Y817673D01*
X595353Y817763D01*
X595306Y817851D01*
X595256Y817937D01*
X595202Y818021D01*
X595145Y818103D01*
X595085Y818182D01*
X595021Y818260D01*
X594955Y818334D01*
X594886Y818406D01*
X594814Y818475D01*
X594740Y818541D01*
X594662Y818605D01*
X594583Y818665D01*
X594501Y818722D01*
X594417Y818776D01*
X594331Y818826D01*
X594243Y818873D01*
X594153Y818917D01*
X594062Y818957D01*
X593969Y818993D01*
X593875Y819026D01*
X593779Y819055D01*
X593683Y819080D01*
X593586Y819101D01*
X593487Y819119D01*
X593389Y819132D01*
X593289Y819142D01*
X593190Y819148D01*
X593090Y819150D01*
X575310Y819150D02*
X575210Y819148D01*
X575111Y819142D01*
X575011Y819132D01*
X574913Y819119D01*
X574814Y819101D01*
X574717Y819080D01*
X574621Y819055D01*
X574525Y819026D01*
X574431Y818993D01*
X574338Y818957D01*
X574247Y818917D01*
X574157Y818873D01*
X574069Y818826D01*
X573983Y818776D01*
X573899Y818722D01*
X573817Y818665D01*
X573738Y818605D01*
X573660Y818541D01*
X573586Y818475D01*
X573514Y818406D01*
X573445Y818334D01*
X573379Y818260D01*
X573315Y818182D01*
X573255Y818103D01*
X573198Y818021D01*
X573144Y817937D01*
X573094Y817851D01*
X573047Y817763D01*
X573003Y817673D01*
X572963Y817582D01*
X572927Y817489D01*
X572894Y817395D01*
X572865Y817299D01*
X572840Y817203D01*
X572819Y817106D01*
X572801Y817007D01*
X572788Y816909D01*
X572778Y816809D01*
X572772Y816710D01*
X572770Y816610D01*
X575310Y755650D02*
X593090Y755650D01*
X572770Y758190D02*
X572770Y762000D01*
X574040Y763270D01*
X595630Y762000D02*
X595630Y758190D01*
X595630Y762000D02*
X594360Y763270D01*
X574040Y811530D02*
X572770Y812800D01*
X574040Y811530D02*
X574040Y763270D01*
X594360Y811530D02*
X595630Y812800D01*
X594360Y811530D02*
X594360Y763270D01*
X572770Y812800D02*
X572770Y816610D01*
X595630Y816610D02*
X595630Y812800D01*
X593090Y819150D02*
X575310Y819150D01*
D16*
X584200Y823468D03*
X584200Y751332D03*
D12*
X568325Y757555D02*
X556895Y757555D01*
X556895Y760730D01*
X556897Y760841D01*
X556903Y760951D01*
X556912Y761062D01*
X556926Y761172D01*
X556943Y761281D01*
X556964Y761390D01*
X556989Y761498D01*
X557018Y761605D01*
X557050Y761711D01*
X557086Y761816D01*
X557126Y761919D01*
X557169Y762021D01*
X557216Y762122D01*
X557267Y762221D01*
X557320Y762318D01*
X557377Y762412D01*
X557438Y762505D01*
X557501Y762596D01*
X557568Y762685D01*
X557638Y762771D01*
X557711Y762854D01*
X557786Y762936D01*
X557864Y763014D01*
X557946Y763089D01*
X558029Y763162D01*
X558115Y763232D01*
X558204Y763299D01*
X558295Y763362D01*
X558388Y763423D01*
X558483Y763480D01*
X558579Y763533D01*
X558678Y763584D01*
X558779Y763631D01*
X558881Y763674D01*
X558984Y763714D01*
X559089Y763750D01*
X559195Y763782D01*
X559302Y763811D01*
X559410Y763836D01*
X559519Y763857D01*
X559628Y763874D01*
X559738Y763888D01*
X559849Y763897D01*
X559959Y763903D01*
X560070Y763905D01*
X560181Y763903D01*
X560291Y763897D01*
X560402Y763888D01*
X560512Y763874D01*
X560621Y763857D01*
X560730Y763836D01*
X560838Y763811D01*
X560945Y763782D01*
X561051Y763750D01*
X561156Y763714D01*
X561259Y763674D01*
X561361Y763631D01*
X561462Y763584D01*
X561561Y763533D01*
X561658Y763480D01*
X561752Y763423D01*
X561845Y763362D01*
X561936Y763299D01*
X562025Y763232D01*
X562111Y763162D01*
X562194Y763089D01*
X562276Y763014D01*
X562354Y762936D01*
X562429Y762854D01*
X562502Y762771D01*
X562572Y762685D01*
X562639Y762596D01*
X562702Y762505D01*
X562763Y762412D01*
X562820Y762318D01*
X562873Y762221D01*
X562924Y762122D01*
X562971Y762021D01*
X563014Y761919D01*
X563054Y761816D01*
X563090Y761711D01*
X563122Y761605D01*
X563151Y761498D01*
X563176Y761390D01*
X563197Y761281D01*
X563214Y761172D01*
X563228Y761062D01*
X563237Y760951D01*
X563243Y760841D01*
X563245Y760730D01*
X563245Y757555D01*
X563245Y761365D02*
X568325Y763905D01*
X565785Y768902D02*
X556895Y771442D01*
X565785Y768902D02*
X565785Y775252D01*
X563245Y773347D02*
X568325Y773347D01*
D17*
X298450Y596900D02*
X292100Y590550D01*
X311150Y596900D02*
X317500Y590550D01*
X292100Y590550D02*
X292100Y527050D01*
X317500Y527050D02*
X317500Y590550D01*
X311150Y520700D02*
X298450Y520700D01*
X292100Y527050D01*
X311150Y520700D02*
X317500Y527050D01*
X311150Y596900D02*
X298450Y596900D01*
D12*
X288854Y521335D02*
X285369Y521335D01*
X288854Y521335D02*
X288925Y521337D01*
X288997Y521343D01*
X289067Y521352D01*
X289137Y521365D01*
X289207Y521382D01*
X289275Y521403D01*
X289342Y521427D01*
X289408Y521455D01*
X289472Y521486D01*
X289535Y521521D01*
X289595Y521559D01*
X289654Y521600D01*
X289710Y521644D01*
X289764Y521691D01*
X289815Y521740D01*
X289863Y521793D01*
X289909Y521848D01*
X289951Y521905D01*
X289991Y521965D01*
X290027Y522026D01*
X290060Y522090D01*
X290089Y522155D01*
X290115Y522221D01*
X290138Y522289D01*
X290157Y522358D01*
X290172Y522428D01*
X290183Y522498D01*
X290191Y522569D01*
X290195Y522640D01*
X290195Y522712D01*
X290191Y522783D01*
X290183Y522854D01*
X290172Y522924D01*
X290157Y522994D01*
X290138Y523063D01*
X290115Y523131D01*
X290089Y523197D01*
X290060Y523262D01*
X290027Y523326D01*
X289991Y523387D01*
X289951Y523447D01*
X289909Y523504D01*
X289863Y523559D01*
X289815Y523612D01*
X289764Y523661D01*
X289710Y523708D01*
X289654Y523752D01*
X289595Y523793D01*
X289535Y523831D01*
X289472Y523866D01*
X289408Y523897D01*
X289342Y523925D01*
X289275Y523949D01*
X289207Y523970D01*
X289137Y523987D01*
X289067Y524000D01*
X288997Y524009D01*
X288925Y524015D01*
X288854Y524017D01*
X288854Y524016D02*
X285369Y524016D01*
X285369Y527979D02*
X290195Y527979D01*
X287782Y527979D02*
X287380Y527309D01*
X287350Y527262D01*
X287316Y527218D01*
X287280Y527176D01*
X287241Y527137D01*
X287200Y527100D01*
X287155Y527067D01*
X287109Y527037D01*
X287061Y527009D01*
X287011Y526986D01*
X286959Y526966D01*
X286906Y526949D01*
X286853Y526936D01*
X286798Y526927D01*
X286743Y526922D01*
X286687Y526920D01*
X286632Y526922D01*
X286577Y526928D01*
X286523Y526938D01*
X286469Y526952D01*
X286416Y526969D01*
X286365Y526990D01*
X286315Y527015D01*
X286267Y527042D01*
X286222Y527073D01*
X286178Y527108D01*
X286137Y527145D01*
X286098Y527184D01*
X286063Y527227D01*
X286030Y527272D01*
X286000Y527318D01*
X285974Y527367D01*
X285952Y527418D01*
X285932Y527470D01*
X285917Y527523D01*
X285905Y527577D01*
X285906Y527577D02*
X285891Y527666D01*
X285881Y527756D01*
X285874Y527845D01*
X285871Y527936D01*
X285872Y528026D01*
X285877Y528116D01*
X285885Y528205D01*
X285898Y528295D01*
X285914Y528383D01*
X285934Y528471D01*
X285957Y528558D01*
X285984Y528644D01*
X286015Y528729D01*
X286050Y528812D01*
X286088Y528894D01*
X286129Y528974D01*
X286174Y529052D01*
X287782Y527979D02*
X288184Y528649D01*
X288214Y528696D01*
X288248Y528740D01*
X288284Y528782D01*
X288323Y528821D01*
X288364Y528858D01*
X288409Y528891D01*
X288455Y528921D01*
X288503Y528949D01*
X288553Y528972D01*
X288605Y528992D01*
X288658Y529009D01*
X288711Y529022D01*
X288766Y529031D01*
X288821Y529036D01*
X288877Y529038D01*
X288932Y529036D01*
X288987Y529030D01*
X289041Y529020D01*
X289095Y529006D01*
X289148Y528989D01*
X289199Y528968D01*
X289249Y528943D01*
X289297Y528916D01*
X289343Y528885D01*
X289386Y528850D01*
X289427Y528813D01*
X289466Y528774D01*
X289501Y528731D01*
X289534Y528686D01*
X289564Y528639D01*
X289590Y528591D01*
X289612Y528540D01*
X289632Y528488D01*
X289647Y528435D01*
X289659Y528381D01*
X289658Y528381D02*
X289673Y528292D01*
X289683Y528202D01*
X289690Y528112D01*
X289693Y528022D01*
X289692Y527932D01*
X289687Y527842D01*
X289679Y527753D01*
X289666Y527663D01*
X289650Y527575D01*
X289630Y527487D01*
X289607Y527400D01*
X289580Y527314D01*
X289549Y527230D01*
X289514Y527146D01*
X289476Y527065D01*
X289435Y526985D01*
X289390Y526906D01*
X286441Y531759D02*
X285369Y533100D01*
X290195Y533100D01*
X290195Y534440D02*
X290195Y531759D01*
X287782Y537246D02*
X287662Y537248D01*
X287542Y537253D01*
X287422Y537262D01*
X287302Y537275D01*
X287183Y537291D01*
X287064Y537311D01*
X286946Y537335D01*
X286829Y537362D01*
X286713Y537392D01*
X286598Y537426D01*
X286483Y537464D01*
X286370Y537505D01*
X286259Y537549D01*
X286148Y537597D01*
X286039Y537648D01*
X285982Y537669D01*
X285926Y537695D01*
X285871Y537723D01*
X285819Y537755D01*
X285768Y537791D01*
X285720Y537829D01*
X285674Y537870D01*
X285631Y537914D01*
X285591Y537960D01*
X285554Y538009D01*
X285520Y538061D01*
X285489Y538114D01*
X285461Y538169D01*
X285437Y538225D01*
X285416Y538283D01*
X285399Y538342D01*
X285386Y538402D01*
X285377Y538463D01*
X285371Y538525D01*
X285369Y538586D01*
X285371Y538647D01*
X285377Y538709D01*
X285386Y538770D01*
X285399Y538830D01*
X285416Y538889D01*
X285437Y538947D01*
X285461Y539003D01*
X285489Y539058D01*
X285520Y539111D01*
X285554Y539163D01*
X285591Y539212D01*
X285631Y539258D01*
X285674Y539302D01*
X285720Y539343D01*
X285768Y539381D01*
X285819Y539417D01*
X285871Y539449D01*
X285926Y539477D01*
X285982Y539503D01*
X286039Y539524D01*
X286148Y539575D01*
X286259Y539623D01*
X286370Y539667D01*
X286483Y539708D01*
X286598Y539746D01*
X286713Y539780D01*
X286829Y539810D01*
X286946Y539837D01*
X287064Y539861D01*
X287183Y539881D01*
X287302Y539897D01*
X287422Y539910D01*
X287542Y539919D01*
X287662Y539924D01*
X287782Y539926D01*
X287782Y537246D02*
X287902Y537248D01*
X288022Y537253D01*
X288142Y537262D01*
X288262Y537275D01*
X288381Y537291D01*
X288500Y537311D01*
X288618Y537335D01*
X288735Y537362D01*
X288851Y537392D01*
X288966Y537426D01*
X289081Y537464D01*
X289194Y537505D01*
X289305Y537549D01*
X289416Y537597D01*
X289525Y537648D01*
X289582Y537669D01*
X289638Y537695D01*
X289693Y537723D01*
X289745Y537755D01*
X289796Y537791D01*
X289844Y537829D01*
X289890Y537870D01*
X289933Y537914D01*
X289973Y537960D01*
X290010Y538009D01*
X290044Y538061D01*
X290075Y538114D01*
X290103Y538169D01*
X290127Y538225D01*
X290148Y538283D01*
X290165Y538342D01*
X290178Y538402D01*
X290187Y538463D01*
X290193Y538525D01*
X290195Y538586D01*
X289525Y539524D02*
X289416Y539575D01*
X289305Y539623D01*
X289194Y539667D01*
X289081Y539708D01*
X288966Y539746D01*
X288851Y539780D01*
X288735Y539810D01*
X288618Y539837D01*
X288500Y539861D01*
X288381Y539881D01*
X288262Y539897D01*
X288142Y539910D01*
X288022Y539919D01*
X287902Y539924D01*
X287782Y539926D01*
X289525Y539524D02*
X289582Y539503D01*
X289638Y539477D01*
X289693Y539449D01*
X289745Y539417D01*
X289796Y539381D01*
X289844Y539343D01*
X289890Y539302D01*
X289933Y539258D01*
X289973Y539211D01*
X290010Y539163D01*
X290044Y539111D01*
X290075Y539058D01*
X290103Y539003D01*
X290127Y538947D01*
X290148Y538889D01*
X290165Y538830D01*
X290178Y538770D01*
X290187Y538709D01*
X290193Y538647D01*
X290195Y538586D01*
X289123Y537514D02*
X286441Y539658D01*
X788035Y993846D02*
X788035Y997331D01*
X788035Y993846D02*
X788037Y993775D01*
X788043Y993703D01*
X788052Y993633D01*
X788065Y993563D01*
X788082Y993493D01*
X788103Y993425D01*
X788127Y993358D01*
X788155Y993292D01*
X788186Y993228D01*
X788221Y993165D01*
X788259Y993105D01*
X788300Y993046D01*
X788344Y992990D01*
X788391Y992936D01*
X788440Y992885D01*
X788493Y992837D01*
X788548Y992791D01*
X788605Y992749D01*
X788665Y992709D01*
X788726Y992673D01*
X788790Y992640D01*
X788855Y992611D01*
X788921Y992585D01*
X788989Y992562D01*
X789058Y992543D01*
X789128Y992528D01*
X789198Y992517D01*
X789269Y992509D01*
X789340Y992505D01*
X789412Y992505D01*
X789483Y992509D01*
X789554Y992517D01*
X789624Y992528D01*
X789694Y992543D01*
X789763Y992562D01*
X789831Y992585D01*
X789897Y992611D01*
X789962Y992640D01*
X790026Y992673D01*
X790087Y992709D01*
X790147Y992749D01*
X790204Y992791D01*
X790259Y992837D01*
X790312Y992885D01*
X790361Y992936D01*
X790408Y992990D01*
X790452Y993046D01*
X790493Y993105D01*
X790531Y993165D01*
X790566Y993228D01*
X790597Y993292D01*
X790625Y993358D01*
X790649Y993425D01*
X790670Y993493D01*
X790687Y993563D01*
X790700Y993633D01*
X790709Y993703D01*
X790715Y993775D01*
X790717Y993846D01*
X790716Y993846D02*
X790716Y997331D01*
X794679Y997331D02*
X794679Y992505D01*
X794679Y994918D02*
X794009Y995320D01*
X793962Y995350D01*
X793918Y995384D01*
X793876Y995420D01*
X793837Y995459D01*
X793800Y995500D01*
X793767Y995545D01*
X793737Y995591D01*
X793709Y995639D01*
X793686Y995689D01*
X793666Y995741D01*
X793649Y995794D01*
X793636Y995847D01*
X793627Y995902D01*
X793622Y995957D01*
X793620Y996013D01*
X793622Y996068D01*
X793628Y996123D01*
X793638Y996177D01*
X793652Y996231D01*
X793669Y996284D01*
X793690Y996335D01*
X793715Y996385D01*
X793742Y996433D01*
X793773Y996478D01*
X793808Y996522D01*
X793845Y996563D01*
X793884Y996602D01*
X793927Y996637D01*
X793972Y996670D01*
X794018Y996700D01*
X794067Y996726D01*
X794118Y996748D01*
X794170Y996768D01*
X794223Y996783D01*
X794277Y996795D01*
X794277Y996794D02*
X794366Y996809D01*
X794456Y996819D01*
X794546Y996826D01*
X794636Y996829D01*
X794726Y996828D01*
X794816Y996823D01*
X794905Y996815D01*
X794995Y996802D01*
X795083Y996786D01*
X795171Y996766D01*
X795258Y996743D01*
X795344Y996716D01*
X795428Y996685D01*
X795512Y996650D01*
X795593Y996612D01*
X795674Y996571D01*
X795752Y996526D01*
X794679Y994918D02*
X795349Y994516D01*
X795396Y994486D01*
X795440Y994452D01*
X795482Y994416D01*
X795521Y994377D01*
X795558Y994336D01*
X795591Y994291D01*
X795621Y994245D01*
X795649Y994197D01*
X795672Y994147D01*
X795692Y994095D01*
X795709Y994042D01*
X795722Y993989D01*
X795731Y993934D01*
X795736Y993879D01*
X795738Y993823D01*
X795736Y993768D01*
X795730Y993713D01*
X795720Y993659D01*
X795706Y993605D01*
X795689Y993552D01*
X795668Y993501D01*
X795643Y993451D01*
X795616Y993403D01*
X795585Y993357D01*
X795550Y993314D01*
X795513Y993273D01*
X795474Y993234D01*
X795431Y993199D01*
X795386Y993166D01*
X795339Y993136D01*
X795291Y993110D01*
X795240Y993088D01*
X795188Y993068D01*
X795135Y993053D01*
X795081Y993041D01*
X795081Y993042D02*
X794992Y993027D01*
X794902Y993017D01*
X794812Y993010D01*
X794722Y993007D01*
X794632Y993008D01*
X794542Y993013D01*
X794453Y993021D01*
X794363Y993034D01*
X794275Y993050D01*
X794187Y993070D01*
X794100Y993093D01*
X794014Y993120D01*
X793930Y993151D01*
X793846Y993186D01*
X793765Y993224D01*
X793685Y993265D01*
X793606Y993310D01*
X798459Y996259D02*
X799800Y997331D01*
X799800Y992505D01*
X801140Y992505D02*
X798459Y992505D01*
X805420Y997331D02*
X805488Y997329D01*
X805555Y997323D01*
X805622Y997314D01*
X805689Y997301D01*
X805754Y997284D01*
X805819Y997263D01*
X805882Y997239D01*
X805944Y997211D01*
X806004Y997180D01*
X806062Y997146D01*
X806118Y997108D01*
X806173Y997068D01*
X806224Y997024D01*
X806273Y996977D01*
X806320Y996928D01*
X806364Y996877D01*
X806404Y996822D01*
X806442Y996766D01*
X806476Y996708D01*
X806507Y996648D01*
X806535Y996586D01*
X806559Y996523D01*
X806580Y996458D01*
X806597Y996393D01*
X806610Y996326D01*
X806619Y996259D01*
X806625Y996192D01*
X806627Y996124D01*
X805420Y997331D02*
X805342Y997329D01*
X805264Y997323D01*
X805187Y997313D01*
X805110Y997300D01*
X805034Y997282D01*
X804959Y997261D01*
X804885Y997236D01*
X804813Y997207D01*
X804742Y997175D01*
X804673Y997139D01*
X804605Y997100D01*
X804540Y997057D01*
X804477Y997011D01*
X804416Y996962D01*
X804358Y996910D01*
X804303Y996855D01*
X804250Y996798D01*
X804201Y996738D01*
X804154Y996675D01*
X804111Y996611D01*
X804071Y996544D01*
X804034Y996475D01*
X804001Y996404D01*
X803971Y996332D01*
X803945Y996259D01*
X806225Y995186D02*
X806274Y995235D01*
X806321Y995287D01*
X806364Y995342D01*
X806405Y995399D01*
X806443Y995458D01*
X806477Y995519D01*
X806508Y995582D01*
X806536Y995646D01*
X806560Y995712D01*
X806580Y995778D01*
X806597Y995846D01*
X806610Y995915D01*
X806619Y995984D01*
X806625Y996054D01*
X806627Y996124D01*
X806224Y995186D02*
X803945Y992505D01*
X806627Y992505D01*
D18*
X284300Y974000D02*
X284300Y931000D01*
X284300Y974000D02*
X198300Y974000D01*
X198300Y931000D01*
X284300Y931000D01*
X241300Y932500D02*
X241300Y912500D01*
X221300Y912500D01*
X221300Y932500D01*
D14*
X152584Y911992D02*
X152584Y903554D01*
X152583Y903554D02*
X152585Y903441D01*
X152591Y903328D01*
X152601Y903215D01*
X152615Y903102D01*
X152632Y902990D01*
X152654Y902879D01*
X152679Y902769D01*
X152709Y902659D01*
X152742Y902551D01*
X152779Y902444D01*
X152819Y902338D01*
X152864Y902234D01*
X152912Y902131D01*
X152963Y902030D01*
X153018Y901931D01*
X153076Y901834D01*
X153138Y901739D01*
X153203Y901646D01*
X153271Y901556D01*
X153342Y901468D01*
X153417Y901382D01*
X153494Y901299D01*
X153574Y901219D01*
X153657Y901142D01*
X153743Y901067D01*
X153831Y900996D01*
X153921Y900928D01*
X154014Y900863D01*
X154109Y900801D01*
X154206Y900743D01*
X154305Y900688D01*
X154406Y900637D01*
X154509Y900589D01*
X154613Y900544D01*
X154719Y900504D01*
X154826Y900467D01*
X154934Y900434D01*
X155044Y900404D01*
X155154Y900379D01*
X155265Y900357D01*
X155377Y900340D01*
X155490Y900326D01*
X155603Y900316D01*
X155716Y900310D01*
X155829Y900308D01*
X155942Y900310D01*
X156055Y900316D01*
X156168Y900326D01*
X156281Y900340D01*
X156393Y900357D01*
X156504Y900379D01*
X156614Y900404D01*
X156724Y900434D01*
X156832Y900467D01*
X156939Y900504D01*
X157045Y900544D01*
X157149Y900589D01*
X157252Y900637D01*
X157353Y900688D01*
X157452Y900743D01*
X157549Y900801D01*
X157644Y900863D01*
X157737Y900928D01*
X157827Y900996D01*
X157915Y901067D01*
X158001Y901142D01*
X158084Y901219D01*
X158164Y901299D01*
X158241Y901382D01*
X158316Y901468D01*
X158387Y901556D01*
X158455Y901646D01*
X158520Y901739D01*
X158582Y901834D01*
X158640Y901931D01*
X158695Y902030D01*
X158746Y902131D01*
X158794Y902234D01*
X158839Y902338D01*
X158879Y902444D01*
X158916Y902551D01*
X158949Y902659D01*
X158979Y902769D01*
X159004Y902879D01*
X159026Y902990D01*
X159043Y903102D01*
X159057Y903215D01*
X159067Y903328D01*
X159073Y903441D01*
X159075Y903554D01*
X159075Y911992D01*
X166878Y911992D02*
X166878Y900308D01*
X166878Y906150D02*
X165256Y907124D01*
X165255Y907123D02*
X165182Y907170D01*
X165111Y907219D01*
X165041Y907272D01*
X164975Y907328D01*
X164911Y907387D01*
X164849Y907448D01*
X164791Y907512D01*
X164735Y907579D01*
X164683Y907648D01*
X164633Y907720D01*
X164587Y907794D01*
X164544Y907869D01*
X164505Y907947D01*
X164469Y908026D01*
X164437Y908107D01*
X164408Y908189D01*
X164383Y908272D01*
X164362Y908356D01*
X164345Y908441D01*
X164331Y908527D01*
X164322Y908613D01*
X164316Y908700D01*
X164314Y908787D01*
X164316Y908874D01*
X164322Y908961D01*
X164332Y909047D01*
X164345Y909133D01*
X164363Y909218D01*
X164384Y909302D01*
X164409Y909385D01*
X164438Y909468D01*
X164470Y909548D01*
X164506Y909627D01*
X164545Y909705D01*
X164588Y909780D01*
X164635Y909854D01*
X164684Y909925D01*
X164737Y909995D01*
X164792Y910061D01*
X164851Y910125D01*
X164912Y910187D01*
X164977Y910246D01*
X165043Y910301D01*
X165112Y910354D01*
X165184Y910404D01*
X165257Y910450D01*
X165333Y910493D01*
X165410Y910532D01*
X165489Y910568D01*
X165570Y910601D01*
X165652Y910629D01*
X165735Y910655D01*
X165819Y910676D01*
X165905Y910693D01*
X165905Y910694D02*
X166045Y910718D01*
X166187Y910738D01*
X166328Y910754D01*
X166470Y910765D01*
X166613Y910773D01*
X166755Y910777D01*
X166898Y910778D01*
X167041Y910774D01*
X167183Y910766D01*
X167325Y910754D01*
X167467Y910738D01*
X167608Y910719D01*
X167749Y910695D01*
X167889Y910668D01*
X168028Y910636D01*
X168166Y910601D01*
X168304Y910562D01*
X168440Y910519D01*
X168574Y910473D01*
X168708Y910422D01*
X168840Y910369D01*
X168970Y910311D01*
X169099Y910250D01*
X169226Y910185D01*
X169352Y910117D01*
X169475Y910045D01*
X166878Y906150D02*
X168501Y905176D01*
X168502Y905177D02*
X168575Y905130D01*
X168646Y905081D01*
X168716Y905028D01*
X168782Y904972D01*
X168846Y904913D01*
X168908Y904852D01*
X168966Y904788D01*
X169022Y904721D01*
X169074Y904652D01*
X169124Y904580D01*
X169170Y904506D01*
X169213Y904431D01*
X169252Y904353D01*
X169288Y904274D01*
X169320Y904193D01*
X169349Y904111D01*
X169374Y904028D01*
X169395Y903944D01*
X169412Y903859D01*
X169426Y903773D01*
X169435Y903687D01*
X169441Y903600D01*
X169443Y903513D01*
X169441Y903426D01*
X169435Y903339D01*
X169425Y903253D01*
X169412Y903167D01*
X169394Y903082D01*
X169373Y902998D01*
X169348Y902915D01*
X169319Y902832D01*
X169287Y902752D01*
X169251Y902673D01*
X169212Y902595D01*
X169169Y902520D01*
X169122Y902446D01*
X169073Y902375D01*
X169020Y902305D01*
X168965Y902239D01*
X168906Y902175D01*
X168845Y902113D01*
X168780Y902054D01*
X168714Y901999D01*
X168645Y901946D01*
X168573Y901896D01*
X168500Y901850D01*
X168424Y901807D01*
X168347Y901768D01*
X168268Y901732D01*
X168187Y901699D01*
X168105Y901671D01*
X168022Y901645D01*
X167938Y901624D01*
X167853Y901607D01*
X167852Y901606D02*
X167712Y901582D01*
X167570Y901562D01*
X167429Y901546D01*
X167287Y901535D01*
X167144Y901527D01*
X167002Y901523D01*
X166859Y901522D01*
X166716Y901526D01*
X166574Y901534D01*
X166432Y901546D01*
X166290Y901562D01*
X166149Y901581D01*
X166008Y901605D01*
X165868Y901632D01*
X165729Y901664D01*
X165591Y901699D01*
X165453Y901738D01*
X165317Y901781D01*
X165183Y901827D01*
X165049Y901878D01*
X164917Y901931D01*
X164787Y901989D01*
X164658Y902050D01*
X164531Y902115D01*
X164405Y902183D01*
X164282Y902255D01*
X177871Y911992D02*
X177978Y911990D01*
X178084Y911984D01*
X178190Y911974D01*
X178296Y911961D01*
X178402Y911943D01*
X178506Y911922D01*
X178610Y911897D01*
X178713Y911868D01*
X178814Y911836D01*
X178914Y911799D01*
X179013Y911759D01*
X179111Y911716D01*
X179207Y911669D01*
X179301Y911618D01*
X179393Y911564D01*
X179483Y911507D01*
X179571Y911447D01*
X179656Y911383D01*
X179739Y911316D01*
X179820Y911246D01*
X179898Y911174D01*
X179974Y911098D01*
X180046Y911020D01*
X180116Y910939D01*
X180183Y910856D01*
X180247Y910771D01*
X180307Y910683D01*
X180364Y910593D01*
X180418Y910501D01*
X180469Y910407D01*
X180516Y910311D01*
X180559Y910213D01*
X180599Y910114D01*
X180636Y910014D01*
X180668Y909913D01*
X180697Y909810D01*
X180722Y909706D01*
X180743Y909602D01*
X180761Y909496D01*
X180774Y909390D01*
X180784Y909284D01*
X180790Y909178D01*
X180792Y909071D01*
X177871Y911992D02*
X177750Y911990D01*
X177629Y911984D01*
X177509Y911974D01*
X177388Y911961D01*
X177269Y911943D01*
X177149Y911922D01*
X177031Y911897D01*
X176914Y911868D01*
X176797Y911835D01*
X176682Y911799D01*
X176568Y911758D01*
X176455Y911715D01*
X176343Y911667D01*
X176234Y911616D01*
X176126Y911561D01*
X176019Y911503D01*
X175915Y911442D01*
X175813Y911377D01*
X175713Y911309D01*
X175615Y911238D01*
X175519Y911164D01*
X175426Y911087D01*
X175336Y911006D01*
X175248Y910923D01*
X175163Y910837D01*
X175080Y910748D01*
X175001Y910657D01*
X174924Y910563D01*
X174851Y910467D01*
X174781Y910369D01*
X174714Y910268D01*
X174650Y910165D01*
X174590Y910060D01*
X174533Y909953D01*
X174479Y909845D01*
X174429Y909735D01*
X174383Y909623D01*
X174340Y909510D01*
X174301Y909395D01*
X179819Y906799D02*
X179898Y906876D01*
X179974Y906957D01*
X180047Y907040D01*
X180117Y907125D01*
X180184Y907213D01*
X180248Y907303D01*
X180308Y907395D01*
X180365Y907490D01*
X180419Y907586D01*
X180470Y907684D01*
X180517Y907784D01*
X180561Y907886D01*
X180601Y907989D01*
X180637Y908093D01*
X180669Y908199D01*
X180698Y908305D01*
X180723Y908413D01*
X180745Y908521D01*
X180762Y908631D01*
X180776Y908740D01*
X180785Y908850D01*
X180791Y908961D01*
X180793Y909071D01*
X179818Y906799D02*
X174301Y900308D01*
X180792Y900308D01*
X141681Y922904D02*
X141679Y922805D01*
X141673Y922705D01*
X141664Y922606D01*
X141651Y922508D01*
X141634Y922410D01*
X141613Y922312D01*
X141588Y922216D01*
X141560Y922121D01*
X141528Y922027D01*
X141493Y921934D01*
X141454Y921842D01*
X141411Y921752D01*
X141366Y921664D01*
X141316Y921577D01*
X141264Y921493D01*
X141208Y921410D01*
X141150Y921330D01*
X141088Y921252D01*
X141023Y921177D01*
X140955Y921104D01*
X140885Y921034D01*
X140812Y920966D01*
X140737Y920901D01*
X140659Y920839D01*
X140579Y920781D01*
X140496Y920725D01*
X140412Y920673D01*
X140325Y920623D01*
X140237Y920578D01*
X140147Y920535D01*
X140055Y920496D01*
X139962Y920461D01*
X139868Y920429D01*
X139773Y920401D01*
X139677Y920376D01*
X139579Y920355D01*
X139481Y920338D01*
X139383Y920325D01*
X139284Y920316D01*
X139184Y920310D01*
X139085Y920308D01*
X138941Y920310D01*
X138796Y920316D01*
X138652Y920325D01*
X138509Y920338D01*
X138365Y920355D01*
X138222Y920376D01*
X138080Y920401D01*
X137939Y920429D01*
X137798Y920461D01*
X137658Y920497D01*
X137519Y920536D01*
X137381Y920579D01*
X137245Y920626D01*
X137109Y920676D01*
X136975Y920730D01*
X136843Y920787D01*
X136712Y920848D01*
X136583Y920912D01*
X136455Y920980D01*
X136329Y921050D01*
X136205Y921125D01*
X136084Y921202D01*
X135964Y921283D01*
X135846Y921366D01*
X135731Y921453D01*
X135618Y921543D01*
X135507Y921636D01*
X135399Y921731D01*
X135293Y921830D01*
X135190Y921931D01*
X135516Y929396D02*
X135518Y929495D01*
X135524Y929595D01*
X135533Y929694D01*
X135546Y929792D01*
X135563Y929890D01*
X135584Y929988D01*
X135609Y930084D01*
X135637Y930179D01*
X135669Y930273D01*
X135704Y930366D01*
X135743Y930458D01*
X135786Y930548D01*
X135831Y930636D01*
X135881Y930723D01*
X135933Y930807D01*
X135989Y930890D01*
X136047Y930970D01*
X136109Y931048D01*
X136174Y931123D01*
X136242Y931196D01*
X136312Y931266D01*
X136385Y931334D01*
X136460Y931399D01*
X136538Y931461D01*
X136618Y931519D01*
X136701Y931575D01*
X136785Y931627D01*
X136872Y931677D01*
X136960Y931722D01*
X137050Y931765D01*
X137142Y931804D01*
X137235Y931839D01*
X137329Y931871D01*
X137424Y931899D01*
X137521Y931924D01*
X137618Y931945D01*
X137716Y931962D01*
X137814Y931975D01*
X137913Y931984D01*
X138013Y931990D01*
X138112Y931992D01*
X138248Y931990D01*
X138384Y931984D01*
X138520Y931975D01*
X138656Y931962D01*
X138791Y931944D01*
X138925Y931924D01*
X139059Y931899D01*
X139193Y931871D01*
X139325Y931838D01*
X139456Y931803D01*
X139587Y931763D01*
X139716Y931720D01*
X139844Y931674D01*
X139970Y931623D01*
X140096Y931570D01*
X140219Y931512D01*
X140341Y931452D01*
X140461Y931388D01*
X140580Y931320D01*
X140696Y931250D01*
X140810Y931176D01*
X140923Y931099D01*
X141033Y931018D01*
X136813Y927124D02*
X136727Y927177D01*
X136643Y927234D01*
X136561Y927293D01*
X136481Y927356D01*
X136404Y927422D01*
X136329Y927490D01*
X136257Y927562D01*
X136188Y927636D01*
X136122Y927713D01*
X136059Y927792D01*
X135999Y927874D01*
X135942Y927958D01*
X135888Y928044D01*
X135838Y928132D01*
X135791Y928222D01*
X135747Y928313D01*
X135708Y928407D01*
X135671Y928501D01*
X135639Y928597D01*
X135610Y928695D01*
X135585Y928793D01*
X135564Y928892D01*
X135546Y928992D01*
X135533Y929092D01*
X135523Y929193D01*
X135517Y929295D01*
X135515Y929396D01*
X140384Y925176D02*
X140470Y925123D01*
X140554Y925066D01*
X140636Y925007D01*
X140716Y924944D01*
X140793Y924878D01*
X140868Y924810D01*
X140940Y924738D01*
X141009Y924664D01*
X141075Y924587D01*
X141138Y924508D01*
X141198Y924426D01*
X141255Y924342D01*
X141309Y924256D01*
X141359Y924168D01*
X141406Y924078D01*
X141450Y923987D01*
X141489Y923893D01*
X141526Y923799D01*
X141558Y923703D01*
X141587Y923605D01*
X141612Y923507D01*
X141633Y923408D01*
X141651Y923308D01*
X141664Y923208D01*
X141674Y923107D01*
X141680Y923005D01*
X141682Y922904D01*
X140383Y925176D02*
X136813Y927124D01*
X146643Y931992D02*
X146643Y920308D01*
X151836Y920308D01*
X157105Y920308D02*
X157105Y931992D01*
X155807Y920308D02*
X158403Y920308D01*
X158403Y931992D02*
X155807Y931992D01*
X163385Y931992D02*
X163385Y920308D01*
X163385Y931992D02*
X166630Y931992D01*
X166743Y931990D01*
X166856Y931984D01*
X166969Y931974D01*
X167082Y931960D01*
X167194Y931943D01*
X167305Y931921D01*
X167415Y931896D01*
X167525Y931866D01*
X167633Y931833D01*
X167740Y931796D01*
X167846Y931756D01*
X167950Y931711D01*
X168053Y931663D01*
X168154Y931612D01*
X168253Y931557D01*
X168350Y931499D01*
X168445Y931437D01*
X168538Y931372D01*
X168628Y931304D01*
X168716Y931233D01*
X168802Y931158D01*
X168885Y931081D01*
X168965Y931001D01*
X169042Y930918D01*
X169117Y930832D01*
X169188Y930744D01*
X169256Y930654D01*
X169321Y930561D01*
X169383Y930466D01*
X169441Y930369D01*
X169496Y930270D01*
X169547Y930169D01*
X169595Y930066D01*
X169640Y929962D01*
X169680Y929856D01*
X169717Y929749D01*
X169750Y929641D01*
X169780Y929531D01*
X169805Y929421D01*
X169827Y929310D01*
X169844Y929198D01*
X169858Y929085D01*
X169868Y928972D01*
X169874Y928859D01*
X169876Y928746D01*
X169876Y923554D01*
X169874Y923441D01*
X169868Y923328D01*
X169858Y923215D01*
X169844Y923102D01*
X169827Y922990D01*
X169805Y922879D01*
X169780Y922769D01*
X169750Y922659D01*
X169717Y922551D01*
X169680Y922444D01*
X169640Y922338D01*
X169595Y922234D01*
X169547Y922131D01*
X169496Y922030D01*
X169441Y921931D01*
X169383Y921834D01*
X169321Y921739D01*
X169256Y921646D01*
X169188Y921556D01*
X169117Y921468D01*
X169042Y921382D01*
X168965Y921299D01*
X168885Y921219D01*
X168802Y921142D01*
X168716Y921067D01*
X168628Y920996D01*
X168538Y920928D01*
X168445Y920863D01*
X168350Y920801D01*
X168253Y920743D01*
X168154Y920688D01*
X168053Y920637D01*
X167950Y920589D01*
X167846Y920544D01*
X167740Y920504D01*
X167633Y920467D01*
X167525Y920434D01*
X167415Y920404D01*
X167305Y920379D01*
X167194Y920357D01*
X167082Y920340D01*
X166969Y920326D01*
X166856Y920316D01*
X166743Y920310D01*
X166630Y920308D01*
X163385Y920308D01*
X175599Y920308D02*
X180792Y920308D01*
X175599Y920308D02*
X175599Y931992D01*
X180792Y931992D01*
X179494Y926799D02*
X175599Y926799D01*
D12*
X329051Y949960D02*
X329119Y949327D01*
X329202Y948697D01*
X329301Y948069D01*
X329414Y947443D01*
X329542Y946821D01*
X329684Y946201D01*
X329842Y945585D01*
X330014Y944973D01*
X330201Y944365D01*
X330402Y943762D01*
X330617Y943164D01*
X330847Y942571D01*
X331090Y941984D01*
X331348Y941403D01*
X331619Y940828D01*
X331904Y940259D01*
X332203Y939698D01*
X332515Y939144D01*
X332840Y938597D01*
X333177Y938059D01*
X333528Y937529D01*
X333891Y937007D01*
X334267Y936494D01*
X334654Y935990D01*
X329051Y949960D02*
X328997Y950609D01*
X328959Y951258D01*
X328937Y951909D01*
X328930Y952560D01*
X328939Y953211D01*
X328965Y953861D01*
X329006Y954511D01*
X329063Y955159D01*
X329136Y955806D01*
X329224Y956451D01*
X329329Y957094D01*
X329449Y957734D01*
X329584Y958370D01*
X329735Y959004D01*
X329902Y959633D01*
X330083Y960258D01*
X330280Y960879D01*
X330492Y961494D01*
X330719Y962104D01*
X330961Y962709D01*
X331218Y963307D01*
X331489Y963899D01*
X331774Y964484D01*
X332074Y965062D01*
X332387Y965632D01*
X332715Y966195D01*
X333056Y966749D01*
X333410Y967295D01*
X333778Y967832D01*
X334159Y968361D01*
X334552Y968879D01*
X334958Y969388D01*
X335376Y969887D01*
X335807Y970375D01*
X336249Y970853D01*
X336703Y971320D01*
X337168Y971775D01*
X337644Y972219D01*
X338130Y972652D01*
X338627Y973072D01*
X339134Y973480D01*
X339651Y973876D01*
X340178Y974259D01*
X340714Y974629D01*
X341258Y974986D01*
X341811Y975329D01*
X342372Y975659D01*
X342942Y975975D01*
X343518Y976277D01*
X344102Y976564D01*
X344693Y976838D01*
X345290Y977097D01*
X345894Y977341D01*
X346503Y977571D01*
X347117Y977785D01*
X347737Y977985D01*
X363463Y977985D02*
X364078Y977786D01*
X364689Y977574D01*
X365294Y977346D01*
X365893Y977104D01*
X366486Y976847D01*
X367073Y976576D01*
X367653Y976291D01*
X368226Y975992D01*
X368792Y975679D01*
X369350Y975352D01*
X369900Y975012D01*
X370441Y974659D01*
X370974Y974293D01*
X371497Y973914D01*
X372012Y973522D01*
X372516Y973118D01*
X373011Y972702D01*
X373496Y972275D01*
X373970Y971835D01*
X374433Y971384D01*
X374885Y970922D01*
X375326Y970449D01*
X375755Y969966D01*
X376172Y969472D01*
X376578Y968969D01*
X376971Y968456D01*
X377351Y967933D01*
X377719Y967401D01*
X378073Y966861D01*
X378415Y966312D01*
X378743Y965755D01*
X379057Y965190D01*
X379358Y964618D01*
X379645Y964039D01*
X379917Y963452D01*
X380176Y962860D01*
X380420Y962261D01*
X380649Y961657D01*
X380863Y961047D01*
X381063Y960432D01*
X381248Y959813D01*
X381418Y959189D01*
X381572Y958561D01*
X381711Y957930D01*
X381835Y957296D01*
X381944Y956659D01*
X382037Y956019D01*
X382114Y955377D01*
X382176Y954734D01*
X382223Y954089D01*
X382253Y953443D01*
X382268Y952797D01*
X382268Y952151D01*
X382251Y951504D01*
X382219Y950859D01*
X382172Y950214D01*
X382109Y949571D01*
X382030Y948929D01*
X381936Y948290D01*
X381826Y947653D01*
X381701Y947018D01*
X381560Y946387D01*
X381404Y945760D01*
X381233Y945137D01*
X381047Y944518D01*
X380846Y943903D01*
X380631Y943294D01*
X380400Y942690D01*
X380155Y942092D01*
X379896Y941500D01*
X379622Y940914D01*
X379334Y940335D01*
X379032Y939764D01*
X378717Y939200D01*
X378388Y938643D01*
X378045Y938095D01*
X377689Y937555D01*
X377321Y937024D01*
X376939Y936502D01*
X376545Y935990D01*
X334655Y935990D01*
X333063Y949960D02*
X329051Y949960D01*
X352737Y949960D02*
X358463Y949960D01*
X378137Y949960D02*
X382149Y949960D01*
X387985Y962660D02*
X387985Y970915D01*
X387985Y962660D02*
X387987Y962549D01*
X387993Y962439D01*
X388002Y962328D01*
X388016Y962218D01*
X388033Y962109D01*
X388054Y962000D01*
X388079Y961892D01*
X388108Y961785D01*
X388140Y961679D01*
X388176Y961574D01*
X388216Y961471D01*
X388259Y961369D01*
X388306Y961268D01*
X388357Y961169D01*
X388410Y961073D01*
X388467Y960978D01*
X388528Y960885D01*
X388591Y960794D01*
X388658Y960705D01*
X388728Y960619D01*
X388801Y960536D01*
X388876Y960454D01*
X388954Y960376D01*
X389036Y960301D01*
X389119Y960228D01*
X389205Y960158D01*
X389294Y960091D01*
X389385Y960028D01*
X389478Y959967D01*
X389573Y959910D01*
X389669Y959857D01*
X389768Y959806D01*
X389869Y959759D01*
X389971Y959716D01*
X390074Y959676D01*
X390179Y959640D01*
X390285Y959608D01*
X390392Y959579D01*
X390500Y959554D01*
X390609Y959533D01*
X390718Y959516D01*
X390828Y959502D01*
X390939Y959493D01*
X391049Y959487D01*
X391160Y959485D01*
X391271Y959487D01*
X391381Y959493D01*
X391492Y959502D01*
X391602Y959516D01*
X391711Y959533D01*
X391820Y959554D01*
X391928Y959579D01*
X392035Y959608D01*
X392141Y959640D01*
X392246Y959676D01*
X392349Y959716D01*
X392451Y959759D01*
X392552Y959806D01*
X392651Y959857D01*
X392747Y959910D01*
X392842Y959967D01*
X392935Y960028D01*
X393026Y960091D01*
X393115Y960158D01*
X393201Y960228D01*
X393284Y960301D01*
X393366Y960376D01*
X393444Y960454D01*
X393519Y960536D01*
X393592Y960619D01*
X393662Y960705D01*
X393729Y960794D01*
X393792Y960885D01*
X393853Y960978D01*
X393910Y961073D01*
X393963Y961169D01*
X394014Y961268D01*
X394061Y961369D01*
X394104Y961471D01*
X394144Y961574D01*
X394180Y961679D01*
X394212Y961785D01*
X394241Y961892D01*
X394266Y962000D01*
X394287Y962109D01*
X394304Y962218D01*
X394318Y962328D01*
X394327Y962439D01*
X394333Y962549D01*
X394335Y962660D01*
X394335Y970915D01*
X402209Y970915D02*
X402209Y959485D01*
X402209Y965200D02*
X400622Y966153D01*
X400621Y966152D02*
X400548Y966199D01*
X400477Y966248D01*
X400408Y966301D01*
X400342Y966357D01*
X400278Y966416D01*
X400217Y966477D01*
X400159Y966541D01*
X400104Y966608D01*
X400052Y966678D01*
X400004Y966749D01*
X399958Y966823D01*
X399916Y966899D01*
X399878Y966977D01*
X399843Y967056D01*
X399812Y967137D01*
X399785Y967219D01*
X399761Y967302D01*
X399741Y967387D01*
X399725Y967472D01*
X399713Y967558D01*
X399705Y967644D01*
X399701Y967730D01*
X399700Y967817D01*
X399704Y967904D01*
X399712Y967990D01*
X399723Y968076D01*
X399739Y968161D01*
X399758Y968245D01*
X399781Y968329D01*
X399808Y968411D01*
X399839Y968492D01*
X399874Y968572D01*
X399911Y968649D01*
X399953Y968725D01*
X399998Y968800D01*
X400046Y968871D01*
X400098Y968941D01*
X400152Y969008D01*
X400210Y969073D01*
X400270Y969135D01*
X400334Y969194D01*
X400400Y969250D01*
X400468Y969304D01*
X400539Y969353D01*
X400612Y969400D01*
X400687Y969443D01*
X400764Y969483D01*
X400842Y969519D01*
X400923Y969552D01*
X401004Y969581D01*
X401087Y969606D01*
X401171Y969628D01*
X401256Y969645D01*
X401257Y969645D02*
X401394Y969668D01*
X401533Y969688D01*
X401671Y969703D01*
X401810Y969715D01*
X401950Y969723D01*
X402089Y969726D01*
X402229Y969727D01*
X402368Y969723D01*
X402507Y969715D01*
X402646Y969704D01*
X402785Y969688D01*
X402923Y969669D01*
X403061Y969646D01*
X403198Y969619D01*
X403334Y969588D01*
X403469Y969554D01*
X403603Y969516D01*
X403737Y969474D01*
X403868Y969428D01*
X403999Y969379D01*
X404128Y969326D01*
X404256Y969270D01*
X404382Y969210D01*
X404506Y969147D01*
X404629Y969080D01*
X404749Y969010D01*
X402209Y965200D02*
X403797Y964248D01*
X403870Y964201D01*
X403941Y964152D01*
X404010Y964099D01*
X404076Y964043D01*
X404140Y963984D01*
X404201Y963923D01*
X404259Y963859D01*
X404314Y963792D01*
X404366Y963722D01*
X404414Y963651D01*
X404460Y963577D01*
X404502Y963501D01*
X404540Y963423D01*
X404575Y963344D01*
X404606Y963263D01*
X404633Y963181D01*
X404657Y963098D01*
X404677Y963013D01*
X404693Y962928D01*
X404705Y962842D01*
X404713Y962756D01*
X404717Y962670D01*
X404718Y962583D01*
X404714Y962496D01*
X404706Y962410D01*
X404695Y962324D01*
X404679Y962239D01*
X404660Y962155D01*
X404637Y962071D01*
X404610Y961989D01*
X404579Y961908D01*
X404544Y961828D01*
X404507Y961751D01*
X404465Y961675D01*
X404420Y961600D01*
X404372Y961529D01*
X404320Y961459D01*
X404266Y961392D01*
X404208Y961327D01*
X404148Y961265D01*
X404084Y961206D01*
X404018Y961150D01*
X403950Y961096D01*
X403879Y961047D01*
X403806Y961000D01*
X403731Y960957D01*
X403654Y960917D01*
X403576Y960881D01*
X403495Y960848D01*
X403414Y960819D01*
X403331Y960794D01*
X403247Y960772D01*
X403162Y960755D01*
X403161Y960755D02*
X403024Y960732D01*
X402885Y960712D01*
X402747Y960697D01*
X402608Y960685D01*
X402468Y960677D01*
X402329Y960674D01*
X402189Y960673D01*
X402050Y960677D01*
X401911Y960685D01*
X401772Y960696D01*
X401633Y960712D01*
X401495Y960731D01*
X401357Y960754D01*
X401220Y960781D01*
X401084Y960812D01*
X400949Y960846D01*
X400815Y960884D01*
X400681Y960926D01*
X400550Y960972D01*
X400419Y961021D01*
X400290Y961074D01*
X400162Y961130D01*
X400036Y961190D01*
X399912Y961253D01*
X399789Y961320D01*
X399669Y961390D01*
X409702Y959485D02*
X412877Y959485D01*
X412988Y959487D01*
X413098Y959493D01*
X413209Y959502D01*
X413319Y959516D01*
X413428Y959533D01*
X413537Y959554D01*
X413645Y959579D01*
X413752Y959608D01*
X413858Y959640D01*
X413963Y959676D01*
X414066Y959716D01*
X414168Y959759D01*
X414269Y959806D01*
X414368Y959857D01*
X414465Y959910D01*
X414559Y959967D01*
X414652Y960028D01*
X414743Y960091D01*
X414832Y960158D01*
X414918Y960228D01*
X415001Y960301D01*
X415083Y960376D01*
X415161Y960454D01*
X415236Y960536D01*
X415309Y960619D01*
X415379Y960705D01*
X415446Y960794D01*
X415509Y960885D01*
X415570Y960978D01*
X415627Y961073D01*
X415680Y961169D01*
X415731Y961268D01*
X415778Y961369D01*
X415821Y961471D01*
X415861Y961574D01*
X415897Y961679D01*
X415929Y961785D01*
X415958Y961892D01*
X415983Y962000D01*
X416004Y962109D01*
X416021Y962218D01*
X416035Y962328D01*
X416044Y962439D01*
X416050Y962549D01*
X416052Y962660D01*
X416050Y962771D01*
X416044Y962881D01*
X416035Y962992D01*
X416021Y963102D01*
X416004Y963211D01*
X415983Y963320D01*
X415958Y963428D01*
X415929Y963535D01*
X415897Y963641D01*
X415861Y963746D01*
X415821Y963849D01*
X415778Y963951D01*
X415731Y964052D01*
X415680Y964151D01*
X415627Y964247D01*
X415570Y964342D01*
X415509Y964435D01*
X415446Y964526D01*
X415379Y964615D01*
X415309Y964701D01*
X415236Y964784D01*
X415161Y964866D01*
X415083Y964944D01*
X415001Y965019D01*
X414918Y965092D01*
X414832Y965162D01*
X414743Y965229D01*
X414652Y965292D01*
X414559Y965353D01*
X414465Y965410D01*
X414368Y965463D01*
X414269Y965514D01*
X414168Y965561D01*
X414066Y965604D01*
X413963Y965644D01*
X413858Y965680D01*
X413752Y965712D01*
X413645Y965741D01*
X413537Y965766D01*
X413428Y965787D01*
X413319Y965804D01*
X413209Y965818D01*
X413098Y965827D01*
X412988Y965833D01*
X412877Y965835D01*
X413512Y970915D02*
X409702Y970915D01*
X413512Y970915D02*
X413612Y970913D01*
X413711Y970907D01*
X413811Y970897D01*
X413909Y970884D01*
X414008Y970866D01*
X414105Y970845D01*
X414201Y970820D01*
X414297Y970791D01*
X414391Y970758D01*
X414484Y970722D01*
X414575Y970682D01*
X414665Y970638D01*
X414753Y970591D01*
X414839Y970541D01*
X414923Y970487D01*
X415005Y970430D01*
X415084Y970370D01*
X415162Y970306D01*
X415236Y970240D01*
X415308Y970171D01*
X415377Y970099D01*
X415443Y970025D01*
X415507Y969947D01*
X415567Y969868D01*
X415624Y969786D01*
X415678Y969702D01*
X415728Y969616D01*
X415775Y969528D01*
X415819Y969438D01*
X415859Y969347D01*
X415895Y969254D01*
X415928Y969160D01*
X415957Y969064D01*
X415982Y968968D01*
X416003Y968871D01*
X416021Y968772D01*
X416034Y968674D01*
X416044Y968574D01*
X416050Y968475D01*
X416052Y968375D01*
X416050Y968275D01*
X416044Y968176D01*
X416034Y968076D01*
X416021Y967978D01*
X416003Y967879D01*
X415982Y967782D01*
X415957Y967686D01*
X415928Y967590D01*
X415895Y967496D01*
X415859Y967403D01*
X415819Y967312D01*
X415775Y967222D01*
X415728Y967134D01*
X415678Y967048D01*
X415624Y966964D01*
X415567Y966882D01*
X415507Y966803D01*
X415443Y966725D01*
X415377Y966651D01*
X415308Y966579D01*
X415236Y966510D01*
X415162Y966444D01*
X415084Y966380D01*
X415005Y966320D01*
X414923Y966263D01*
X414839Y966209D01*
X414753Y966159D01*
X414665Y966112D01*
X414575Y966068D01*
X414484Y966028D01*
X414391Y965992D01*
X414297Y965959D01*
X414201Y965930D01*
X414105Y965905D01*
X414008Y965884D01*
X413909Y965866D01*
X413811Y965853D01*
X413711Y965843D01*
X413612Y965837D01*
X413512Y965835D01*
X410972Y965835D01*
D17*
X749300Y984250D02*
X755650Y965200D01*
X762000Y958850D01*
X762000Y946150D02*
X755650Y939800D01*
X749300Y920750D01*
X692150Y965200D02*
X698500Y984250D01*
X749300Y984250D01*
X749300Y920750D02*
X698500Y920750D01*
X685800Y946150D02*
X685800Y958850D01*
X692150Y965200D01*
X685800Y946150D02*
X692150Y939800D01*
X698500Y920750D01*
X762000Y946150D02*
X762000Y958850D01*
D12*
X717550Y952500D02*
X711200Y952500D01*
X717550Y958850D02*
X730250Y952500D01*
X736600Y952500D01*
X775335Y968446D02*
X775335Y971931D01*
X775335Y968446D02*
X775337Y968375D01*
X775343Y968303D01*
X775352Y968233D01*
X775365Y968163D01*
X775382Y968093D01*
X775403Y968025D01*
X775427Y967958D01*
X775455Y967892D01*
X775486Y967828D01*
X775521Y967765D01*
X775559Y967705D01*
X775600Y967646D01*
X775644Y967590D01*
X775691Y967536D01*
X775740Y967485D01*
X775793Y967437D01*
X775848Y967391D01*
X775905Y967349D01*
X775965Y967309D01*
X776026Y967273D01*
X776090Y967240D01*
X776155Y967211D01*
X776221Y967185D01*
X776289Y967162D01*
X776358Y967143D01*
X776428Y967128D01*
X776498Y967117D01*
X776569Y967109D01*
X776640Y967105D01*
X776712Y967105D01*
X776783Y967109D01*
X776854Y967117D01*
X776924Y967128D01*
X776994Y967143D01*
X777063Y967162D01*
X777131Y967185D01*
X777197Y967211D01*
X777262Y967240D01*
X777326Y967273D01*
X777387Y967309D01*
X777447Y967349D01*
X777504Y967391D01*
X777559Y967437D01*
X777612Y967485D01*
X777661Y967536D01*
X777708Y967590D01*
X777752Y967646D01*
X777793Y967705D01*
X777831Y967765D01*
X777866Y967828D01*
X777897Y967892D01*
X777925Y967958D01*
X777949Y968025D01*
X777970Y968093D01*
X777987Y968163D01*
X778000Y968233D01*
X778009Y968303D01*
X778015Y968375D01*
X778017Y968446D01*
X778016Y968446D02*
X778016Y971931D01*
X781979Y971931D02*
X781979Y967105D01*
X781979Y969518D02*
X781309Y969920D01*
X781262Y969950D01*
X781218Y969984D01*
X781176Y970020D01*
X781137Y970059D01*
X781100Y970100D01*
X781067Y970145D01*
X781037Y970191D01*
X781009Y970239D01*
X780986Y970289D01*
X780966Y970341D01*
X780949Y970394D01*
X780936Y970447D01*
X780927Y970502D01*
X780922Y970557D01*
X780920Y970613D01*
X780922Y970668D01*
X780928Y970723D01*
X780938Y970777D01*
X780952Y970831D01*
X780969Y970884D01*
X780990Y970935D01*
X781015Y970985D01*
X781042Y971033D01*
X781073Y971078D01*
X781108Y971122D01*
X781145Y971163D01*
X781184Y971202D01*
X781227Y971237D01*
X781272Y971270D01*
X781318Y971300D01*
X781367Y971326D01*
X781418Y971348D01*
X781470Y971368D01*
X781523Y971383D01*
X781577Y971395D01*
X781577Y971394D02*
X781666Y971409D01*
X781756Y971419D01*
X781846Y971426D01*
X781936Y971429D01*
X782026Y971428D01*
X782116Y971423D01*
X782205Y971415D01*
X782295Y971402D01*
X782383Y971386D01*
X782471Y971366D01*
X782558Y971343D01*
X782644Y971316D01*
X782728Y971285D01*
X782812Y971250D01*
X782893Y971212D01*
X782974Y971171D01*
X783052Y971126D01*
X781979Y969518D02*
X782649Y969116D01*
X782696Y969086D01*
X782740Y969052D01*
X782782Y969016D01*
X782821Y968977D01*
X782858Y968936D01*
X782891Y968891D01*
X782921Y968845D01*
X782949Y968797D01*
X782972Y968747D01*
X782992Y968695D01*
X783009Y968642D01*
X783022Y968589D01*
X783031Y968534D01*
X783036Y968479D01*
X783038Y968423D01*
X783036Y968368D01*
X783030Y968313D01*
X783020Y968259D01*
X783006Y968205D01*
X782989Y968152D01*
X782968Y968101D01*
X782943Y968051D01*
X782916Y968003D01*
X782885Y967957D01*
X782850Y967914D01*
X782813Y967873D01*
X782774Y967834D01*
X782731Y967799D01*
X782686Y967766D01*
X782639Y967736D01*
X782591Y967710D01*
X782540Y967688D01*
X782488Y967668D01*
X782435Y967653D01*
X782381Y967641D01*
X782381Y967642D02*
X782292Y967627D01*
X782202Y967617D01*
X782112Y967610D01*
X782022Y967607D01*
X781932Y967608D01*
X781842Y967613D01*
X781753Y967621D01*
X781663Y967634D01*
X781575Y967650D01*
X781487Y967670D01*
X781400Y967693D01*
X781314Y967720D01*
X781230Y967751D01*
X781146Y967786D01*
X781065Y967824D01*
X780985Y967865D01*
X780906Y967910D01*
X785759Y968177D02*
X786832Y971931D01*
X785759Y968177D02*
X788440Y968177D01*
X787636Y969250D02*
X787636Y967105D01*
D17*
X762000Y895350D02*
X768350Y876300D01*
X774700Y869950D01*
X774700Y857250D02*
X768350Y850900D01*
X762000Y831850D01*
X704850Y876300D02*
X711200Y895350D01*
X762000Y895350D01*
X762000Y831850D02*
X711200Y831850D01*
X698500Y857250D02*
X698500Y869950D01*
X704850Y876300D01*
X698500Y857250D02*
X704850Y850900D01*
X711200Y831850D01*
X774700Y857250D02*
X774700Y869950D01*
D12*
X730250Y863600D02*
X723900Y863600D01*
X730250Y869950D02*
X742950Y863600D01*
X749300Y863600D01*
X788035Y879546D02*
X788035Y883031D01*
X788035Y879546D02*
X788037Y879475D01*
X788043Y879403D01*
X788052Y879333D01*
X788065Y879263D01*
X788082Y879193D01*
X788103Y879125D01*
X788127Y879058D01*
X788155Y878992D01*
X788186Y878928D01*
X788221Y878865D01*
X788259Y878805D01*
X788300Y878746D01*
X788344Y878690D01*
X788391Y878636D01*
X788440Y878585D01*
X788493Y878537D01*
X788548Y878491D01*
X788605Y878449D01*
X788665Y878409D01*
X788726Y878373D01*
X788790Y878340D01*
X788855Y878311D01*
X788921Y878285D01*
X788989Y878262D01*
X789058Y878243D01*
X789128Y878228D01*
X789198Y878217D01*
X789269Y878209D01*
X789340Y878205D01*
X789412Y878205D01*
X789483Y878209D01*
X789554Y878217D01*
X789624Y878228D01*
X789694Y878243D01*
X789763Y878262D01*
X789831Y878285D01*
X789897Y878311D01*
X789962Y878340D01*
X790026Y878373D01*
X790087Y878409D01*
X790147Y878449D01*
X790204Y878491D01*
X790259Y878537D01*
X790312Y878585D01*
X790361Y878636D01*
X790408Y878690D01*
X790452Y878746D01*
X790493Y878805D01*
X790531Y878865D01*
X790566Y878928D01*
X790597Y878992D01*
X790625Y879058D01*
X790649Y879125D01*
X790670Y879193D01*
X790687Y879263D01*
X790700Y879333D01*
X790709Y879403D01*
X790715Y879475D01*
X790717Y879546D01*
X790716Y879546D02*
X790716Y883031D01*
X794679Y883031D02*
X794679Y878205D01*
X794679Y880618D02*
X794009Y881020D01*
X793962Y881050D01*
X793918Y881084D01*
X793876Y881120D01*
X793837Y881159D01*
X793800Y881200D01*
X793767Y881245D01*
X793737Y881291D01*
X793709Y881339D01*
X793686Y881389D01*
X793666Y881441D01*
X793649Y881494D01*
X793636Y881547D01*
X793627Y881602D01*
X793622Y881657D01*
X793620Y881713D01*
X793622Y881768D01*
X793628Y881823D01*
X793638Y881877D01*
X793652Y881931D01*
X793669Y881984D01*
X793690Y882035D01*
X793715Y882085D01*
X793742Y882133D01*
X793773Y882178D01*
X793808Y882222D01*
X793845Y882263D01*
X793884Y882302D01*
X793927Y882337D01*
X793972Y882370D01*
X794018Y882400D01*
X794067Y882426D01*
X794118Y882448D01*
X794170Y882468D01*
X794223Y882483D01*
X794277Y882495D01*
X794277Y882494D02*
X794366Y882509D01*
X794456Y882519D01*
X794546Y882526D01*
X794636Y882529D01*
X794726Y882528D01*
X794816Y882523D01*
X794905Y882515D01*
X794995Y882502D01*
X795083Y882486D01*
X795171Y882466D01*
X795258Y882443D01*
X795344Y882416D01*
X795428Y882385D01*
X795512Y882350D01*
X795593Y882312D01*
X795674Y882271D01*
X795752Y882226D01*
X794679Y880618D02*
X795349Y880216D01*
X795396Y880186D01*
X795440Y880152D01*
X795482Y880116D01*
X795521Y880077D01*
X795558Y880036D01*
X795591Y879991D01*
X795621Y879945D01*
X795649Y879897D01*
X795672Y879847D01*
X795692Y879795D01*
X795709Y879742D01*
X795722Y879689D01*
X795731Y879634D01*
X795736Y879579D01*
X795738Y879523D01*
X795736Y879468D01*
X795730Y879413D01*
X795720Y879359D01*
X795706Y879305D01*
X795689Y879252D01*
X795668Y879201D01*
X795643Y879151D01*
X795616Y879103D01*
X795585Y879057D01*
X795550Y879014D01*
X795513Y878973D01*
X795474Y878934D01*
X795431Y878899D01*
X795386Y878866D01*
X795339Y878836D01*
X795291Y878810D01*
X795240Y878788D01*
X795188Y878768D01*
X795135Y878753D01*
X795081Y878741D01*
X795081Y878742D02*
X794992Y878727D01*
X794902Y878717D01*
X794812Y878710D01*
X794722Y878707D01*
X794632Y878708D01*
X794542Y878713D01*
X794453Y878721D01*
X794363Y878734D01*
X794275Y878750D01*
X794187Y878770D01*
X794100Y878793D01*
X794014Y878820D01*
X793930Y878851D01*
X793846Y878886D01*
X793765Y878924D01*
X793685Y878965D01*
X793606Y879010D01*
X798459Y878205D02*
X800068Y878205D01*
X800133Y878207D01*
X800197Y878213D01*
X800261Y878223D01*
X800325Y878236D01*
X800387Y878254D01*
X800448Y878275D01*
X800508Y878299D01*
X800566Y878328D01*
X800623Y878360D01*
X800677Y878395D01*
X800729Y878433D01*
X800779Y878475D01*
X800826Y878519D01*
X800870Y878566D01*
X800912Y878616D01*
X800950Y878668D01*
X800985Y878722D01*
X801017Y878779D01*
X801046Y878837D01*
X801070Y878897D01*
X801091Y878958D01*
X801109Y879020D01*
X801122Y879084D01*
X801132Y879148D01*
X801138Y879212D01*
X801140Y879277D01*
X801140Y879814D01*
X801138Y879879D01*
X801132Y879943D01*
X801122Y880007D01*
X801109Y880071D01*
X801091Y880133D01*
X801070Y880194D01*
X801046Y880254D01*
X801017Y880312D01*
X800985Y880369D01*
X800950Y880423D01*
X800912Y880475D01*
X800870Y880525D01*
X800826Y880572D01*
X800779Y880616D01*
X800729Y880658D01*
X800677Y880696D01*
X800623Y880731D01*
X800566Y880763D01*
X800508Y880792D01*
X800448Y880816D01*
X800387Y880837D01*
X800325Y880855D01*
X800261Y880868D01*
X800197Y880878D01*
X800133Y880884D01*
X800068Y880886D01*
X798459Y880886D01*
X798459Y883031D01*
X801140Y883031D01*
X945769Y432435D02*
X949254Y432435D01*
X949325Y432437D01*
X949397Y432443D01*
X949467Y432452D01*
X949537Y432465D01*
X949607Y432482D01*
X949675Y432503D01*
X949742Y432527D01*
X949808Y432555D01*
X949872Y432586D01*
X949935Y432621D01*
X949995Y432659D01*
X950054Y432700D01*
X950110Y432744D01*
X950164Y432791D01*
X950215Y432840D01*
X950263Y432893D01*
X950309Y432948D01*
X950351Y433005D01*
X950391Y433065D01*
X950427Y433126D01*
X950460Y433190D01*
X950489Y433255D01*
X950515Y433321D01*
X950538Y433389D01*
X950557Y433458D01*
X950572Y433528D01*
X950583Y433598D01*
X950591Y433669D01*
X950595Y433740D01*
X950595Y433812D01*
X950591Y433883D01*
X950583Y433954D01*
X950572Y434024D01*
X950557Y434094D01*
X950538Y434163D01*
X950515Y434231D01*
X950489Y434297D01*
X950460Y434362D01*
X950427Y434426D01*
X950391Y434487D01*
X950351Y434547D01*
X950309Y434604D01*
X950263Y434659D01*
X950215Y434712D01*
X950164Y434761D01*
X950110Y434808D01*
X950054Y434852D01*
X949995Y434893D01*
X949935Y434931D01*
X949872Y434966D01*
X949808Y434997D01*
X949742Y435025D01*
X949675Y435049D01*
X949607Y435070D01*
X949537Y435087D01*
X949467Y435100D01*
X949397Y435109D01*
X949325Y435115D01*
X949254Y435117D01*
X949254Y435116D02*
X945769Y435116D01*
X945769Y439079D02*
X950595Y439079D01*
X948182Y439079D02*
X947780Y438409D01*
X947750Y438362D01*
X947716Y438318D01*
X947680Y438276D01*
X947641Y438237D01*
X947600Y438200D01*
X947555Y438167D01*
X947509Y438137D01*
X947461Y438109D01*
X947411Y438086D01*
X947359Y438066D01*
X947306Y438049D01*
X947253Y438036D01*
X947198Y438027D01*
X947143Y438022D01*
X947087Y438020D01*
X947032Y438022D01*
X946977Y438028D01*
X946923Y438038D01*
X946869Y438052D01*
X946816Y438069D01*
X946765Y438090D01*
X946715Y438115D01*
X946667Y438142D01*
X946622Y438173D01*
X946578Y438208D01*
X946537Y438245D01*
X946498Y438284D01*
X946463Y438327D01*
X946430Y438372D01*
X946400Y438418D01*
X946374Y438467D01*
X946352Y438518D01*
X946332Y438570D01*
X946317Y438623D01*
X946305Y438677D01*
X946306Y438677D02*
X946291Y438766D01*
X946281Y438856D01*
X946274Y438945D01*
X946271Y439036D01*
X946272Y439126D01*
X946277Y439216D01*
X946285Y439305D01*
X946298Y439395D01*
X946314Y439483D01*
X946334Y439571D01*
X946357Y439658D01*
X946384Y439744D01*
X946415Y439829D01*
X946450Y439912D01*
X946488Y439994D01*
X946529Y440074D01*
X946574Y440152D01*
X948182Y439079D02*
X948584Y439749D01*
X948614Y439796D01*
X948648Y439840D01*
X948684Y439882D01*
X948723Y439921D01*
X948764Y439958D01*
X948809Y439991D01*
X948855Y440021D01*
X948903Y440049D01*
X948953Y440072D01*
X949005Y440092D01*
X949058Y440109D01*
X949111Y440122D01*
X949166Y440131D01*
X949221Y440136D01*
X949277Y440138D01*
X949332Y440136D01*
X949387Y440130D01*
X949441Y440120D01*
X949495Y440106D01*
X949548Y440089D01*
X949599Y440068D01*
X949649Y440043D01*
X949697Y440016D01*
X949743Y439985D01*
X949786Y439950D01*
X949827Y439913D01*
X949866Y439874D01*
X949901Y439831D01*
X949934Y439786D01*
X949964Y439739D01*
X949990Y439691D01*
X950012Y439640D01*
X950032Y439588D01*
X950047Y439535D01*
X950059Y439481D01*
X950058Y439481D02*
X950073Y439392D01*
X950083Y439302D01*
X950090Y439212D01*
X950093Y439122D01*
X950092Y439032D01*
X950087Y438942D01*
X950079Y438853D01*
X950066Y438763D01*
X950050Y438675D01*
X950030Y438587D01*
X950007Y438500D01*
X949980Y438414D01*
X949949Y438330D01*
X949914Y438246D01*
X949876Y438165D01*
X949835Y438085D01*
X949790Y438006D01*
X947914Y442859D02*
X947914Y444468D01*
X947916Y444533D01*
X947922Y444597D01*
X947932Y444661D01*
X947945Y444725D01*
X947963Y444787D01*
X947984Y444848D01*
X948008Y444908D01*
X948037Y444966D01*
X948069Y445023D01*
X948104Y445077D01*
X948142Y445129D01*
X948184Y445179D01*
X948228Y445226D01*
X948275Y445270D01*
X948325Y445312D01*
X948377Y445350D01*
X948431Y445385D01*
X948488Y445417D01*
X948546Y445446D01*
X948606Y445470D01*
X948667Y445491D01*
X948729Y445509D01*
X948793Y445522D01*
X948857Y445532D01*
X948921Y445538D01*
X948986Y445540D01*
X949254Y445540D01*
X949254Y445541D02*
X949325Y445539D01*
X949397Y445533D01*
X949467Y445524D01*
X949537Y445511D01*
X949607Y445494D01*
X949675Y445473D01*
X949742Y445449D01*
X949808Y445421D01*
X949872Y445390D01*
X949935Y445355D01*
X949995Y445317D01*
X950054Y445276D01*
X950110Y445232D01*
X950164Y445185D01*
X950215Y445136D01*
X950263Y445083D01*
X950309Y445028D01*
X950351Y444971D01*
X950391Y444911D01*
X950427Y444850D01*
X950460Y444786D01*
X950489Y444721D01*
X950515Y444655D01*
X950538Y444587D01*
X950557Y444518D01*
X950572Y444448D01*
X950583Y444378D01*
X950591Y444307D01*
X950595Y444236D01*
X950595Y444164D01*
X950591Y444093D01*
X950583Y444022D01*
X950572Y443952D01*
X950557Y443882D01*
X950538Y443813D01*
X950515Y443745D01*
X950489Y443679D01*
X950460Y443614D01*
X950427Y443550D01*
X950391Y443489D01*
X950351Y443429D01*
X950309Y443372D01*
X950263Y443317D01*
X950215Y443264D01*
X950164Y443215D01*
X950110Y443168D01*
X950054Y443124D01*
X949995Y443083D01*
X949935Y443045D01*
X949872Y443010D01*
X949808Y442979D01*
X949742Y442951D01*
X949675Y442927D01*
X949607Y442906D01*
X949537Y442889D01*
X949467Y442876D01*
X949397Y442867D01*
X949325Y442861D01*
X949254Y442859D01*
X947914Y442859D01*
X947823Y442861D01*
X947732Y442867D01*
X947642Y442876D01*
X947551Y442890D01*
X947462Y442907D01*
X947374Y442928D01*
X947286Y442953D01*
X947199Y442982D01*
X947114Y443014D01*
X947030Y443049D01*
X946948Y443089D01*
X946868Y443131D01*
X946789Y443177D01*
X946713Y443227D01*
X946639Y443279D01*
X946566Y443335D01*
X946497Y443394D01*
X946430Y443455D01*
X946365Y443520D01*
X946304Y443587D01*
X946245Y443656D01*
X946189Y443728D01*
X946137Y443803D01*
X946087Y443879D01*
X946041Y443958D01*
X945999Y444038D01*
X945959Y444120D01*
X945924Y444204D01*
X945892Y444289D01*
X945863Y444376D01*
X945838Y444463D01*
X945817Y444552D01*
X945800Y444641D01*
X945786Y444731D01*
X945777Y444822D01*
X945771Y444913D01*
X945769Y445004D01*
X597535Y44831D02*
X597535Y41346D01*
X597537Y41275D01*
X597543Y41203D01*
X597552Y41133D01*
X597565Y41063D01*
X597582Y40993D01*
X597603Y40925D01*
X597627Y40858D01*
X597655Y40792D01*
X597686Y40728D01*
X597721Y40665D01*
X597759Y40605D01*
X597800Y40546D01*
X597844Y40490D01*
X597891Y40436D01*
X597940Y40385D01*
X597993Y40337D01*
X598048Y40291D01*
X598105Y40249D01*
X598165Y40209D01*
X598226Y40173D01*
X598290Y40140D01*
X598355Y40111D01*
X598421Y40085D01*
X598489Y40062D01*
X598558Y40043D01*
X598628Y40028D01*
X598698Y40017D01*
X598769Y40009D01*
X598840Y40005D01*
X598912Y40005D01*
X598983Y40009D01*
X599054Y40017D01*
X599124Y40028D01*
X599194Y40043D01*
X599263Y40062D01*
X599331Y40085D01*
X599397Y40111D01*
X599462Y40140D01*
X599526Y40173D01*
X599587Y40209D01*
X599647Y40249D01*
X599704Y40291D01*
X599759Y40337D01*
X599812Y40385D01*
X599861Y40436D01*
X599908Y40490D01*
X599952Y40546D01*
X599993Y40605D01*
X600031Y40665D01*
X600066Y40728D01*
X600097Y40792D01*
X600125Y40858D01*
X600149Y40925D01*
X600170Y40993D01*
X600187Y41063D01*
X600200Y41133D01*
X600209Y41203D01*
X600215Y41275D01*
X600217Y41346D01*
X600216Y41346D02*
X600216Y44831D01*
X604179Y44831D02*
X604179Y40005D01*
X604179Y42418D02*
X603509Y42820D01*
X603462Y42850D01*
X603418Y42884D01*
X603376Y42920D01*
X603337Y42959D01*
X603300Y43000D01*
X603267Y43045D01*
X603237Y43091D01*
X603209Y43139D01*
X603186Y43189D01*
X603166Y43241D01*
X603149Y43294D01*
X603136Y43347D01*
X603127Y43402D01*
X603122Y43457D01*
X603120Y43513D01*
X603122Y43568D01*
X603128Y43623D01*
X603138Y43677D01*
X603152Y43731D01*
X603169Y43784D01*
X603190Y43835D01*
X603215Y43885D01*
X603242Y43933D01*
X603273Y43978D01*
X603308Y44022D01*
X603345Y44063D01*
X603384Y44102D01*
X603427Y44137D01*
X603472Y44170D01*
X603518Y44200D01*
X603567Y44226D01*
X603618Y44248D01*
X603670Y44268D01*
X603723Y44283D01*
X603777Y44295D01*
X603777Y44294D02*
X603866Y44309D01*
X603956Y44319D01*
X604046Y44326D01*
X604136Y44329D01*
X604226Y44328D01*
X604316Y44323D01*
X604405Y44315D01*
X604495Y44302D01*
X604583Y44286D01*
X604671Y44266D01*
X604758Y44243D01*
X604844Y44216D01*
X604928Y44185D01*
X605012Y44150D01*
X605093Y44112D01*
X605174Y44071D01*
X605252Y44026D01*
X604179Y42418D02*
X604849Y42016D01*
X604896Y41986D01*
X604940Y41952D01*
X604982Y41916D01*
X605021Y41877D01*
X605058Y41836D01*
X605091Y41791D01*
X605121Y41745D01*
X605149Y41697D01*
X605172Y41647D01*
X605192Y41595D01*
X605209Y41542D01*
X605222Y41489D01*
X605231Y41434D01*
X605236Y41379D01*
X605238Y41323D01*
X605236Y41268D01*
X605230Y41213D01*
X605220Y41159D01*
X605206Y41105D01*
X605189Y41052D01*
X605168Y41001D01*
X605143Y40951D01*
X605116Y40903D01*
X605085Y40857D01*
X605050Y40814D01*
X605013Y40773D01*
X604974Y40734D01*
X604931Y40699D01*
X604886Y40666D01*
X604839Y40636D01*
X604791Y40610D01*
X604740Y40588D01*
X604688Y40568D01*
X604635Y40553D01*
X604581Y40541D01*
X604581Y40542D02*
X604492Y40527D01*
X604402Y40517D01*
X604312Y40510D01*
X604222Y40507D01*
X604132Y40508D01*
X604042Y40513D01*
X603953Y40521D01*
X603863Y40534D01*
X603775Y40550D01*
X603687Y40570D01*
X603600Y40593D01*
X603514Y40620D01*
X603430Y40651D01*
X603346Y40686D01*
X603265Y40724D01*
X603185Y40765D01*
X603106Y40810D01*
X607959Y44295D02*
X607959Y44831D01*
X610640Y44831D01*
X609300Y40005D01*
X43490Y621260D02*
X40005Y621260D01*
X43490Y621259D02*
X43561Y621261D01*
X43633Y621267D01*
X43703Y621276D01*
X43773Y621289D01*
X43843Y621306D01*
X43911Y621327D01*
X43978Y621351D01*
X44044Y621379D01*
X44108Y621410D01*
X44171Y621445D01*
X44231Y621483D01*
X44290Y621524D01*
X44346Y621568D01*
X44400Y621615D01*
X44451Y621664D01*
X44499Y621717D01*
X44545Y621772D01*
X44587Y621829D01*
X44627Y621889D01*
X44663Y621950D01*
X44696Y622014D01*
X44725Y622079D01*
X44751Y622145D01*
X44774Y622213D01*
X44793Y622282D01*
X44808Y622352D01*
X44819Y622422D01*
X44827Y622493D01*
X44831Y622564D01*
X44831Y622636D01*
X44827Y622707D01*
X44819Y622778D01*
X44808Y622848D01*
X44793Y622918D01*
X44774Y622987D01*
X44751Y623055D01*
X44725Y623121D01*
X44696Y623186D01*
X44663Y623250D01*
X44627Y623311D01*
X44587Y623371D01*
X44545Y623428D01*
X44499Y623483D01*
X44451Y623536D01*
X44400Y623585D01*
X44346Y623632D01*
X44290Y623676D01*
X44231Y623717D01*
X44171Y623755D01*
X44108Y623790D01*
X44044Y623821D01*
X43978Y623849D01*
X43911Y623873D01*
X43843Y623894D01*
X43773Y623911D01*
X43703Y623924D01*
X43633Y623933D01*
X43561Y623939D01*
X43490Y623941D01*
X40005Y623941D01*
X40005Y627904D02*
X44831Y627904D01*
X42418Y627904D02*
X42016Y627234D01*
X41986Y627187D01*
X41952Y627143D01*
X41916Y627101D01*
X41877Y627062D01*
X41836Y627025D01*
X41791Y626992D01*
X41745Y626962D01*
X41697Y626934D01*
X41647Y626911D01*
X41595Y626891D01*
X41542Y626874D01*
X41489Y626861D01*
X41434Y626852D01*
X41379Y626847D01*
X41323Y626845D01*
X41268Y626847D01*
X41213Y626853D01*
X41159Y626863D01*
X41105Y626877D01*
X41052Y626894D01*
X41001Y626915D01*
X40951Y626940D01*
X40903Y626967D01*
X40858Y626998D01*
X40814Y627033D01*
X40773Y627070D01*
X40734Y627109D01*
X40699Y627152D01*
X40666Y627197D01*
X40636Y627243D01*
X40610Y627292D01*
X40588Y627343D01*
X40568Y627395D01*
X40553Y627448D01*
X40541Y627502D01*
X40542Y627502D02*
X40527Y627591D01*
X40517Y627681D01*
X40510Y627770D01*
X40507Y627861D01*
X40508Y627951D01*
X40513Y628041D01*
X40521Y628130D01*
X40534Y628220D01*
X40550Y628308D01*
X40570Y628396D01*
X40593Y628483D01*
X40620Y628569D01*
X40651Y628654D01*
X40686Y628737D01*
X40724Y628819D01*
X40765Y628899D01*
X40810Y628977D01*
X42418Y627904D02*
X42820Y628574D01*
X42850Y628621D01*
X42884Y628665D01*
X42920Y628707D01*
X42959Y628746D01*
X43000Y628783D01*
X43045Y628816D01*
X43091Y628846D01*
X43139Y628874D01*
X43189Y628897D01*
X43241Y628917D01*
X43294Y628934D01*
X43347Y628947D01*
X43402Y628956D01*
X43457Y628961D01*
X43513Y628963D01*
X43568Y628961D01*
X43623Y628955D01*
X43677Y628945D01*
X43731Y628931D01*
X43784Y628914D01*
X43835Y628893D01*
X43885Y628868D01*
X43933Y628841D01*
X43979Y628810D01*
X44022Y628775D01*
X44063Y628738D01*
X44102Y628699D01*
X44137Y628656D01*
X44170Y628611D01*
X44200Y628564D01*
X44226Y628516D01*
X44248Y628465D01*
X44268Y628413D01*
X44283Y628360D01*
X44295Y628306D01*
X44294Y628306D02*
X44309Y628217D01*
X44319Y628127D01*
X44326Y628037D01*
X44329Y627947D01*
X44328Y627857D01*
X44323Y627767D01*
X44315Y627678D01*
X44302Y627588D01*
X44286Y627500D01*
X44266Y627412D01*
X44243Y627325D01*
X44216Y627239D01*
X44185Y627155D01*
X44150Y627071D01*
X44112Y626990D01*
X44071Y626910D01*
X44026Y626831D01*
X43490Y631683D02*
X43419Y631685D01*
X43347Y631691D01*
X43277Y631700D01*
X43207Y631713D01*
X43137Y631730D01*
X43069Y631751D01*
X43002Y631775D01*
X42936Y631803D01*
X42872Y631834D01*
X42809Y631869D01*
X42749Y631907D01*
X42690Y631948D01*
X42634Y631992D01*
X42580Y632039D01*
X42529Y632088D01*
X42481Y632141D01*
X42435Y632196D01*
X42393Y632253D01*
X42353Y632313D01*
X42317Y632374D01*
X42284Y632438D01*
X42255Y632503D01*
X42229Y632569D01*
X42206Y632637D01*
X42187Y632706D01*
X42172Y632776D01*
X42161Y632846D01*
X42153Y632917D01*
X42149Y632988D01*
X42149Y633060D01*
X42153Y633131D01*
X42161Y633202D01*
X42172Y633272D01*
X42187Y633342D01*
X42206Y633411D01*
X42229Y633479D01*
X42255Y633545D01*
X42284Y633610D01*
X42317Y633674D01*
X42353Y633735D01*
X42393Y633795D01*
X42435Y633852D01*
X42481Y633907D01*
X42529Y633960D01*
X42580Y634009D01*
X42634Y634056D01*
X42690Y634100D01*
X42749Y634141D01*
X42809Y634179D01*
X42872Y634214D01*
X42936Y634245D01*
X43002Y634273D01*
X43069Y634297D01*
X43137Y634318D01*
X43207Y634335D01*
X43277Y634348D01*
X43347Y634357D01*
X43419Y634363D01*
X43490Y634365D01*
X43561Y634363D01*
X43633Y634357D01*
X43703Y634348D01*
X43773Y634335D01*
X43843Y634318D01*
X43911Y634297D01*
X43978Y634273D01*
X44044Y634245D01*
X44108Y634214D01*
X44171Y634179D01*
X44231Y634141D01*
X44290Y634100D01*
X44346Y634056D01*
X44400Y634009D01*
X44451Y633960D01*
X44499Y633907D01*
X44545Y633852D01*
X44587Y633795D01*
X44627Y633735D01*
X44663Y633674D01*
X44696Y633610D01*
X44725Y633545D01*
X44751Y633479D01*
X44774Y633411D01*
X44793Y633342D01*
X44808Y633272D01*
X44819Y633202D01*
X44827Y633131D01*
X44831Y633060D01*
X44831Y632988D01*
X44827Y632917D01*
X44819Y632846D01*
X44808Y632776D01*
X44793Y632706D01*
X44774Y632637D01*
X44751Y632569D01*
X44725Y632503D01*
X44696Y632438D01*
X44663Y632374D01*
X44627Y632313D01*
X44587Y632253D01*
X44545Y632196D01*
X44499Y632141D01*
X44451Y632088D01*
X44400Y632039D01*
X44346Y631992D01*
X44290Y631948D01*
X44231Y631907D01*
X44171Y631869D01*
X44108Y631834D01*
X44044Y631803D01*
X43978Y631775D01*
X43911Y631751D01*
X43843Y631730D01*
X43773Y631713D01*
X43703Y631700D01*
X43633Y631691D01*
X43561Y631685D01*
X43490Y631683D01*
X41077Y631952D02*
X41012Y631954D01*
X40948Y631960D01*
X40884Y631970D01*
X40820Y631983D01*
X40758Y632001D01*
X40697Y632022D01*
X40637Y632046D01*
X40579Y632075D01*
X40522Y632107D01*
X40468Y632142D01*
X40416Y632180D01*
X40366Y632222D01*
X40319Y632266D01*
X40275Y632313D01*
X40233Y632363D01*
X40195Y632415D01*
X40160Y632469D01*
X40128Y632526D01*
X40099Y632584D01*
X40075Y632644D01*
X40054Y632705D01*
X40036Y632767D01*
X40023Y632831D01*
X40013Y632895D01*
X40007Y632959D01*
X40005Y633024D01*
X40007Y633089D01*
X40013Y633153D01*
X40023Y633217D01*
X40036Y633281D01*
X40054Y633343D01*
X40075Y633404D01*
X40099Y633464D01*
X40128Y633522D01*
X40160Y633579D01*
X40195Y633633D01*
X40233Y633685D01*
X40275Y633735D01*
X40319Y633782D01*
X40366Y633826D01*
X40416Y633868D01*
X40468Y633906D01*
X40522Y633941D01*
X40579Y633973D01*
X40637Y634002D01*
X40697Y634026D01*
X40758Y634047D01*
X40820Y634065D01*
X40884Y634078D01*
X40948Y634088D01*
X41012Y634094D01*
X41077Y634096D01*
X41142Y634094D01*
X41206Y634088D01*
X41270Y634078D01*
X41334Y634065D01*
X41396Y634047D01*
X41457Y634026D01*
X41517Y634002D01*
X41575Y633973D01*
X41632Y633941D01*
X41686Y633906D01*
X41738Y633868D01*
X41788Y633826D01*
X41835Y633782D01*
X41879Y633735D01*
X41921Y633685D01*
X41959Y633633D01*
X41994Y633579D01*
X42026Y633522D01*
X42055Y633464D01*
X42079Y633404D01*
X42100Y633343D01*
X42118Y633281D01*
X42131Y633217D01*
X42141Y633153D01*
X42147Y633089D01*
X42149Y633024D01*
X42147Y632959D01*
X42141Y632895D01*
X42131Y632831D01*
X42118Y632767D01*
X42100Y632705D01*
X42079Y632644D01*
X42055Y632584D01*
X42026Y632526D01*
X41994Y632469D01*
X41959Y632415D01*
X41921Y632363D01*
X41879Y632313D01*
X41835Y632266D01*
X41788Y632222D01*
X41738Y632180D01*
X41686Y632142D01*
X41632Y632107D01*
X41575Y632075D01*
X41517Y632046D01*
X41457Y632022D01*
X41396Y632001D01*
X41334Y631983D01*
X41270Y631970D01*
X41206Y631960D01*
X41142Y631954D01*
X41077Y631952D01*
X393700Y50800D02*
X406400Y38100D01*
X406400Y50800D02*
X393700Y50800D01*
X406400Y38100D02*
X419100Y50800D01*
X406400Y50800D01*
X394335Y6731D02*
X394335Y3246D01*
X394337Y3175D01*
X394343Y3103D01*
X394352Y3033D01*
X394365Y2963D01*
X394382Y2893D01*
X394403Y2825D01*
X394427Y2758D01*
X394455Y2692D01*
X394486Y2628D01*
X394521Y2565D01*
X394559Y2505D01*
X394600Y2446D01*
X394644Y2390D01*
X394691Y2336D01*
X394740Y2285D01*
X394793Y2237D01*
X394848Y2191D01*
X394905Y2149D01*
X394965Y2109D01*
X395026Y2073D01*
X395090Y2040D01*
X395155Y2011D01*
X395221Y1985D01*
X395289Y1962D01*
X395358Y1943D01*
X395428Y1928D01*
X395498Y1917D01*
X395569Y1909D01*
X395640Y1905D01*
X395712Y1905D01*
X395783Y1909D01*
X395854Y1917D01*
X395924Y1928D01*
X395994Y1943D01*
X396063Y1962D01*
X396131Y1985D01*
X396197Y2011D01*
X396262Y2040D01*
X396326Y2073D01*
X396387Y2109D01*
X396447Y2149D01*
X396504Y2191D01*
X396559Y2237D01*
X396612Y2285D01*
X396661Y2336D01*
X396708Y2390D01*
X396752Y2446D01*
X396793Y2505D01*
X396831Y2565D01*
X396866Y2628D01*
X396897Y2692D01*
X396925Y2758D01*
X396949Y2825D01*
X396970Y2893D01*
X396987Y2963D01*
X397000Y3033D01*
X397009Y3103D01*
X397015Y3175D01*
X397017Y3246D01*
X397016Y3246D02*
X397016Y6731D01*
X400979Y6731D02*
X400979Y1905D01*
X400979Y4318D02*
X400309Y4720D01*
X400262Y4750D01*
X400218Y4784D01*
X400176Y4820D01*
X400137Y4859D01*
X400100Y4900D01*
X400067Y4945D01*
X400037Y4991D01*
X400009Y5039D01*
X399986Y5089D01*
X399966Y5141D01*
X399949Y5194D01*
X399936Y5247D01*
X399927Y5302D01*
X399922Y5357D01*
X399920Y5413D01*
X399922Y5468D01*
X399928Y5523D01*
X399938Y5577D01*
X399952Y5631D01*
X399969Y5684D01*
X399990Y5735D01*
X400015Y5785D01*
X400042Y5833D01*
X400073Y5878D01*
X400108Y5922D01*
X400145Y5963D01*
X400184Y6002D01*
X400227Y6037D01*
X400272Y6070D01*
X400318Y6100D01*
X400367Y6126D01*
X400418Y6148D01*
X400470Y6168D01*
X400523Y6183D01*
X400577Y6195D01*
X400577Y6194D02*
X400666Y6209D01*
X400756Y6219D01*
X400846Y6226D01*
X400936Y6229D01*
X401026Y6228D01*
X401116Y6223D01*
X401205Y6215D01*
X401295Y6202D01*
X401383Y6186D01*
X401471Y6166D01*
X401558Y6143D01*
X401644Y6116D01*
X401728Y6085D01*
X401812Y6050D01*
X401893Y6012D01*
X401974Y5971D01*
X402052Y5926D01*
X400979Y4318D02*
X401649Y3916D01*
X401696Y3886D01*
X401740Y3852D01*
X401782Y3816D01*
X401821Y3777D01*
X401858Y3736D01*
X401891Y3691D01*
X401921Y3645D01*
X401949Y3597D01*
X401972Y3547D01*
X401992Y3495D01*
X402009Y3442D01*
X402022Y3389D01*
X402031Y3334D01*
X402036Y3279D01*
X402038Y3223D01*
X402036Y3168D01*
X402030Y3113D01*
X402020Y3059D01*
X402006Y3005D01*
X401989Y2952D01*
X401968Y2901D01*
X401943Y2851D01*
X401916Y2803D01*
X401885Y2757D01*
X401850Y2714D01*
X401813Y2673D01*
X401774Y2634D01*
X401731Y2599D01*
X401686Y2566D01*
X401639Y2536D01*
X401591Y2510D01*
X401540Y2488D01*
X401488Y2468D01*
X401435Y2453D01*
X401381Y2441D01*
X401381Y2442D02*
X401292Y2427D01*
X401202Y2417D01*
X401112Y2410D01*
X401022Y2407D01*
X400932Y2408D01*
X400842Y2413D01*
X400753Y2421D01*
X400663Y2434D01*
X400575Y2450D01*
X400487Y2470D01*
X400400Y2493D01*
X400314Y2520D01*
X400230Y2551D01*
X400146Y2586D01*
X400065Y2624D01*
X399985Y2665D01*
X399906Y2710D01*
X405832Y4050D02*
X407440Y4050D01*
X405832Y4050D02*
X405767Y4052D01*
X405703Y4058D01*
X405639Y4068D01*
X405575Y4081D01*
X405513Y4099D01*
X405452Y4120D01*
X405392Y4144D01*
X405334Y4173D01*
X405277Y4205D01*
X405223Y4240D01*
X405171Y4278D01*
X405121Y4320D01*
X405074Y4364D01*
X405030Y4411D01*
X404988Y4461D01*
X404950Y4513D01*
X404915Y4567D01*
X404883Y4624D01*
X404854Y4682D01*
X404830Y4742D01*
X404809Y4803D01*
X404791Y4865D01*
X404778Y4929D01*
X404768Y4993D01*
X404762Y5057D01*
X404760Y5122D01*
X404759Y5122D02*
X404759Y5390D01*
X404761Y5461D01*
X404767Y5533D01*
X404776Y5603D01*
X404789Y5673D01*
X404806Y5743D01*
X404827Y5811D01*
X404851Y5878D01*
X404879Y5944D01*
X404910Y6008D01*
X404945Y6071D01*
X404983Y6131D01*
X405024Y6190D01*
X405068Y6246D01*
X405115Y6300D01*
X405164Y6351D01*
X405217Y6399D01*
X405272Y6445D01*
X405329Y6487D01*
X405389Y6527D01*
X405450Y6563D01*
X405514Y6596D01*
X405579Y6625D01*
X405645Y6651D01*
X405713Y6674D01*
X405782Y6693D01*
X405852Y6708D01*
X405922Y6719D01*
X405993Y6727D01*
X406064Y6731D01*
X406136Y6731D01*
X406207Y6727D01*
X406278Y6719D01*
X406348Y6708D01*
X406418Y6693D01*
X406487Y6674D01*
X406555Y6651D01*
X406621Y6625D01*
X406686Y6596D01*
X406750Y6563D01*
X406811Y6527D01*
X406871Y6487D01*
X406928Y6445D01*
X406983Y6399D01*
X407036Y6351D01*
X407085Y6300D01*
X407132Y6246D01*
X407176Y6190D01*
X407217Y6131D01*
X407255Y6071D01*
X407290Y6008D01*
X407321Y5944D01*
X407349Y5878D01*
X407373Y5811D01*
X407394Y5743D01*
X407411Y5673D01*
X407424Y5603D01*
X407433Y5533D01*
X407439Y5461D01*
X407441Y5390D01*
X407440Y5390D02*
X407440Y4050D01*
X407438Y3959D01*
X407432Y3868D01*
X407423Y3778D01*
X407409Y3687D01*
X407392Y3598D01*
X407371Y3510D01*
X407346Y3422D01*
X407317Y3335D01*
X407285Y3250D01*
X407250Y3166D01*
X407210Y3084D01*
X407168Y3004D01*
X407122Y2925D01*
X407072Y2849D01*
X407020Y2775D01*
X406964Y2702D01*
X406905Y2633D01*
X406844Y2566D01*
X406779Y2501D01*
X406712Y2440D01*
X406643Y2381D01*
X406570Y2325D01*
X406496Y2273D01*
X406420Y2223D01*
X406341Y2177D01*
X406261Y2135D01*
X406179Y2095D01*
X406095Y2060D01*
X406010Y2028D01*
X405923Y1999D01*
X405835Y1974D01*
X405747Y1953D01*
X405658Y1936D01*
X405567Y1922D01*
X405477Y1913D01*
X405386Y1907D01*
X405295Y1905D01*
X939800Y647700D02*
X952500Y660400D01*
X939800Y660400D02*
X939800Y647700D01*
X952500Y660400D02*
X939800Y673100D01*
X939800Y660400D01*
X983869Y648335D02*
X987354Y648335D01*
X987425Y648337D01*
X987497Y648343D01*
X987567Y648352D01*
X987637Y648365D01*
X987707Y648382D01*
X987775Y648403D01*
X987842Y648427D01*
X987908Y648455D01*
X987972Y648486D01*
X988035Y648521D01*
X988095Y648559D01*
X988154Y648600D01*
X988210Y648644D01*
X988264Y648691D01*
X988315Y648740D01*
X988363Y648793D01*
X988409Y648848D01*
X988451Y648905D01*
X988491Y648965D01*
X988527Y649026D01*
X988560Y649090D01*
X988589Y649155D01*
X988615Y649221D01*
X988638Y649289D01*
X988657Y649358D01*
X988672Y649428D01*
X988683Y649498D01*
X988691Y649569D01*
X988695Y649640D01*
X988695Y649712D01*
X988691Y649783D01*
X988683Y649854D01*
X988672Y649924D01*
X988657Y649994D01*
X988638Y650063D01*
X988615Y650131D01*
X988589Y650197D01*
X988560Y650262D01*
X988527Y650326D01*
X988491Y650387D01*
X988451Y650447D01*
X988409Y650504D01*
X988363Y650559D01*
X988315Y650612D01*
X988264Y650661D01*
X988210Y650708D01*
X988154Y650752D01*
X988095Y650793D01*
X988035Y650831D01*
X987972Y650866D01*
X987908Y650897D01*
X987842Y650925D01*
X987775Y650949D01*
X987707Y650970D01*
X987637Y650987D01*
X987567Y651000D01*
X987497Y651009D01*
X987425Y651015D01*
X987354Y651017D01*
X987354Y651016D02*
X983869Y651016D01*
X983869Y654979D02*
X988695Y654979D01*
X986282Y654979D02*
X985880Y654309D01*
X985850Y654262D01*
X985816Y654218D01*
X985780Y654176D01*
X985741Y654137D01*
X985700Y654100D01*
X985655Y654067D01*
X985609Y654037D01*
X985561Y654009D01*
X985511Y653986D01*
X985459Y653966D01*
X985406Y653949D01*
X985353Y653936D01*
X985298Y653927D01*
X985243Y653922D01*
X985187Y653920D01*
X985132Y653922D01*
X985077Y653928D01*
X985023Y653938D01*
X984969Y653952D01*
X984916Y653969D01*
X984865Y653990D01*
X984815Y654015D01*
X984767Y654042D01*
X984722Y654073D01*
X984678Y654108D01*
X984637Y654145D01*
X984598Y654184D01*
X984563Y654227D01*
X984530Y654272D01*
X984500Y654318D01*
X984474Y654367D01*
X984452Y654418D01*
X984432Y654470D01*
X984417Y654523D01*
X984405Y654577D01*
X984406Y654577D02*
X984391Y654666D01*
X984381Y654756D01*
X984374Y654845D01*
X984371Y654936D01*
X984372Y655026D01*
X984377Y655116D01*
X984385Y655205D01*
X984398Y655295D01*
X984414Y655383D01*
X984434Y655471D01*
X984457Y655558D01*
X984484Y655644D01*
X984515Y655729D01*
X984550Y655812D01*
X984588Y655894D01*
X984629Y655974D01*
X984674Y656052D01*
X986282Y654979D02*
X986684Y655649D01*
X986714Y655696D01*
X986748Y655740D01*
X986784Y655782D01*
X986823Y655821D01*
X986864Y655858D01*
X986909Y655891D01*
X986955Y655921D01*
X987003Y655949D01*
X987053Y655972D01*
X987105Y655992D01*
X987158Y656009D01*
X987211Y656022D01*
X987266Y656031D01*
X987321Y656036D01*
X987377Y656038D01*
X987432Y656036D01*
X987487Y656030D01*
X987541Y656020D01*
X987595Y656006D01*
X987648Y655989D01*
X987699Y655968D01*
X987749Y655943D01*
X987797Y655916D01*
X987843Y655885D01*
X987886Y655850D01*
X987927Y655813D01*
X987966Y655774D01*
X988001Y655731D01*
X988034Y655686D01*
X988064Y655639D01*
X988090Y655591D01*
X988112Y655540D01*
X988132Y655488D01*
X988147Y655435D01*
X988159Y655381D01*
X988158Y655381D02*
X988173Y655292D01*
X988183Y655202D01*
X988190Y655112D01*
X988193Y655022D01*
X988192Y654932D01*
X988187Y654842D01*
X988179Y654753D01*
X988166Y654663D01*
X988150Y654575D01*
X988130Y654487D01*
X988107Y654400D01*
X988080Y654314D01*
X988049Y654230D01*
X988014Y654146D01*
X987976Y654065D01*
X987935Y653985D01*
X987890Y653906D01*
X984941Y658759D02*
X983869Y660100D01*
X988695Y660100D01*
X988695Y661440D02*
X988695Y658759D01*
X988695Y664245D02*
X988695Y665586D01*
X988693Y665657D01*
X988687Y665729D01*
X988678Y665799D01*
X988665Y665869D01*
X988648Y665939D01*
X988627Y666007D01*
X988603Y666074D01*
X988575Y666140D01*
X988544Y666204D01*
X988509Y666267D01*
X988471Y666327D01*
X988430Y666386D01*
X988386Y666442D01*
X988339Y666496D01*
X988290Y666547D01*
X988237Y666595D01*
X988182Y666641D01*
X988125Y666683D01*
X988065Y666723D01*
X988004Y666759D01*
X987940Y666792D01*
X987875Y666821D01*
X987809Y666847D01*
X987741Y666870D01*
X987672Y666889D01*
X987602Y666904D01*
X987532Y666915D01*
X987461Y666923D01*
X987390Y666927D01*
X987318Y666927D01*
X987247Y666923D01*
X987176Y666915D01*
X987106Y666904D01*
X987036Y666889D01*
X986967Y666870D01*
X986899Y666847D01*
X986833Y666821D01*
X986768Y666792D01*
X986704Y666759D01*
X986643Y666723D01*
X986583Y666683D01*
X986526Y666641D01*
X986471Y666595D01*
X986418Y666547D01*
X986369Y666496D01*
X986322Y666442D01*
X986278Y666386D01*
X986237Y666327D01*
X986199Y666267D01*
X986164Y666204D01*
X986133Y666140D01*
X986105Y666074D01*
X986081Y666007D01*
X986060Y665939D01*
X986043Y665869D01*
X986030Y665799D01*
X986021Y665729D01*
X986015Y665657D01*
X986013Y665586D01*
X983869Y665854D02*
X983869Y664245D01*
X983869Y665854D02*
X983871Y665919D01*
X983877Y665983D01*
X983887Y666047D01*
X983900Y666111D01*
X983918Y666173D01*
X983939Y666234D01*
X983963Y666294D01*
X983992Y666352D01*
X984024Y666409D01*
X984059Y666463D01*
X984097Y666515D01*
X984139Y666565D01*
X984183Y666612D01*
X984230Y666656D01*
X984280Y666698D01*
X984332Y666736D01*
X984386Y666771D01*
X984443Y666803D01*
X984501Y666832D01*
X984561Y666856D01*
X984622Y666877D01*
X984684Y666895D01*
X984748Y666908D01*
X984812Y666918D01*
X984876Y666924D01*
X984941Y666926D01*
X985006Y666924D01*
X985070Y666918D01*
X985134Y666908D01*
X985198Y666895D01*
X985260Y666877D01*
X985321Y666856D01*
X985381Y666832D01*
X985439Y666803D01*
X985496Y666771D01*
X985550Y666736D01*
X985602Y666698D01*
X985652Y666656D01*
X985699Y666612D01*
X985743Y666565D01*
X985785Y666515D01*
X985823Y666463D01*
X985858Y666409D01*
X985890Y666352D01*
X985919Y666294D01*
X985943Y666234D01*
X985964Y666173D01*
X985982Y666111D01*
X985995Y666047D01*
X986005Y665983D01*
X986011Y665919D01*
X986013Y665854D01*
X986014Y665854D02*
X986014Y664782D01*
M02*
