G04 EAGLE Gerber RS-274X export*
G75*
%MOMM*%
%FSLAX34Y34*%
%LPD*%
%INSilkscreen Bottom*%
%IPPOS*%
%AMOC8*
5,1,8,0,0,1.08239X$1,22.5*%
G01*
%ADD10C,0.127000*%
%ADD11C,0.101600*%


D10*
X13300Y966100D02*
X13300Y888100D01*
X103300Y888100D02*
X103300Y966100D01*
X13300Y966100D01*
X13300Y888100D02*
X103300Y888100D01*
X58300Y962100D02*
X18300Y957100D01*
X18300Y947100D01*
X58300Y942100D01*
X63300Y892100D02*
X18300Y897100D01*
X18300Y907100D01*
X63300Y912100D01*
X68300Y934600D02*
X18300Y939600D01*
X68300Y934600D02*
X68300Y919600D01*
X18300Y914600D01*
D11*
X559192Y591092D02*
X559192Y582654D01*
X559190Y582541D01*
X559184Y582428D01*
X559174Y582315D01*
X559160Y582202D01*
X559143Y582090D01*
X559121Y581979D01*
X559096Y581869D01*
X559066Y581759D01*
X559033Y581651D01*
X558996Y581544D01*
X558956Y581438D01*
X558911Y581334D01*
X558863Y581231D01*
X558812Y581130D01*
X558757Y581031D01*
X558699Y580934D01*
X558637Y580839D01*
X558572Y580746D01*
X558504Y580656D01*
X558433Y580568D01*
X558358Y580482D01*
X558281Y580399D01*
X558201Y580319D01*
X558118Y580242D01*
X558032Y580167D01*
X557944Y580096D01*
X557854Y580028D01*
X557761Y579963D01*
X557666Y579901D01*
X557569Y579843D01*
X557470Y579788D01*
X557369Y579737D01*
X557266Y579689D01*
X557162Y579644D01*
X557056Y579604D01*
X556949Y579567D01*
X556841Y579534D01*
X556731Y579504D01*
X556621Y579479D01*
X556510Y579457D01*
X556398Y579440D01*
X556285Y579426D01*
X556172Y579416D01*
X556059Y579410D01*
X555946Y579408D01*
X555833Y579410D01*
X555720Y579416D01*
X555607Y579426D01*
X555494Y579440D01*
X555382Y579457D01*
X555271Y579479D01*
X555161Y579504D01*
X555051Y579534D01*
X554943Y579567D01*
X554836Y579604D01*
X554730Y579644D01*
X554626Y579689D01*
X554523Y579737D01*
X554422Y579788D01*
X554323Y579843D01*
X554226Y579901D01*
X554131Y579963D01*
X554038Y580028D01*
X553948Y580096D01*
X553860Y580167D01*
X553774Y580242D01*
X553691Y580319D01*
X553611Y580399D01*
X553534Y580482D01*
X553459Y580568D01*
X553388Y580656D01*
X553320Y580746D01*
X553255Y580839D01*
X553193Y580934D01*
X553135Y581031D01*
X553080Y581130D01*
X553029Y581231D01*
X552981Y581334D01*
X552936Y581438D01*
X552896Y581544D01*
X552859Y581651D01*
X552826Y581759D01*
X552796Y581869D01*
X552771Y581979D01*
X552749Y582090D01*
X552732Y582202D01*
X552718Y582315D01*
X552708Y582428D01*
X552702Y582541D01*
X552700Y582654D01*
X552701Y582654D02*
X552701Y591092D01*
X544897Y591092D02*
X544897Y579408D01*
X544897Y585250D02*
X546520Y586224D01*
X546521Y586223D02*
X546594Y586270D01*
X546665Y586319D01*
X546735Y586372D01*
X546801Y586428D01*
X546865Y586487D01*
X546927Y586548D01*
X546985Y586612D01*
X547041Y586679D01*
X547093Y586748D01*
X547143Y586820D01*
X547189Y586894D01*
X547232Y586969D01*
X547271Y587047D01*
X547307Y587126D01*
X547339Y587207D01*
X547368Y587289D01*
X547393Y587372D01*
X547414Y587456D01*
X547431Y587541D01*
X547445Y587627D01*
X547454Y587713D01*
X547460Y587800D01*
X547462Y587887D01*
X547460Y587974D01*
X547454Y588061D01*
X547444Y588147D01*
X547431Y588233D01*
X547413Y588318D01*
X547392Y588402D01*
X547367Y588485D01*
X547338Y588568D01*
X547306Y588648D01*
X547270Y588727D01*
X547231Y588805D01*
X547188Y588880D01*
X547141Y588954D01*
X547092Y589025D01*
X547039Y589095D01*
X546984Y589161D01*
X546925Y589225D01*
X546864Y589287D01*
X546799Y589346D01*
X546733Y589401D01*
X546664Y589454D01*
X546592Y589504D01*
X546519Y589550D01*
X546443Y589593D01*
X546366Y589632D01*
X546287Y589668D01*
X546206Y589701D01*
X546124Y589729D01*
X546041Y589755D01*
X545957Y589776D01*
X545871Y589793D01*
X545871Y589794D02*
X545731Y589818D01*
X545589Y589838D01*
X545448Y589854D01*
X545306Y589865D01*
X545163Y589873D01*
X545021Y589877D01*
X544878Y589878D01*
X544735Y589874D01*
X544593Y589866D01*
X544451Y589854D01*
X544309Y589838D01*
X544168Y589819D01*
X544027Y589795D01*
X543887Y589768D01*
X543748Y589736D01*
X543610Y589701D01*
X543472Y589662D01*
X543336Y589619D01*
X543202Y589573D01*
X543068Y589522D01*
X542936Y589469D01*
X542806Y589411D01*
X542677Y589350D01*
X542550Y589285D01*
X542424Y589217D01*
X542301Y589145D01*
X544897Y585250D02*
X543275Y584276D01*
X543274Y584277D02*
X543201Y584230D01*
X543130Y584181D01*
X543060Y584128D01*
X542994Y584072D01*
X542930Y584013D01*
X542868Y583952D01*
X542810Y583888D01*
X542754Y583821D01*
X542702Y583752D01*
X542652Y583680D01*
X542606Y583606D01*
X542563Y583531D01*
X542524Y583453D01*
X542488Y583374D01*
X542456Y583293D01*
X542427Y583211D01*
X542402Y583128D01*
X542381Y583044D01*
X542364Y582959D01*
X542350Y582873D01*
X542341Y582787D01*
X542335Y582700D01*
X542333Y582613D01*
X542335Y582526D01*
X542341Y582439D01*
X542351Y582353D01*
X542364Y582267D01*
X542382Y582182D01*
X542403Y582098D01*
X542428Y582015D01*
X542457Y581932D01*
X542489Y581852D01*
X542525Y581773D01*
X542564Y581695D01*
X542607Y581620D01*
X542654Y581546D01*
X542703Y581475D01*
X542756Y581405D01*
X542811Y581339D01*
X542870Y581275D01*
X542931Y581213D01*
X542996Y581154D01*
X543062Y581099D01*
X543131Y581046D01*
X543203Y580996D01*
X543276Y580950D01*
X543352Y580907D01*
X543429Y580868D01*
X543508Y580832D01*
X543589Y580799D01*
X543671Y580771D01*
X543754Y580745D01*
X543838Y580724D01*
X543923Y580707D01*
X543924Y580706D02*
X544064Y580682D01*
X544206Y580662D01*
X544347Y580646D01*
X544489Y580635D01*
X544632Y580627D01*
X544774Y580623D01*
X544917Y580622D01*
X545060Y580626D01*
X545202Y580634D01*
X545344Y580646D01*
X545486Y580662D01*
X545627Y580681D01*
X545768Y580705D01*
X545908Y580732D01*
X546047Y580764D01*
X546185Y580799D01*
X546323Y580838D01*
X546459Y580881D01*
X546593Y580927D01*
X546727Y580978D01*
X546859Y581031D01*
X546990Y581089D01*
X547118Y581150D01*
X547245Y581215D01*
X547371Y581283D01*
X547494Y581355D01*
X537475Y588496D02*
X534230Y591092D01*
X534230Y579408D01*
X537475Y579408D02*
X530984Y579408D01*
M02*
