G04 EAGLE Gerber RS-274X export*
G75*
%MOMM*%
%FSLAX34Y34*%
%LPD*%
%INSolderpaste Bottom*%
%IPPOS*%
%AMOC8*
5,1,8,0,0,1.08239X$1,22.5*%
G01*
%ADD10C,0.132000*%
%ADD11R,0.450000X0.330000*%
%ADD12R,0.330000X0.450000*%
%ADD13R,6.000000X6.000000*%


D10*
X556985Y566890D02*
X560165Y566890D01*
X560165Y564910D01*
X556985Y564910D01*
X556985Y566890D01*
X556985Y566164D02*
X560165Y566164D01*
D11*
X558575Y559400D03*
X558575Y552900D03*
X558575Y546400D03*
X558575Y539900D03*
X558575Y533400D03*
X558575Y526900D03*
X558575Y520400D03*
X558575Y513900D03*
X558575Y507400D03*
D10*
X556985Y501890D02*
X560165Y501890D01*
X560165Y499910D01*
X556985Y499910D01*
X556985Y501890D01*
X556985Y501164D02*
X560165Y501164D01*
X554190Y497115D02*
X554190Y493935D01*
X552210Y493935D01*
X552210Y497115D01*
X554190Y497115D01*
X554190Y495189D02*
X552210Y495189D01*
X552210Y496443D02*
X554190Y496443D01*
D12*
X546700Y495525D03*
X540200Y495525D03*
X533700Y495525D03*
X527200Y495525D03*
X520700Y495525D03*
X514200Y495525D03*
X507700Y495525D03*
X501200Y495525D03*
X494700Y495525D03*
D10*
X489190Y497115D02*
X489190Y493935D01*
X487210Y493935D01*
X487210Y497115D01*
X489190Y497115D01*
X489190Y495189D02*
X487210Y495189D01*
X487210Y496443D02*
X489190Y496443D01*
X484415Y499910D02*
X481235Y499910D01*
X481235Y501890D01*
X484415Y501890D01*
X484415Y499910D01*
X484415Y501164D02*
X481235Y501164D01*
D11*
X482825Y507400D03*
X482825Y513900D03*
X482825Y520400D03*
X482825Y526900D03*
X482825Y533400D03*
X482825Y539900D03*
X482825Y546400D03*
X482825Y552900D03*
X482825Y559400D03*
D10*
X484415Y564910D02*
X481235Y564910D01*
X481235Y566890D01*
X484415Y566890D01*
X484415Y564910D01*
X484415Y566164D02*
X481235Y566164D01*
X487210Y569685D02*
X487210Y572865D01*
X489190Y572865D01*
X489190Y569685D01*
X487210Y569685D01*
X487210Y570939D02*
X489190Y570939D01*
X489190Y572193D02*
X487210Y572193D01*
D12*
X494700Y571275D03*
X501200Y571275D03*
X507700Y571275D03*
X514200Y571275D03*
X520700Y571275D03*
X527200Y571275D03*
X533700Y571275D03*
X540200Y571275D03*
X546700Y571275D03*
D10*
X552210Y569685D02*
X552210Y572865D01*
X554190Y572865D01*
X554190Y569685D01*
X552210Y569685D01*
X552210Y570939D02*
X554190Y570939D01*
X554190Y572193D02*
X552210Y572193D01*
D13*
X520700Y533400D03*
M02*
