G04 EAGLE Gerber RS-274X export*
G75*
%MOMM*%
%FSLAX34Y34*%
%LPD*%
%INSoldermask Top*%
%IPPOS*%
%AMOC8*
5,1,8,0,0,1.08239X$1,22.5*%
G01*
%ADD10P,1.649562X8X202.500000*%
%ADD11P,1.649562X8X22.500000*%
%ADD12C,1.524000*%
%ADD13C,1.511200*%
%ADD14C,3.053200*%
%ADD15P,1.649562X8X112.500000*%
%ADD16C,2.082800*%
%ADD17C,1.711200*%
%ADD18C,0.959600*%


D10*
X419100Y546100D03*
X393700Y546100D03*
X495300Y444500D03*
X469900Y444500D03*
X850900Y800100D03*
X825500Y800100D03*
X520700Y952500D03*
X495300Y952500D03*
D11*
X304800Y850900D03*
X330200Y850900D03*
D12*
X292100Y749300D03*
D11*
X342900Y749300D03*
D12*
X635000Y520700D03*
D11*
X685800Y520700D03*
D13*
X101800Y943100D03*
X101800Y927100D03*
X101800Y911100D03*
X89800Y935100D03*
X89800Y919100D03*
D14*
X50800Y890600D03*
X50800Y963600D03*
D11*
X622300Y965200D03*
X647700Y965200D03*
X622300Y889000D03*
X647700Y889000D03*
X482600Y889000D03*
X584200Y889000D03*
D10*
X444500Y889000D03*
X342900Y889000D03*
D15*
X482600Y736600D03*
X482600Y838200D03*
X584200Y736600D03*
X584200Y838200D03*
D16*
X304800Y533400D03*
X304800Y558800D03*
X304800Y584200D03*
X800100Y977900D03*
X825500Y977900D03*
X850900Y977900D03*
X876300Y977900D03*
X901700Y977900D03*
X927100Y977900D03*
X952500Y977900D03*
X977900Y977900D03*
D17*
X281300Y952500D03*
X201300Y952500D03*
D13*
X261300Y952500D03*
X241300Y952500D03*
X221300Y952500D03*
D11*
X368300Y952500D03*
X355600Y971550D03*
X342900Y952500D03*
D16*
X698500Y952500D03*
X749300Y952500D03*
X711200Y863600D03*
X762000Y863600D03*
X965200Y444500D03*
X965200Y469900D03*
X965200Y495300D03*
X965200Y520700D03*
X965200Y546100D03*
X965200Y571500D03*
X965200Y596900D03*
X965200Y622300D03*
X609600Y25400D03*
X635000Y25400D03*
X660400Y25400D03*
X685800Y25400D03*
X711200Y25400D03*
X736600Y25400D03*
X762000Y25400D03*
X787400Y25400D03*
X25400Y622300D03*
X25400Y596900D03*
X25400Y571500D03*
X25400Y546100D03*
X25400Y520700D03*
X25400Y495300D03*
X25400Y469900D03*
X25400Y444500D03*
X406400Y25400D03*
X431800Y25400D03*
X457200Y25400D03*
X482600Y25400D03*
X508000Y25400D03*
X965200Y660400D03*
X965200Y685800D03*
X965200Y711200D03*
X965200Y736600D03*
X965200Y762000D03*
D18*
X825500Y952500D03*
X768350Y952500D03*
X768350Y977900D03*
X812800Y952500D03*
X787400Y469900D03*
X539674Y584124D03*
X787400Y577850D03*
X330200Y952500D03*
X304800Y952500D03*
X622300Y914400D03*
X457200Y914400D03*
X457200Y762000D03*
X457200Y838200D03*
X850900Y825500D03*
X692150Y825500D03*
X692150Y914400D03*
X469900Y533400D03*
X438150Y533400D03*
X438150Y546100D03*
X260350Y603250D03*
X260350Y749300D03*
X107950Y603250D03*
X107950Y146050D03*
X508000Y146050D03*
X527050Y469900D03*
X495300Y469900D03*
X419100Y762000D03*
X590550Y361950D03*
X495300Y361950D03*
X508000Y63500D03*
X584200Y927100D03*
X647700Y927100D03*
X469900Y546100D03*
X447238Y546100D03*
X444500Y584200D03*
X336550Y584200D03*
X336474Y533476D03*
X457200Y552450D03*
X438150Y558800D03*
X431800Y596900D03*
X527050Y800100D03*
X571500Y527050D03*
X457200Y482600D03*
X679450Y952500D03*
X679450Y723900D03*
X431800Y482600D03*
X514350Y482600D03*
X374650Y736600D03*
X368300Y577850D03*
X349250Y577850D03*
X355600Y412750D03*
X431800Y412750D03*
X571500Y558968D03*
X774700Y558800D03*
X774700Y615950D03*
X590550Y552450D03*
X863600Y552450D03*
X863600Y596900D03*
X571500Y546100D03*
X812800Y546100D03*
X812800Y571500D03*
X584200Y539750D03*
X571500Y247650D03*
X787400Y247650D03*
X552450Y476250D03*
X920750Y477238D03*
X920750Y520700D03*
X730250Y495300D03*
X730250Y482600D03*
X704850Y482600D03*
X704850Y457200D03*
X546100Y457200D03*
X539768Y469900D03*
X736600Y469900D03*
X520700Y374650D03*
X762000Y374650D03*
X507430Y456630D03*
X527050Y450850D03*
X527050Y387350D03*
X685800Y387350D03*
X482600Y419100D03*
X514350Y419100D03*
X514350Y462562D03*
X482600Y463550D03*
X476250Y488950D03*
X444500Y489938D03*
X469900Y558800D03*
X469900Y571500D03*
X469900Y717550D03*
X850900Y717550D03*
X850900Y768350D03*
X876300Y768350D03*
X876300Y939800D03*
X850900Y939800D03*
X615950Y863600D03*
X615950Y736600D03*
X457200Y565150D03*
X457200Y666750D03*
X596900Y666750D03*
X596900Y736600D03*
X603250Y889000D03*
X603250Y781050D03*
X546100Y781050D03*
X546100Y679450D03*
X488632Y679450D03*
X495300Y704850D03*
X876300Y711200D03*
X876300Y730250D03*
X920750Y730250D03*
X914400Y952500D03*
X876300Y952500D03*
X501650Y635000D03*
X196850Y641350D03*
X196850Y552450D03*
X508000Y609600D03*
X749300Y609600D03*
X749300Y749300D03*
X901700Y755650D03*
X514350Y812800D03*
X927100Y908050D03*
X774700Y812800D03*
X774700Y844550D03*
X927100Y844550D03*
X946150Y749300D03*
X889000Y742950D03*
X889000Y666750D03*
X666750Y666750D03*
X666750Y590550D03*
X546100Y590550D03*
X558800Y698500D03*
X927100Y698500D03*
X927100Y781050D03*
X984250Y781050D03*
X88900Y622300D03*
X533400Y622300D03*
X583342Y520982D03*
X603250Y501650D03*
X603250Y647700D03*
X158750Y647700D03*
X158750Y927100D03*
X615950Y514350D03*
X615950Y692150D03*
X76200Y692150D03*
X590550Y515338D03*
X711200Y406400D03*
X533700Y406700D03*
X463474Y501574D03*
X400050Y501650D03*
X400050Y279400D03*
X660400Y279400D03*
X450850Y514350D03*
X260350Y514350D03*
X260350Y469900D03*
X469900Y520700D03*
X323850Y495300D03*
X323850Y520700D03*
X419100Y444500D03*
X419100Y508000D03*
X469900Y508000D03*
X450850Y527050D03*
X273050Y520700D03*
X273050Y482600D03*
X342900Y482600D03*
X342900Y527050D03*
X596900Y565150D03*
X800100Y565150D03*
X800100Y635000D03*
X939800Y635000D03*
X939800Y711200D03*
M02*
